<svg width="40" height="40" viewBox="0 0 40 40" fill="none" xmlns="http://www.w3.org/2000/svg">
<path d="M40 0V40H0V0H40Z" fill="white" fill-opacity="0.01"/>
<path opacity="0.3" d="M19.5668 5.58081C19.7593 5.24748 20.2404 5.24748 20.4329 5.58081L35.4002 31.505C35.5926 31.8383 35.352 32.255 34.9671 32.255H5.03253C4.64763 32.255 4.40707 31.8383 4.59952 31.505L19.5668 5.58081Z" fill="#E82427"/>
<path d="M19.9998 15.0009V21.6676M19.9998 26.6676H20.0031M5.03253 32.255H34.9671C35.352 32.255 35.5926 31.8383 35.4002 31.505L20.4329 5.58081C20.2404 5.24748 19.7593 5.24748 19.5668 5.58081L4.59952 31.505C4.40707 31.8383 4.64763 32.255 5.03253 32.255Z" stroke="#E82427" stroke-linecap="round" stroke-linejoin="round"/>
</svg>
