<svg width="20" height="20" viewBox="0 0 20 20" fill="none" xmlns="http://www.w3.org/2000/svg">
<path d="M20 0V20H0V0H20Z" fill="white" fill-opacity="0.01"/>
<g opacity="0.3">
<path d="M3.33325 13.3333H16.6666V13.6666C16.6666 15.3234 15.3234 16.6666 13.6666 16.6666H6.33325C4.6764 16.6666 3.33325 15.3234 3.33325 13.6666V13.3333Z" fill="#1E4262"/>
<path d="M16.6666 6.90468C16.6666 8.33325 14.1666 8.33325 9.99992 8.33325C5.83325 8.33325 3.33325 8.33325 3.33325 6.90468C3.33325 5.32672 6.31802 3.33325 9.99992 3.33325C13.6818 3.33325 16.6666 5.32672 16.6666 6.90468Z" fill="#1E4262"/>
</g>
<path d="M16.6952 11.1306L15.9244 10.6167C15.3646 10.2435 14.6353 10.2435 14.0754 10.6167L13.4244 11.0507C12.8646 11.424 12.1353 11.424 11.5754 11.0507L10.9244 10.6167C10.3646 10.2435 9.63526 10.2435 9.07542 10.6167L8.42442 11.0507C7.86459 11.424 7.13526 11.424 6.57542 11.0507L5.92442 10.6167C5.36459 10.2435 4.63525 10.2435 4.07542 10.6167C3.83136 10.7795 3.59324 10.9639 3.33325 11.1009M3.33325 13.3333H16.6666V13.6666C16.6666 15.3234 15.3234 16.6666 13.6666 16.6666H6.33325C4.6764 16.6666 3.33325 15.3234 3.33325 13.6666V13.3333ZM16.6666 6.90468C16.6666 8.33325 14.1666 8.33325 9.99992 8.33325C5.83325 8.33325 3.33325 8.33325 3.33325 6.90468C3.33325 5.32672 6.31802 3.33325 9.99992 3.33325C13.6818 3.33325 16.6666 5.32672 16.6666 6.90468Z" stroke="#1E4262" stroke-linecap="round" stroke-linejoin="round"/>
</svg>
