<svg width="54" height="74" viewBox="0 0 54 74" fill="none" xmlns="http://www.w3.org/2000/svg">
<path d="M45.3624 19.7857C45.2999 19.7857 45.2374 19.7857 45.1749 19.7857L43 12.2633C45.1125 11.1508 46.4625 8.91305 46.4625 6.49831C46.4625 2.9078 43.575 0 40.0375 0C36.4875 0 33.6125 2.92045 33.6125 6.49831C33.6125 8.62227 34.625 10.5819 36.325 11.7956L26.9125 32.9972C26.6375 32.9719 26.375 32.9719 26.1 32.9972L16.6875 11.7956C18.3875 10.5819 19.3875 8.62227 19.3875 6.49831C19.3875 2.9078 16.5 0 12.9625 0C9.41249 0 6.5375 2.92045 6.5375 6.49831C6.5375 8.9004 7.87499 11.1255 9.96249 12.2507L7.72499 19.7857C7.68749 19.7857 7.66249 19.7857 7.63749 19.7857C5.075 19.7857 3 21.897 3 24.4761C3 27.0678 5.0875 29.1665 7.63749 29.1665C10.2 29.1665 12.275 27.0552 12.275 24.4761C12.275 22.8579 11.45 21.366 10.1125 20.5063L12.35 12.9713C13.05 13.0472 13.7375 12.9966 14.4125 12.8323L23.825 34.0339C23 34.7925 22.5375 35.8545 22.5375 36.9923C22.5375 39.2048 24.3125 41 26.5 41C28.6875 41 30.4625 39.2048 30.4625 36.9923C30.4625 35.8545 30 34.7925 29.175 34.0339L38.5875 12.8323C39.25 12.984 39.9125 13.0345 40.6125 12.9713L42.8125 20.5569C41.525 21.4292 40.725 22.8958 40.725 24.4761C40.725 27.0678 42.8125 29.1665 45.3624 29.1665C47.9249 29.1665 49.9999 27.0552 49.9999 24.4761C50.0124 21.8844 47.9249 19.7857 45.3624 19.7857ZM7.62499 26.6506C6.4375 26.6506 5.475 25.6772 5.475 24.4761C5.475 23.2751 6.4375 22.3016 7.62499 22.3016C8.81249 22.3016 9.77499 23.2751 9.77499 24.4761C9.78749 25.6772 8.81249 26.6506 7.62499 26.6506ZM16.9 6.49831C16.9 8.69812 15.1375 10.4807 12.9625 10.4807C10.7875 10.4807 9.02499 8.69812 9.02499 6.49831C9.02499 4.29849 10.7875 2.51588 12.9625 2.51588C15.1375 2.51588 16.9 4.29849 16.9 6.49831ZM27.975 37.0049C27.975 37.8267 27.3125 38.4968 26.5 38.4968C25.6875 38.4968 25.025 37.8267 25.025 37.0049C25.025 36.1832 25.6875 35.5131 26.5 35.5131C27.3125 35.5005 27.975 36.1705 27.975 37.0049ZM43.975 6.49831C43.975 8.69812 42.2125 10.4807 40.0375 10.4807C37.8625 10.4807 36.1 8.69812 36.1 6.49831C36.1 4.29849 37.8625 2.51588 40.0375 2.51588C42.2 2.51588 43.975 4.29849 43.975 6.49831ZM47.5125 24.4761C47.5125 25.6772 46.5499 26.6506 45.3624 26.6506C44.175 26.6506 43.2125 25.6772 43.2125 24.4761C43.2125 23.2751 44.175 22.3016 45.3624 22.3016C46.5499 22.3016 47.5125 23.2751 47.5125 24.4761Z" fill="url(#paint0_linear_148_6330)"/>
<path d="M49.4218 49.2122H48.1567C47.2755 49.2122 46.5648 49.9229 46.5648 50.8042V55.708H41.7747C41.7605 55.708 41.7605 55.708 41.7463 55.708V49.9229C41.7463 49.4823 41.3909 49.127 40.9503 49.127C40.5096 49.127 40.1543 49.4823 40.1543 49.9229V57.9396C40.1543 58.7924 39.472 59.4747 38.6192 59.4747H37.8516C37.411 59.4747 37.0557 59.83 37.0557 60.2707C37.0557 60.7113 37.411 61.0667 37.8516 61.0667H38.6192C40.3533 61.0667 41.7605 59.6595 41.7605 57.9254V57.3C41.7747 57.3 41.7747 57.3 41.7889 57.3H49.436C51.6676 57.3 53.487 55.4806 53.487 53.249C53.4727 51.0316 51.6534 49.2122 49.4218 49.2122ZM49.4218 55.708H48.171V50.8184H49.4218C50.7721 50.8184 51.8666 51.9129 51.8666 53.2632C51.8666 54.6135 50.7721 55.708 49.4218 55.708Z" fill="#7B868C"/>
<path d="M38.548 53.4764V49.9229C38.548 49.4823 38.1927 49.127 37.7521 49.127C37.3114 49.127 36.9561 49.4823 36.9561 49.9229V53.4764C36.9561 54.713 35.9611 55.708 34.7245 55.708H34.6819C34.3123 55.708 34.028 55.4095 34.028 55.0542V53.4764V49.9229C34.028 49.4823 33.6727 49.127 33.232 49.127C32.7914 49.127 32.4361 49.4823 32.4361 49.9229V53.4764C32.4361 54.713 31.4411 55.708 30.2045 55.708H29.508V49.9229C29.508 49.4823 29.1526 49.127 28.712 49.127C28.2714 49.127 27.916 49.4823 27.916 49.9229V55.708H17.1987V50.8042C17.1987 49.9229 16.488 49.2122 15.6068 49.2122H14.3417C12.1102 49.2122 10.2908 51.0316 10.2908 53.2632C10.2908 55.4948 12.1102 57.3142 14.3417 57.3142H15.5926V57.9396C15.5926 58.7924 14.9103 59.4747 14.0575 59.4747H13.2899C12.8493 59.4747 12.4939 59.83 12.4939 60.2707C12.4939 60.7113 12.8493 61.0667 13.2899 61.0667H14.0575C15.7916 61.0667 17.1987 59.6595 17.1987 57.9254V57.3H30.4319C30.4888 57.3 30.5456 57.2857 30.6025 57.2857C31.4553 57.2005 32.2229 56.8309 32.8198 56.2766C33.232 56.8878 33.9285 57.3 34.7103 57.3H34.7387C36.8282 57.3142 38.548 55.5943 38.548 53.4764ZM15.5499 54.4572V55.7222H14.2991C12.9488 55.7222 11.8543 54.6277 11.8543 53.2774C11.8543 51.9271 12.9488 50.8326 14.2991 50.8326H15.5499V54.4572Z" fill="#7B868C"/>
<path d="M7.86019 46C7.41956 46 7.06421 46.3553 7.06421 46.796V56.5041C7.06421 58.0108 5.84181 59.219 4.34935 59.219C2.84267 59.219 1.63449 57.9966 1.63449 56.5041C1.63449 54.9974 2.85689 53.7892 4.34935 53.7892C4.78998 53.7892 5.14533 53.4339 5.14533 52.9933C5.14533 52.5526 4.78998 52.1973 4.34935 52.1973C1.96141 52.1973 0.0283203 54.1446 0.0283203 56.5183C0.0283203 58.9062 1.97562 60.8393 4.34935 60.8393C6.73729 60.8393 8.67038 58.892 8.67038 56.5183V46.8102C8.65617 46.3696 8.30082 46 7.86019 46Z" fill="#7B868C"/>
<path d="M26.2672 47.1797C26.0825 46.8954 25.7982 46.6822 25.457 46.6112C25.1159 46.5401 24.7748 46.5969 24.4905 46.7817C24.2062 46.9665 23.993 47.2508 23.9219 47.5919C23.8509 47.933 23.9077 48.2742 24.0925 48.5585C24.2346 48.7717 24.4194 48.9422 24.6326 49.0417L23.3107 49.8804C23.1686 49.9656 23.126 50.1504 23.2112 50.2926C23.2681 50.3778 23.3676 50.4347 23.4671 50.4347C23.5239 50.4347 23.5808 50.4205 23.6234 50.3921L25.7982 49.0275C25.8124 49.0275 25.8124 49.0133 25.8266 49.0133C25.8408 48.9991 25.855 48.9991 25.8692 48.9849C26.1535 48.8001 26.3667 48.5158 26.4378 48.1747C26.5089 47.8193 26.452 47.4782 26.2672 47.1797ZM24.5047 47.7056C24.5474 47.5208 24.6611 47.3645 24.8174 47.265C24.9311 47.1939 25.0591 47.1513 25.187 47.1513C25.2438 47.1513 25.2865 47.1513 25.3433 47.1655C25.5281 47.2081 25.6845 47.3219 25.784 47.4782C25.8835 47.6346 25.9119 47.8193 25.8692 48.0041C25.8266 48.1889 25.7129 48.3453 25.5565 48.4448C25.2296 48.6437 24.8032 48.5442 24.6042 48.2315C24.4905 48.0752 24.4621 47.8904 24.5047 47.7056Z" fill="#7B868C"/>
<path d="M0.810195 72.8502C0.369564 72.8502 0 72.4949 0 72.04V64.0234C0 63.4264 0.48327 62.9431 1.08025 62.9431C1.52089 62.9431 1.90466 63.199 2.07523 63.6112L4.52003 69.3962L6.99325 63.6254C7.16382 63.2274 7.56181 62.9573 8.00244 62.9573C8.61364 62.9573 9.09691 63.4548 9.09691 64.0518V72.0542C9.09691 72.5091 8.72735 72.8644 8.28672 72.8644C7.83187 72.8644 7.47652 72.4949 7.47652 72.0542V68.316L7.64709 65.6295L5.42972 70.9171C5.27337 71.2725 4.93223 71.4999 4.54846 71.4999C4.16468 71.4999 3.80933 71.2725 3.66719 70.9171L1.44982 65.6011L1.60617 68.3444V72.0827C1.62039 72.4807 1.25083 72.8502 0.810195 72.8502Z" fill="#7B868C"/>
<path d="M23.581 66.9514C25.3151 67.2783 27.2482 67.9037 27.106 70.2348C27.0208 72.1252 25.2156 73.0065 23.4104 73.0065C22.2022 73.0065 21.0083 72.4948 20.2123 71.4714C19.8854 71.0592 20.0559 70.448 20.525 70.2348C20.8661 70.0784 21.2641 70.1637 21.4915 70.4622C21.9748 71.0876 22.6997 71.4145 23.4246 71.4145C24.4338 71.4145 25.4004 70.9739 25.4572 70.1068C25.5425 68.9839 24.4338 68.6997 23.2114 68.5149C21.5484 68.259 19.8711 67.4915 19.8569 65.5157C19.9706 63.7106 21.6763 62.7725 23.4104 62.7725C24.576 62.7725 25.6989 63.1278 26.4522 64.0517C26.7933 64.4639 26.6228 65.0751 26.1395 65.2883C25.8126 65.4305 25.4288 65.3452 25.2014 65.0609C24.7607 64.5066 24.1211 64.2791 23.3962 64.2791C22.4296 64.2791 21.52 64.734 21.4631 65.5726C21.4205 66.4254 22.5292 66.7524 23.581 66.9514Z" fill="#7B868C"/>
<path d="M32.294 62.7014C34.2981 62.7014 36.3165 63.7675 36.3165 65.9138V69.851C36.3165 71.9973 34.2981 73.0776 32.294 73.0776C30.2756 73.0776 28.2856 71.9973 28.2856 69.851V65.9138C28.2999 63.7675 30.2756 62.7014 32.294 62.7014ZM29.906 69.851C29.906 70.9171 31.1 71.4572 32.294 71.4572C33.5164 71.4572 34.6819 70.9171 34.6961 69.851V65.9138C34.6961 64.7766 33.4879 64.3076 32.294 64.3076C31.0858 64.3218 29.906 64.8051 29.906 65.9138V69.851Z" fill="#7B868C"/>
<path d="M41.8457 62.7014C43.8499 62.7014 45.8683 63.7675 45.8683 65.9138V69.851C45.8683 71.9973 43.8499 73.0776 41.8457 73.0776C39.8274 73.0776 37.8374 71.9973 37.8374 69.851V65.9138C37.8374 63.7675 39.8274 62.7014 41.8457 62.7014ZM39.4578 69.851C39.4578 70.9171 40.6518 71.4572 41.8457 71.4572C43.0681 71.4572 44.2337 70.9171 44.2479 69.851V65.9138C44.2479 64.7766 43.0397 64.3076 41.8457 64.3076C40.6375 64.3218 39.4578 64.8051 39.4578 65.9138V69.851Z" fill="#7B868C"/>
<path d="M52.6627 72.8502H48.029C47.6452 72.8502 47.3467 72.5375 47.3467 72.168V63.7533C47.3467 63.3127 47.702 62.9431 48.1569 62.9431C48.5975 62.9431 48.9671 63.2985 48.9671 63.7533V71.244H52.6769C53.1317 71.244 53.4871 71.6136 53.4871 72.0542C53.4729 72.4807 53.1033 72.8502 52.6627 72.8502Z" fill="#7B868C"/>
<path d="M12.7925 67.4631V64.5492H15.3083C16.3886 64.5208 17.1419 64.9046 17.1419 65.999C17.1419 67.1077 16.4312 67.5768 15.3083 67.5768H14.1854C13.7732 67.5768 13.5458 68.0458 13.8016 68.3727L17.014 72.5232C17.1846 72.7364 17.4404 72.8501 17.7247 72.8217C18.3217 72.7506 18.5917 72.0257 18.2222 71.5425L16.1612 68.9271C17.6678 68.7139 18.7765 67.8326 18.7765 65.9706C18.7197 63.7817 17.2556 62.9004 15.3083 62.9004H11.8685C11.4848 62.9004 11.1863 63.2131 11.1863 63.5827V71.9547C11.1863 72.3811 11.499 72.7506 11.9254 72.7933C12.4087 72.8359 12.8209 72.4664 12.8209 71.9831V68.9555V67.4631H12.7925Z" fill="#7B868C"/>
<defs>
<linearGradient id="paint0_linear_148_6330" x1="2.9872" y1="20.5063" x2="50.0066" y2="20.5063" gradientUnits="userSpaceOnUse">
<stop stop-color="#F3E500"/>
<stop offset="1" stop-color="#1DCAD3"/>
</linearGradient>
</defs>
</svg>
