<svg width="43" height="72" viewBox="0 0 43 72" fill="none" xmlns="http://www.w3.org/2000/svg">
<path d="M21.9641 42.0717C33.5819 42.0717 42.9999 32.6536 42.9999 21.0359C42.9999 9.41807 33.5819 0 21.9641 0C10.3463 0 0.928223 9.41807 0.928223 21.0359C0.928223 32.6536 10.3463 42.0717 21.9641 42.0717Z" fill="#214167"/>
<path fill-rule="evenodd" clip-rule="evenodd" d="M22.9958 4.32035C22.9884 4.39223 22.9884 4.46517 22.9958 4.53705V4.71781H22.7537V4.56136C22.7136 4.20935 22.462 4.24424 22.4567 4.60153V4.72309H22.2347C22.1142 4.72203 21.9958 4.75269 21.8922 4.814C21.8478 4.84571 21.8003 4.87214 21.7516 4.89434L21.4747 5.07087L20.8806 5.44825C20.4673 5.69983 20.518 5.57404 20.3774 6.68186L20.2971 7.40173L20.2421 7.9049L20.0307 9.69242L19.7939 11.7061L19.6829 12.6681L19.6079 13.3478L19.5529 13.851C19.5529 13.9916 19.5074 14.2685 19.4821 14.4651L19.4017 15.1247L19.3415 15.6279L19.2664 16.2273L18.98 18.7949L18.8595 19.8023L18.8045 20.3055C18.8045 20.4366 18.7643 20.6533 18.7442 20.7833L18.684 21.2864L18.629 21.7896C18.629 21.9302 18.5836 22.1723 18.5688 22.333L18.3521 24.2209C18.3521 24.3467 18.3119 24.5634 18.2971 24.7241L18.2316 25.2272L18.1153 26.2346C18.1153 26.3657 18.0751 26.5972 18.055 26.7378L17.9948 27.2811L17.9039 28.0866C17.8288 28.761 17.8288 28.7315 17.9039 28.7663C18.0614 28.8604 18.2654 28.8097 18.3595 28.6532C18.3901 28.6025 18.406 28.5443 18.407 28.4852C18.407 28.0169 18.4377 27.982 18.7495 28.0718L19.0814 28.167L19.2622 28.2219L19.443 28.2769L20.1332 28.4629C20.4652 28.5539 20.4408 28.4978 20.425 29.168V29.7473L20.5413 29.7822C20.6692 29.8245 20.8087 29.8139 20.9292 29.7515C20.9641 29.7515 20.9747 29.6152 20.9747 29.2124C20.9747 28.8097 20.9747 28.7092 21.0296 28.6786C21.0846 28.6479 23.7791 28.6035 25.0222 28.6035C25.5254 28.6035 25.4599 28.5528 25.4799 29.1067C25.4768 29.2758 25.4895 29.4439 25.5201 29.6099C25.685 29.6585 25.8594 29.6585 26.0233 29.6099L26.1036 29.575V29.2727L25.9979 27.6818C25.9979 27.4355 25.9525 27.0422 25.9377 26.8107L25.8774 25.9704L25.7611 24.3488L25.4588 19.9334C25.4588 19.6712 25.4133 19.2791 25.3985 19.0676L25.3531 18.4186L25.2474 16.9482C25.2474 16.7421 25.2072 16.3848 25.1924 16.1522L25.147 15.5381L25.0962 14.8985L25.036 14.0423L24.9609 12.925L24.6586 8.52435C24.6586 8.42921 24.6279 8.16177 24.6131 7.93978L24.4969 6.24317C24.4969 6.01167 24.4514 5.60364 24.4366 5.33197C24.4303 5.16284 24.4133 4.99476 24.3859 4.8288C24.2188 4.80343 24.0508 4.78863 23.8827 4.78335C23.3394 4.78335 23.3394 4.78335 23.2981 4.56664C23.2379 4.28969 23.0962 4.13853 23.0413 4.30026M23.6554 4.93979C23.4662 5.16601 23.2506 5.36685 23.0106 5.53916C22.8288 5.42605 22.6681 5.28123 22.537 5.11104C22.351 4.90491 22.3351 4.90914 23.0106 4.90914C23.4842 4.90914 23.61 4.90914 23.61 4.94931M22.3922 5.14592C22.9408 5.61421 22.9356 5.59412 22.5941 5.89116C22.2516 6.1882 22.222 6.21357 22.0909 6.16812L21.9958 6.12795V5.55924C21.9958 5.0159 22.0265 4.94508 22.1068 4.93979C22.1871 4.93451 22.2273 5.0307 22.3637 5.14592M23.7812 5.14592C23.852 5.51273 23.8753 5.88588 23.852 6.25903C23.8066 6.30448 23.7358 6.25903 23.4038 5.95142C23.0719 5.64381 23.0814 5.62372 23.2432 5.48313C23.6755 5.10575 23.7463 5.07616 23.7812 5.14592ZM21.5011 5.277C21.5011 5.33197 21.3753 5.51379 21.3045 5.5233C21.2337 5.53387 21.1586 5.43239 21.1935 5.37742C21.2294 5.32246 21.4757 5.20195 21.5011 5.277ZM21.1036 5.62901C21.1988 5.7548 21.1988 5.74951 21.0688 5.92076C20.9377 6.09201 20.8827 6.11738 20.9028 5.83514C20.9218 5.55396 20.9567 5.44296 21.1036 5.62901ZM21.4863 5.75057C21.4863 5.81083 21.426 5.88165 21.3806 5.83619C21.3351 5.79074 21.3806 5.79074 21.3806 5.75586C21.3806 5.72097 21.4609 5.6956 21.481 5.75586M23.2432 5.97679C23.5909 6.30871 23.5909 6.31399 23.0064 6.31399C22.3267 6.31399 22.3267 6.31399 22.6639 5.97679C23.0011 5.63958 22.9461 5.69032 23.2432 5.97679ZM21.3351 6.08249C21.426 6.203 21.4007 6.25374 21.2495 6.25374C21.0984 6.25374 21.0476 6.1882 21.1491 6.08249C21.2495 5.97679 21.2738 5.99687 21.3351 6.08249ZM21.4049 6.50004C21.3764 6.6512 21.3013 6.78862 21.1882 6.89327C21.1427 6.92393 20.9017 6.60152 20.9017 6.51061C20.9017 6.4197 21.4049 6.36473 21.4049 6.51061M22.332 6.55607C22.5381 6.68714 22.7241 6.84571 22.8859 7.02964C22.6005 7.33196 22.2833 7.60152 21.9398 7.83513C21.8742 7.83513 21.869 7.76959 21.8996 7.166C21.9387 6.37002 21.9895 6.2992 22.332 6.55607ZM23.5043 6.52118C23.5043 6.6068 23.1163 6.9641 23.0413 6.9345C22.9599 6.88904 22.8827 6.83725 22.8098 6.77805C22.3869 6.45564 22.3964 6.44084 23.0265 6.45036C23.4747 6.45036 23.5 6.45036 23.5296 6.52118M23.9123 6.58566C23.9123 6.62583 23.9831 7.35627 23.9873 7.62266C23.9873 7.71779 23.8816 7.67762 23.7009 7.51695L23.3838 7.24528C23.1924 7.08883 23.203 7.05395 23.4588 6.83196L23.6903 6.62055C23.7611 6.53598 23.8869 6.5159 23.9123 6.58566ZM20.8912 6.76748C21.0645 6.98418 21.0476 7.29602 20.851 7.49264C20.7347 7.60891 20.7199 7.57826 20.7305 7.19031C20.7411 6.80236 20.7759 6.68714 20.8912 6.76748ZM21.4303 7.00427C21.4852 7.15014 21.4303 7.46727 21.3753 7.46727C21.3203 7.46727 21.1988 7.2104 21.2696 7.03386C21.2992 6.94401 21.4007 6.92816 21.4303 7.00427ZM23.444 7.50744C23.8721 7.85944 23.8869 7.84993 23.0011 7.85944C22.1153 7.87001 22.1153 7.85944 22.6787 7.4419C23.0413 7.15543 23.0064 7.15543 23.444 7.50744ZM21.2136 7.5624C21.3647 7.75902 21.3193 7.83407 21.0476 7.83407C20.7759 7.83407 20.8108 7.78333 20.9419 7.58777C21.073 7.39221 21.0825 7.39221 21.2136 7.5624ZM21.2136 8.06663C21.2157 8.14274 21.1945 8.21885 21.1533 8.28333L21.037 8.50955C20.9768 8.63005 20.9112 8.5846 20.7506 8.29813C20.5899 8.01166 20.6798 8.01166 21.0074 8.00638C21.1681 8.00638 21.1935 8.00638 21.2136 8.06663ZM23.5857 8.06663C23.389 8.30024 23.1597 8.50532 22.906 8.67551C22.8668 8.67128 22.8288 8.65754 22.795 8.63534C22.221 8.16177 22.1353 8.08143 22.1956 8.04126C22.6586 8.00849 23.1237 8.01695 23.5857 8.06663ZM23.9831 8.48946C24.0635 9.46092 24.0286 9.64802 23.8066 9.4514L23.2019 8.94823C23.0508 8.83724 23.0212 8.7421 23.6396 8.24316C23.9567 7.99158 23.9419 7.98101 23.9821 8.50003M22.2263 8.31821C22.815 8.82138 22.8108 8.79601 22.5286 9.0328L22.1607 9.34041C21.7675 9.6829 21.758 9.67233 21.7833 8.83724C21.8087 8.00109 21.7833 7.98629 22.2263 8.33407M20.7157 8.56029C20.8595 8.76959 20.8595 9.04548 20.7157 9.25479C20.4789 9.72307 20.3986 9.71779 20.4493 9.25479C20.4493 9.08354 20.4895 8.85732 20.4948 8.75162C20.5349 8.31399 20.5899 8.27382 20.7368 8.58037M21.3351 8.82667V9.30024C21.3351 9.51694 21.2495 9.49686 21.1438 9.25479C21.0296 9.03914 21.0296 8.78121 21.1438 8.56451C21.3151 8.28756 21.3753 8.36261 21.3499 8.82667M23.3129 9.2347L23.6755 9.54654C23.6755 9.64696 23.6755 9.65225 22.8753 9.65225C22.0751 9.65225 22.0043 9.65225 22.1649 9.50637C22.3859 9.28756 22.6311 9.09517 22.8954 8.93238C23.0455 9.01694 23.1861 9.11842 23.3129 9.2347ZM21.1079 9.47572C21.3045 9.85309 21.2738 9.90912 20.8764 9.93871H20.5846V9.86366C20.6449 9.61314 20.7559 9.37846 20.9123 9.17339C20.9578 9.17339 21.0032 9.21356 21.129 9.45563M23.6153 9.77275C23.7104 9.80764 23.6607 9.86789 23.3584 10.1248C22.9408 10.4725 22.8954 10.4673 22.351 9.93871C22.296 9.88798 22.296 9.79284 22.351 9.77275C22.7728 9.75056 23.1945 9.75056 23.6153 9.77275ZM22.2463 10.0095C22.6343 10.3066 22.795 10.4472 22.795 10.5127C22.5053 10.8541 22.166 11.1491 21.7876 11.389C21.7178 10.9049 21.7178 10.4133 21.7876 9.9292C21.8129 9.76853 21.9282 9.79284 22.2411 10.0296M24.0941 9.95986C24.0941 10.0307 24.0941 10.1966 24.1248 10.3277C24.1554 10.4588 24.1554 10.721 24.1702 10.907C24.2157 11.4461 24.1702 11.4503 23.5561 10.9377L23.2992 10.7463C23.0476 10.555 23.0476 10.5603 23.4355 10.2432L23.8584 9.90066C23.999 9.78438 24.0751 9.80552 24.0952 9.95563M21.0328 10.055C21.1036 10.0856 21.0878 10.166 20.9874 10.3066C20.8869 10.4472 20.8214 10.4429 20.721 10.241C20.6206 10.0391 20.8013 9.96937 21.0328 10.055ZM20.6195 10.388C20.7855 10.6998 20.7855 10.7506 20.5793 11.0782C20.2675 11.5814 20.2115 11.5518 20.2971 10.9778C20.2971 10.8668 20.3373 10.6459 20.3521 10.4747C20.3975 10.0317 20.4271 10.0169 20.6184 10.3795M21.259 10.7294C21.259 11.2326 21.2241 11.2833 21.0624 11.0159C20.9007 10.7484 20.9112 10.6787 21.0624 10.5127C21.2136 10.3467 21.259 10.3108 21.259 10.7442M23.3742 10.9461C24.0339 11.4894 24.0592 11.4493 22.9567 11.4493C21.8542 11.4493 21.9493 11.4493 22.3372 11.1216L22.6449 10.87C22.9313 10.5983 22.9673 10.6036 23.3753 10.9408M20.8563 11.0222C20.9726 11.2167 21.0719 11.4207 21.1533 11.6311C20.9091 11.666 20.6618 11.666 20.4187 11.6311C20.4187 11.6057 20.4186 11.5909 20.5952 11.2484C20.7717 10.9059 20.7812 10.926 20.8573 11.0169M22.0444 11.7675L22.4271 12.0698C22.795 12.352 22.815 12.407 22.6184 12.573L22.4578 12.6987C21.5518 13.4186 21.6174 13.4133 21.6269 12.7791C21.6269 11.4852 21.6269 11.4746 22.0444 11.7717M23.7463 11.5962C23.777 11.647 23.7463 11.7019 23.61 11.7928C23.4736 11.8837 23.3679 11.9736 23.2273 12.0899C22.9197 12.3267 22.9303 12.3267 22.684 12.1448C22.11 11.7315 22.0349 11.6417 22.1047 11.5909C22.6512 11.5603 23.1998 11.5603 23.7463 11.5909M24.2495 11.7516C24.3034 12.2527 24.3235 12.7579 24.3098 13.2622C24.2696 13.3023 24.1787 13.2622 23.9123 13.0508L23.5043 12.7484C23.0011 12.3711 22.9704 12.426 23.61 11.9884L24.0529 11.666C24.184 11.555 24.2294 11.5804 24.2495 11.7664M20.9926 11.8573C20.9736 11.9768 20.9208 12.0888 20.8415 12.1797V12.2252C20.8415 12.2706 20.7358 12.3415 20.6956 12.3161C20.5878 12.1639 20.5096 11.9937 20.4641 11.8129C20.4948 11.7379 21.0032 11.7675 21.018 11.8383M20.4588 12.2051C20.6153 12.5021 20.6248 12.6026 20.5138 12.759C20.4567 12.8489 20.4028 12.9419 20.3531 13.036C20.202 13.3129 20.0307 13.3732 20.0762 13.1364C20.0762 13.0412 20.1216 12.7643 20.1713 12.2199C20.2062 11.8372 20.2622 11.8319 20.4578 12.2199M21.1988 12.5222C21.1988 13.1469 21.1639 13.1713 20.9567 12.8499C20.7506 12.5275 20.7802 12.5634 20.9567 12.2653C21.1332 11.9683 21.1988 11.9281 21.1882 12.5222M23.4398 12.8193C24.1195 13.3224 24.1449 13.3732 23.7019 13.3784H22.7252C21.7178 13.4091 21.7178 13.4239 22.2675 13.0106L22.7706 12.6174C22.962 12.4662 22.9926 12.4768 23.425 12.7939M20.8013 12.8499C20.8309 12.8869 20.8563 12.9281 20.8764 12.9704C20.9017 13.0286 20.9313 13.0846 20.9673 13.1364C21.1332 13.4228 21.1332 13.4228 20.6755 13.4334C20.2178 13.444 20.2019 13.4334 20.3785 13.1617L20.5592 12.8795C20.6554 12.7241 20.6998 12.7188 20.8013 12.8499ZM22.1406 13.8013C22.7749 14.3044 22.7453 14.2791 22.7347 14.3647C22.7241 14.4503 22.6036 14.5412 21.8986 15.0444C21.5106 15.3214 21.5307 15.3869 21.5814 14.1385V13.499H21.6618C21.7167 13.499 21.8531 13.5941 22.1153 13.8013M23.8372 13.5296C23.8372 13.5645 23.7918 13.6406 23.5804 13.796L23.2083 14.0825C22.9165 14.314 22.9165 14.314 22.463 13.9313C21.9239 13.4736 21.8996 13.4979 22.9662 13.4979C23.2622 13.4873 23.5582 13.4979 23.852 13.5286M24.3552 13.5296C24.3954 13.7558 24.4176 13.9852 24.4207 14.2146C24.4207 14.5666 24.4609 14.9598 24.4715 15.0856C24.4715 15.4028 24.4313 15.4535 24.2453 15.2875C24.2051 15.2474 24.0645 15.1364 23.9334 15.0412L23.6766 14.8446C23.6713 14.834 23.5 14.6987 23.3742 14.6025C23.0878 14.3858 23.0719 14.3161 23.2791 14.185L23.7273 13.8626C24.2294 13.4842 24.295 13.4535 24.3552 13.5296ZM20.8309 13.6152C20.8711 13.6607 20.8309 13.7009 20.6945 13.963C20.5582 14.2252 20.4926 14.26 20.2664 13.8626C20.2009 13.7516 20.1861 13.6713 20.2157 13.6205C20.4176 13.5698 20.628 13.5698 20.8299 13.6205M21.073 13.9472C21.0899 14.3277 21.0677 14.7093 21.0074 15.0846C20.8277 14.8753 20.6893 14.6353 20.5994 14.3742C20.6354 14.2727 20.6861 14.1776 20.7506 14.092C21.018 13.7051 21.0582 13.685 21.073 13.9472ZM20.2876 14.0983C20.4535 14.3499 20.444 14.4408 20.2019 14.8288C19.9599 15.2167 19.8743 15.297 19.8943 15.0053C19.9757 13.8721 20.0413 13.7209 20.2876 14.0983ZM23.1375 14.5106L23.5603 14.8584C24.1237 15.3161 24.1597 15.2865 22.9356 15.3362H21.9282C21.9282 15.3055 21.888 15.2051 21.9831 15.1343C22.0286 15.1057 22.073 15.074 22.1142 15.0391C22.2093 14.9641 22.3087 14.8932 22.4112 14.8277L22.7992 14.5507C22.9356 14.445 23.0857 14.4197 23.1565 14.4905M20.7559 14.8784C21.0783 15.3816 21.0783 15.3816 20.5096 15.3467C20.0064 15.3467 20.0064 15.3467 20.2125 15.0444C20.5444 14.5412 20.5392 14.5412 20.7559 14.8784ZM20.9218 15.5233C20.8288 15.7928 20.684 16.0412 20.4937 16.2537C20.4282 16.3087 20.3986 16.2537 20.1766 15.851C19.9546 15.4482 19.9652 15.408 20.5191 15.4176H20.9123V15.5127M24.2453 15.5127C24.2453 15.5581 24.1744 15.629 23.9429 15.7992L23.4038 16.1966C23.0962 16.4281 23.0761 16.4186 22.5074 15.9049L22.2453 15.6787C22.1745 15.6237 22.0888 15.5074 22.1396 15.4567C22.8425 15.4154 23.5465 15.4334 24.2453 15.5127ZM22.0645 15.7241L22.6332 16.1977C23.0106 16.5095 23.0106 16.5148 22.6332 16.7865L22.2157 17.1036C21.6068 17.5772 21.4652 17.6374 21.4652 17.426C21.4969 16.7791 21.5423 16.1332 21.6015 15.4873C21.6163 15.4524 21.7823 15.4873 22.0698 15.7241M24.5878 15.8298C24.5878 16.0106 24.6734 17.0983 24.6829 17.3911C24.6829 17.5972 24.6174 17.5824 24.2802 17.3108L23.777 16.8975C23.4652 16.6607 23.3394 16.5455 23.3394 16.5C23.5656 16.2822 23.8119 16.0867 24.074 15.9154L24.2601 15.7844C24.5064 15.5581 24.5772 15.5624 24.6079 15.8298M19.98 15.7294C20.092 15.889 20.1914 16.0571 20.277 16.2326C20.4081 16.4746 20.3933 16.5296 20.0656 17.018C19.7379 17.5063 19.6628 17.5719 19.7337 16.9271C19.7337 16.7463 19.7886 16.4239 19.814 16.167C19.869 15.6639 19.8795 15.6131 19.98 15.7336M21.0825 16.5053C21.0825 17.3562 21.0476 17.407 20.8457 17.0592L20.6649 16.7474C20.5857 16.4968 20.6554 16.223 20.8457 16.0423C20.8838 15.9968 20.9176 15.9482 20.9461 15.8964C21.0825 15.6892 21.0984 15.7495 21.0825 16.5053ZM23.5148 16.8478L24.0687 17.2854C24.5021 17.6226 24.5719 17.6078 23.1227 17.5972C22.7199 17.611 22.3161 17.5972 21.9144 17.5571C22.2897 17.2093 22.6945 16.8943 23.1227 16.6152C23.2421 16.6797 23.3531 16.7569 23.4546 16.8467M20.4789 16.7717C20.6248 17.0095 20.7453 17.2632 20.8362 17.5264C20.8362 17.5571 20.6956 17.5719 20.3827 17.5867C19.7833 17.6173 19.7537 17.5867 20 17.2294C20.3425 16.7262 20.3975 16.6702 20.5032 16.7717M20.7506 17.7791C20.8362 17.8298 20.3679 18.5391 20.2474 18.5243C20.0719 18.3065 19.9409 18.0571 19.8595 17.7896C20.1502 17.7442 20.4451 17.7442 20.7358 17.7896M21.6565 17.8287C21.7675 17.9038 22.6079 18.5835 22.7241 18.685L22.8499 18.7907C22.9662 18.871 22.9007 18.9619 22.5783 19.1839L22.1903 19.4609C21.9461 19.6564 21.6808 19.8256 21.3996 19.964C21.3447 19.964 21.3447 19.964 21.3996 19.0423C21.4451 17.7336 21.4652 17.6628 21.6766 17.8192M24.4112 17.8192C24.4112 17.8541 24.4112 17.8901 24.3605 17.9249L23.9271 18.2421C23.1015 18.8467 23.1512 18.8309 22.8098 18.574C22.0191 17.9651 21.9134 17.8689 21.9588 17.8139C22.7749 17.7431 23.5952 17.7431 24.4112 17.8139M19.7886 18.0053C20.2263 18.7854 20.222 18.7357 19.8795 19.2484C19.3764 19.9683 19.406 19.9736 19.4969 19.0719C19.4969 18.9207 19.537 18.629 19.5571 18.4228C19.6132 17.7738 19.6375 17.7336 19.7886 18.0053ZM24.7336 18.0053C24.7336 18.0454 24.7336 18.2717 24.7643 18.5084C24.795 18.7452 24.795 19.1829 24.8098 19.4704C24.8446 20.1649 24.8552 20.1554 24.3616 19.778L23.6565 19.2442C23.5233 19.1511 23.3996 19.0454 23.2886 18.927C23.2886 18.8869 23.4852 18.7357 24.1797 18.2421L24.5117 18C24.5518 17.9651 24.7178 17.9197 24.7336 18M20.9419 18.8668C20.9419 19.5613 20.9419 19.6321 20.8711 19.6427C20.8383 19.6459 20.8087 19.6268 20.796 19.5972C20.796 19.5666 20.6903 19.3953 20.5846 19.2199C20.388 18.8827 20.3531 18.7664 20.4282 18.6607C21.0022 17.8605 20.962 17.8446 20.9313 18.8668M20.3986 19.1681C20.4303 19.2082 20.4567 19.2526 20.4789 19.2991C20.4789 19.2991 20.554 19.4302 20.6449 19.5708C20.8869 19.9429 20.9017 19.9334 20.222 19.9334H19.6332V19.8583C19.648 19.7611 19.6935 19.6702 19.7643 19.6015L20.0064 19.2643C20.1924 18.9873 20.2633 18.9725 20.3891 19.1691M23.3584 19.1681L23.5899 19.3488L23.9725 19.6258C24.2442 19.8224 24.3098 19.8826 24.3045 19.9376V19.9979H23.036H21.7675V19.927C21.7675 19.8721 21.8531 19.8013 22.1808 19.5793L22.8055 19.1511C23.0719 18.9598 23.1332 18.9598 23.369 19.1511M20.5043 20.0793C20.6956 20.0793 20.721 20.1448 20.6248 20.2812L20.3425 20.6892C20.1861 20.926 20.1206 20.9915 20.0762 20.9862C19.8647 20.7273 19.6946 20.4366 19.573 20.1258C19.573 20.0402 19.9356 20.0254 20.4948 20.0803M24.5222 20.1702C24.6734 20.2008 24.6026 20.296 24.2252 20.5729L23.5497 21.0761C23.222 21.3182 23.0867 21.3583 22.9958 21.2526C22.9334 21.1945 22.8679 21.1385 22.7992 21.0867C22.6745 20.9958 22.5539 20.8996 22.4366 20.8002L22.1142 20.538C21.5751 20.1205 21.5349 20.1353 23.1216 20.1501L24.5011 20.1807M21.6776 20.3467L21.8996 20.5232L22.3024 20.8552C23.0169 21.4292 23.0074 21.4091 22.6745 21.6353L22.443 21.8012L22.0804 22.0676L21.5772 22.4302C21.2654 22.6564 21.2495 22.6416 21.2601 22.0824C21.2411 21.4619 21.2812 20.8414 21.3806 20.2294C21.4504 20.1755 21.4556 20.1755 21.6776 20.3467ZM19.4419 20.3065C19.5698 20.4926 19.6819 20.6871 19.7791 20.8911C19.9451 21.2135 19.9398 21.259 19.6184 21.7315C19.1153 22.4418 19.0392 22.5021 19.1153 22.0634L19.2664 20.7188C19.3172 20.2611 19.3521 20.185 19.4525 20.3055M24.8542 20.4418C24.8943 20.6184 25.0106 22.6469 24.9852 22.6828C24.9599 22.7177 24.8795 22.7283 24.6026 22.5021L24.3309 22.2854L23.3235 21.4894C23.2928 21.4693 23.3235 21.3837 23.444 21.3086L23.6808 21.1427L23.8774 21.0021L24.8087 20.3774C24.8288 20.3774 24.8393 20.408 24.8436 20.4429M20.8161 20.482L20.7411 22.2547C20.721 22.2801 20.5645 22.1385 20.5645 22.0835C20.5244 21.9947 20.4768 21.9091 20.4239 21.8266C20.0814 21.2526 20.0814 21.222 20.3077 20.9302L20.5846 20.5623C20.7051 20.3964 20.8161 20.3562 20.8161 20.482ZM20.3129 21.9228C20.5994 22.482 20.6047 22.5074 20.388 22.5074C20.0296 22.5 19.6713 22.4714 19.3151 22.4217C19.4461 22.1554 19.6153 21.9091 19.8182 21.6913C20.0645 21.3636 20.0698 21.3636 20.3573 21.9228M23.3785 21.6755L23.6406 21.8774L23.852 22.0433L24.2294 22.3404C24.6174 22.6427 24.667 22.6924 24.6269 22.7378C24.5867 22.7833 22.2506 22.7685 21.8119 22.7378C21.3742 22.7072 21.4599 22.6723 22.6935 21.8467C22.8066 21.7738 22.9165 21.6945 23.0212 21.6099C23.1121 21.5296 23.1977 21.5444 23.3785 21.685M20.2167 22.6575C20.6343 22.6881 20.6301 22.7124 20.091 23.3921C19.7992 23.76 19.8193 23.7748 19.4567 22.964C19.296 22.5962 19.3003 22.5919 19.6586 22.6215L20.2167 22.6575ZM19.1597 22.7029L19.4514 23.2463C19.7992 23.926 19.8235 23.8055 19.129 24.7061C18.7812 25.1596 18.7717 25.1395 18.8626 24.2685C18.8626 24.1226 18.9176 23.7294 18.9535 23.3974C19.0286 22.6924 19.0635 22.5824 19.1597 22.7029ZM12.8912 22.7029C12.7791 22.742 12.665 22.7727 12.5487 22.7938C12.2548 22.8224 11.9853 22.9693 11.8035 23.2019C11.3595 23.7019 11.1608 24.3731 11.2601 25.0348C11.2601 25.538 11.2601 25.574 11.165 25.538C11.0455 25.4027 10.961 25.2399 10.9187 25.0644C10.9271 25.037 10.9271 25.0063 10.9187 24.9788C10.8278 24.8139 10.8563 24.6088 10.9895 24.4757C11.1153 24.3647 11.11 24.3245 10.9589 24.3097C10.8077 24.2949 10.8532 24.0729 11.0392 24.0127C11.0942 24.0127 11.1248 23.9577 11.1248 23.9217C11.1248 23.8869 11.1703 23.8361 11.2305 23.8012C11.2908 23.7664 11.331 23.7304 11.3056 23.6702C11.2802 23.6099 11.3056 23.5243 11.406 23.4735C11.5064 23.4228 11.5011 23.4133 11.5011 23.3076C11.5011 23.2019 11.5318 23.1163 11.592 23.1163C11.6523 23.1163 11.7379 22.9144 11.7083 22.87C11.4927 22.8382 11.2718 22.8552 11.0635 22.9207C10.3542 23.1258 9.87958 23.7938 9.92081 24.5317C9.99058 24.9249 10.1026 25.3097 10.2527 25.6797C10.3183 25.816 10.2876 25.8361 10.0413 25.8361C9.21362 25.852 8.4187 26.1649 7.80031 26.7177C7.09524 27.4281 7.04556 28.1173 7.63435 29.0084C7.70834 29.112 7.77494 29.2198 7.83625 29.3308C7.86902 29.4122 7.95993 29.4545 8.04238 29.4259C8.08255 29.4259 8.07304 29.2949 7.98213 28.9577C7.89122 28.6205 7.91659 28.6057 8.01701 28.5803C8.11743 28.5549 8.07726 28.5454 8.06246 28.3435C8.04766 28.1416 8.06246 28.0718 8.16289 28.057C8.26331 28.0422 8.24323 28.0222 8.27917 27.871C8.31405 27.7198 8.3299 27.6902 8.43561 27.6448C8.49587 27.6215 8.54766 27.5792 8.58149 27.5243C8.61214 27.464 8.62694 27.4534 8.73265 27.4735C8.83836 27.4936 8.85316 27.4735 8.87324 27.3985C8.89333 27.3234 8.91341 27.2727 9.01383 27.3277C9.11426 27.3826 9.1502 27.3826 9.19037 27.2769L9.24533 27.1913H9.43138L9.69354 27.2262C9.76436 27.2262 9.77916 27.2262 9.82461 27.1458C9.94512 26.909 10.0709 26.8794 10.3278 27.0296C10.5847 27.1807 10.5498 27.3118 10.3828 27.4122C10.11 27.6236 9.85104 27.853 9.60686 28.0972C8.59946 29.1046 8.90707 30.5697 10.4472 31.9989C10.9863 32.502 11.369 32.3815 10.8849 31.8625L10.7242 31.7219L10.7844 31.6617C10.8648 31.5813 10.8648 31.501 10.7844 31.4355C10.739 31.3752 10.7104 31.3044 10.7041 31.2293C10.7041 31.038 10.6692 31.0232 10.4419 30.9016C10.2157 30.7811 10.0286 30.6099 10.0286 30.5496C10.0286 30.4894 10.1238 30.4841 10.2506 30.5496C10.3775 30.6152 10.4525 30.6659 10.4525 30.6204C10.3775 30.5264 10.2971 30.4376 10.2104 30.3541C9.98423 30.1226 9.94406 30.0422 10.0445 30.0422C10.1269 30.0887 10.2009 30.15 10.2612 30.223C10.3193 30.297 10.3912 30.3583 10.4726 30.4037C10.5677 30.4037 10.4726 30.2928 10.2104 30.0211C9.94829 29.7494 9.86795 29.6532 9.93878 29.6078C10.0096 29.5623 10.0445 29.6532 10.1407 29.7283C10.2358 29.8033 10.3923 29.8942 10.3923 29.834C10.3923 29.7737 10.2918 29.7135 10.0603 29.5517C9.82884 29.3911 9.82356 29.3657 9.82356 29.2748C9.82356 29.1839 9.92927 29.2346 10.0899 29.3805C10.2506 29.5264 10.332 29.5665 10.332 29.501C10.2654 29.4038 10.1893 29.3128 10.1058 29.2293C9.89967 29.0073 9.87958 28.9777 9.88909 28.8773C9.89967 28.7769 9.95464 28.7262 10.146 28.9122C10.4282 29.1892 10.498 29.1183 10.221 28.8266C10.035 28.6205 9.98423 28.5243 10.035 28.4587C10.0857 28.3932 10.146 28.4133 10.3014 28.5697C10.4578 28.7262 10.4927 28.7156 10.332 28.4587C10.1713 28.2019 10.1756 28.0613 10.332 28.0613C10.4885 28.0613 10.5128 28.1818 10.5984 28.6501C10.6586 29.0496 10.777 29.4386 10.9504 29.8033C11.2982 30.4767 11.7041 31.1183 12.1639 31.7219C12.5889 32.2705 13.0846 32.76 13.6396 33.1775C13.776 33.1775 13.7506 33.1268 13.499 32.8911C13.2474 32.6543 13.2728 32.6691 13.2876 32.5834C13.3024 32.4978 13.2876 32.4672 13.0857 32.2462C12.8838 32.0253 12.8595 31.9841 12.8595 31.9291C12.8595 31.8741 12.7844 31.7727 12.5878 31.5612C12.2855 31.2494 12.2305 31.1585 12.2802 31.1035C12.3309 31.0486 12.3457 31.1035 12.4367 31.149C12.703 31.3255 12.6682 31.2441 12.3109 30.872C12.2062 30.7748 12.1174 30.6606 12.0487 30.5348C12.0487 30.464 12.0889 30.4598 12.1396 30.5348C12.1904 30.6099 12.2802 30.6458 12.3056 30.6056C12.2432 30.4957 12.1629 30.3974 12.0688 30.3139C11.8066 30.0475 11.7316 29.9365 11.7612 29.8858C11.7918 29.835 11.8817 29.8551 11.9779 29.9513C12.073 30.0465 12.0889 30.0369 12.1037 30.0264C12.1185 30.0158 12.1037 29.946 11.8775 29.7399C11.6512 29.5338 11.5952 29.4376 11.6861 29.4376C11.777 29.4376 11.8669 29.5084 11.8669 29.5327C11.8669 29.557 11.8975 29.5327 11.9271 29.5327C11.9578 29.5327 12.0022 29.4978 11.9271 29.4016C11.8764 29.3498 11.8394 29.2854 11.8214 29.2156C11.8024 29.1331 11.7686 29.0539 11.721 28.9841C11.5551 28.742 11.5699 28.5961 11.721 28.7219C11.8722 28.8477 11.887 28.7875 11.776 28.667C11.665 28.5465 11.5392 28.3847 11.5392 28.2843C11.5392 28.1839 11.5942 28.1279 11.7908 28.3393C11.9874 28.5507 12.0772 28.5909 12.0772 28.5105C12.0233 28.4207 11.9578 28.3393 11.8806 28.2684C11.684 28.0623 11.6438 27.9714 11.74 27.9714C11.8352 27.9714 11.9462 28.0824 12.2432 28.3742L13.4567 29.4873L13.7231 29.7293L14.2263 30.1828L15.3796 31.1194L16.1142 31.7188C16.1544 31.7589 16.4366 31.9756 16.9546 32.3731C17.1406 32.5137 18.1332 33.1733 18.9683 33.7018C19.3753 33.9481 19.7685 34.2145 20.147 34.502C19.9028 34.6204 19.6438 34.7071 19.3764 34.7589L19.0286 34.8445L18.6565 34.9397L18.4144 34.9946L15.9927 35.4481L15.5392 35.5084L13.5952 35.6849C12.8701 35.7251 12.7897 35.7356 12.684 35.8361C12.5117 36.1469 12.5434 36.5306 12.7643 36.8075C12.8849 36.9079 12.925 36.9132 13.5402 36.8329L13.9937 36.7726L14.4113 36.7177L14.9144 36.6426L15.4578 36.5623L16.7168 36.3815L17.9049 36.2008L18.1872 36.15L18.5043 36.0845L18.776 36.0242L19.5265 35.8477L20.4578 35.631C20.574 35.6077 20.6882 35.5771 20.8003 35.5401L20.9366 35.4999C21.0117 35.4999 21.1332 35.4545 21.3499 35.3889C21.5286 35.3128 21.7305 35.3128 21.9091 35.3889L22.2463 35.5454L22.4271 35.6162C22.4525 35.6162 23.4038 35.9989 23.5698 36.0697C23.6216 36.0982 23.6776 36.1183 23.7358 36.1299C23.759 36.1225 23.7833 36.1225 23.8066 36.1299C23.8531 36.1553 23.9017 36.1754 23.9525 36.1902C24.0148 36.2082 24.0751 36.2293 24.1332 36.2557L24.3753 36.3414L24.9895 36.5528L25.8753 36.8445L25.9958 36.8847C26.0867 36.9196 26.6501 37.076 27.2093 37.2124C27.907 37.3783 28.6152 37.4989 29.3288 37.575C30.1744 37.6944 31.0275 37.76 31.8816 37.7716C32.1734 37.7166 32.3044 37.4344 32.2241 37.0316C32.1237 36.5285 32.1691 36.5834 31.6554 36.5633C31.2875 36.5633 30.6036 36.4925 30.2157 36.4375L29.3795 36.317L28.3721 36.1363L28.0856 36.0813L26.8721 35.7737L26.5698 35.6828L26.092 35.5369L25.5888 35.3858L24.2093 34.928C23.7865 34.7473 23.7611 34.7822 24.5413 34.4249L26.852 33.3075C27.9313 32.7304 28.9567 32.057 29.9133 31.2938L30.2157 31.0517L30.4725 30.835C30.9736 30.3731 31.4545 29.8889 31.9123 29.3847L32.3351 28.8816C32.5518 28.6247 32.5465 28.8562 32.4514 29.1384C32.351 29.5486 32.1617 29.9323 31.8975 30.261C31.8287 30.3086 31.7886 30.3889 31.7917 30.4725C31.74 30.6606 31.6173 30.8213 31.4493 30.9207C31.4038 30.9207 31.3689 30.9809 31.3689 31.001C31.2886 31.1448 31.1744 31.2674 31.037 31.3583C30.9905 31.3837 30.9545 31.4249 30.9366 31.4746C30.8911 31.5538 30.8288 31.6226 30.7558 31.6765C30.6638 31.7346 30.593 31.8213 30.5539 31.9228C30.463 32.0951 30.3203 32.2335 30.1459 32.3202C30.0222 32.4101 29.9271 32.5316 29.8689 32.6722C29.8531 32.7283 29.8224 32.779 29.778 32.8181C29.5613 33.0443 29.9038 33.0401 30.2812 32.8181C30.4831 32.6976 30.5782 32.6722 30.6089 32.7272C30.6395 32.7822 30.8309 32.7272 31.1121 32.3445C31.2632 32.1331 31.3488 32.0729 31.4144 32.113C31.4799 32.1532 31.8372 31.816 32.0391 31.3678C32.1395 31.1511 32.2357 31.0454 32.2907 31.1014C32.3245 31.1458 32.3869 31.1553 32.4313 31.1215C32.4387 31.1162 32.4461 31.1088 32.4514 31.1014L32.5423 30.8699L32.6586 30.5179C32.7843 30.0147 32.9662 29.8382 33.1216 30.0147C33.2019 30.1152 33.1924 30.1807 33.0867 30.2314C32.981 30.2822 32.9862 30.3224 33.0867 30.4629C33.1871 30.6035 33.167 30.6035 33.0412 30.7198C32.982 30.7663 32.9461 30.8361 32.9408 30.9111C32.9408 31.0274 32.9408 31.057 32.7949 31.1173C32.649 31.1775 32.6987 31.1775 32.6987 31.3192C32.6987 31.4598 32.6533 31.5306 32.4873 31.5655C32.4271 31.5655 32.4017 31.6109 32.3763 31.7314L32.296 32.0634C32.1797 32.5116 32.2653 32.6374 32.5222 32.3953C32.6934 32.2346 32.7537 32.2188 32.8044 32.3297C32.8552 32.4407 33.1163 32.3297 33.1163 32.1638C33.1966 31.9598 33.3161 31.7727 33.4683 31.6152C33.5169 31.6247 33.5634 31.6437 33.6046 31.6701C33.7706 31.7653 33.8668 31.519 33.8668 31.001C33.8668 30.5877 33.9271 30.4978 34.0888 30.7494C34.2495 31.001 34.2854 30.8699 34.2347 30.5031C34.1342 29.778 34.1543 29.5972 34.3351 29.667C34.5158 29.7378 34.5063 29.6416 34.4514 29.2737C34.4345 28.9883 34.3647 28.7082 34.2452 28.4482C34.0232 27.945 34.0285 27.8594 34.2452 27.945C34.3129 27.9756 34.389 27.9756 34.4566 27.945C34.5518 27.9101 34.5824 27.9101 34.6226 27.945C34.6712 27.9756 34.7273 27.9915 34.7833 27.9904C34.8996 27.9904 34.9196 27.9904 35.0095 28.2822C35.0993 28.5739 35.2357 28.4228 35.2357 28.1363C35.2357 28.0507 35.2357 28.0306 35.3266 28.0655C35.4175 28.1004 35.4376 28.4883 35.352 28.7103C35.2262 29.0528 35.2463 29.2135 35.407 29.0983C35.4672 29.0581 35.4873 29.0581 35.5074 29.0983C35.5275 29.1384 35.5423 29.1532 35.5074 29.3245C35.4725 29.4957 35.4471 29.5158 35.5476 29.5158C35.648 29.5158 35.7537 29.5961 35.6839 29.7674C35.6131 29.9386 35.6237 29.964 35.7748 29.964H35.9112V30.0803C35.8985 30.1849 35.8678 30.2875 35.8203 30.3826C35.778 30.4629 35.7484 30.5496 35.7347 30.6395C35.7347 30.7251 35.9059 30.4936 35.9968 30.2515L36.093 30.0095C36.2473 29.4524 36.3002 28.8731 36.2495 28.298C36.2357 27.8065 36.0592 27.3329 35.7463 26.9534L35.4894 26.5909C35.3235 26.3541 35.3287 26.1733 35.4894 26.3245C35.5349 26.3615 35.5856 26.39 35.6406 26.4101C35.7262 26.4101 35.741 26.4556 35.7664 26.5814V26.7219H35.8974C36.038 26.7219 36.1141 26.7568 36.1194 26.8731C36.1247 26.9894 36.1194 26.9334 36.2558 26.8731C36.3922 26.8129 36.427 26.8731 36.4524 27.0951C36.5074 27.5433 36.6691 27.2315 36.6744 26.6723C36.6744 25.7663 36.0856 25.3583 35.26 25.7008L34.8425 25.8668C34.7769 25.8879 34.7156 25.9207 34.6617 25.9619C34.5793 26.0327 34.4905 26.0962 34.3953 26.1479L34.2495 26.2389C33.8816 26.4852 33.8467 26.4302 33.9873 25.8012C34.1617 25.2399 34.1152 24.6321 33.8562 24.1046C33.2822 23.2442 32.4567 22.8308 31.7114 23.0275C30.704 23.2938 30 23.6564 30.2008 23.7981C30.2664 23.8435 30.3214 23.7981 30.4778 23.6871C30.6004 23.5359 30.8161 23.5 30.981 23.6014C31.167 23.6818 31.2273 23.667 31.5444 23.4905C31.8615 23.3139 31.982 23.3044 31.9979 23.4101C32.0127 23.5158 31.9979 23.5158 31.7611 23.667C31.6501 23.7473 31.6004 23.8382 31.6702 23.8382C31.8108 23.7843 31.944 23.7124 32.0677 23.6268C32.3044 23.4862 32.3996 23.5962 32.1987 23.7833C31.9968 23.9693 32.0222 24.0454 32.3351 23.8995C32.7326 23.7082 32.9894 23.8995 32.6628 24.1215C32.5021 24.2325 32.4567 24.3435 32.5824 24.3076C32.9958 24.1818 33.056 24.4281 32.7188 24.8964C32.482 25.2241 32.5074 25.2135 32.1649 25.0074C30.8076 24.056 28.9493 24.2938 27.8753 25.556C27.518 25.9281 27.629 26.0137 28.036 25.6871C28.1385 25.5983 28.2474 25.5169 28.3636 25.445L28.5349 25.3446C28.6861 25.2537 28.7209 25.3446 28.5856 25.4756C28.4503 25.6067 28.4598 25.6723 28.5455 25.6723C28.6575 25.5877 28.7601 25.4915 28.8531 25.3858C29.1395 25.0835 29.2505 25.0137 29.3562 25.0687C29.462 25.1236 29.4271 25.2346 29.0846 25.5021C28.9641 25.593 28.944 25.6733 29.0391 25.6733C29.1343 25.6733 29.1903 25.5877 29.3414 25.4313C29.6131 25.149 29.7347 25.0687 29.8848 25.0687C30.111 25.0687 29.9905 25.2547 29.5328 25.6173C29.4947 25.6395 29.4672 25.6754 29.4577 25.7177C29.4577 25.7833 29.5888 25.7177 29.7854 25.5158C30.1533 25.1733 30.4302 25.0528 30.556 25.1881C30.6818 25.3245 30.556 25.3541 30.3901 25.4852C30.2241 25.6162 30.1184 25.6913 30.1184 25.7473C30.1184 25.8023 30.2188 25.7822 30.4154 25.5814C30.6121 25.3795 30.7326 25.3192 30.9186 25.3551C31.1047 25.3911 31.0095 25.5264 30.6871 25.7272C30.5307 25.8277 30.4757 25.8985 30.5264 25.9492C30.5772 26 30.7378 25.889 30.7378 25.8435C30.8499 25.7167 30.9894 25.6173 31.1459 25.5518C31.3573 25.5518 31.2664 25.7124 30.9345 25.9397C30.8319 26.0021 30.7357 26.074 30.648 26.1564C30.648 26.2114 30.7135 26.2071 30.8192 26.1564C30.8837 26.1025 30.9683 26.0803 31.0507 26.0962C31.1173 26.1099 31.186 26.1099 31.2526 26.0962C31.6459 25.9503 31.6903 25.9397 31.7558 25.9651C31.8214 25.9904 31.8721 26.0814 31.7558 26.1564C31.6395 26.2315 31.6607 26.2822 31.8362 26.2928C32.0127 26.3033 32.0581 26.3678 31.9218 26.5148C31.7854 26.6606 31.8214 26.6754 31.9524 26.6754C32.0835 26.6754 32.1945 26.7357 32.1945 26.816C32.1945 26.8964 32.1036 26.9524 31.5951 26.9471C31.3541 26.9429 31.1131 26.9577 30.8753 26.9926C30.723 27.0169 30.5687 27.0169 30.4175 26.9926C30.1459 26.9619 30.1004 26.9926 30.0751 27.0983C30.0497 27.204 29.9947 27.2589 29.7675 27.2241C29.5402 27.1892 29.4503 27.2241 29.3795 27.3752C29.3087 27.5264 29.3192 27.4862 29.1628 27.4957C29.0782 27.4989 28.9958 27.5211 28.9207 27.5613C28.8647 27.5983 28.8034 27.6268 28.74 27.6469C28.6628 27.6765 28.5909 27.7188 28.5286 27.7727C28.3615 27.9408 28.1649 28.0771 27.9493 28.1754C27.778 28.2558 27.7072 28.3012 27.6871 28.3615L27.5867 28.5983C27.4863 28.815 27.4757 28.8699 27.5518 28.8604H27.8996H28.1818V28.724C28.1818 28.5274 28.2421 28.4926 28.5444 28.4524C28.685 28.4365 28.8224 28.3995 28.9524 28.3414C29.0677 28.2832 29.1956 28.2515 29.3245 28.2505C29.4324 28.2515 29.5391 28.2272 29.6364 28.1797C29.7727 28.0845 29.888 28.0739 29.9588 28.1543L30.0138 28.2251L30.1448 28.13C30.5021 27.8636 30.7696 27.8731 30.7696 28.13C30.7696 28.2505 30.8298 28.241 30.9154 28.13C31.185 27.8773 31.5645 27.7801 31.9228 27.8731C31.9979 27.8731 32.018 27.9439 31.9535 27.9439C31.7283 28.0063 31.5116 28.0951 31.3087 28.2103C31.2548 28.2463 31.1924 28.2674 31.1279 28.2706C31.037 28.2706 30.9873 28.316 30.926 28.4312C30.8943 28.4778 30.8457 28.5105 30.7896 28.5222C30.7125 28.5496 30.6406 28.5909 30.5782 28.6427C30.4937 28.7188 30.3911 28.7716 30.2812 28.7991C30.1808 28.8224 30.0877 28.8689 30.0095 28.9355C29.9059 29.0391 29.7632 29.0919 29.6163 29.0813C29.5254 29.0813 29.5 29.0813 29.4704 29.167C29.4398 29.2526 29.3298 29.3329 29.1078 29.3435H28.8964C28.8552 29.3678 28.8171 29.3985 28.7854 29.4344C28.6998 29.5147 28.6691 29.5253 28.5032 29.5253C28.3372 29.5253 28.3119 29.5253 28.2516 29.6363C28.1913 29.7473 28.0402 29.8276 27.8087 29.8329C27.7178 29.8329 27.6681 29.8329 27.6681 29.8731C27.6448 29.9228 27.6089 29.9651 27.5624 29.9936C27.4461 30.0792 27.4112 30.26 27.5021 30.2959C27.7791 30.2917 28.055 30.2653 28.3277 30.2156C29.0338 30.057 29.7125 29.7938 30.3414 29.4355L30.6987 29.2388C30.963 29.1078 31.2209 28.9608 31.4693 28.8012C31.686 28.6501 31.6607 28.8012 31.4292 29.038C30.5137 30.0095 29.482 30.8657 28.3584 31.5856L27.6237 32.0084C27.5666 32.039 27.5106 32.0718 27.4577 32.1088C27.4577 32.1088 27.2664 32.2145 27.0698 32.3107L25.4028 33.0866L24.8996 33.3086L24.4662 33.4851L23.8816 33.6965C22.6332 34.1447 22.3711 34.2304 22.2146 34.1997C22.0582 34.1691 20.4472 33.3741 20.4123 33.334C20.3341 33.2843 20.2537 33.2388 20.1702 33.1976C19.4261 32.8033 18.7072 32.3615 18.0201 31.8731L17.6026 31.5708L16.092 30.4735L15.906 30.3171C15.8426 30.2695 15.7823 30.2198 15.7252 30.1659L15.5085 29.9799L15.1914 29.7082L14.8796 29.4259C14.3838 29.0105 13.9398 28.5369 13.555 28.0158C13.6407 27.8794 13.943 28.0813 14.1597 28.4133C14.2802 28.5993 14.3003 28.6194 14.3912 28.6152C14.4821 28.6099 14.5519 28.6152 14.6988 28.7917C14.8457 28.9682 14.8552 28.9725 14.9652 28.9883C15.0751 29.0042 15.1058 29.0285 15.1111 29.0539C15.1481 29.093 15.1925 29.1236 15.2421 29.1448C15.3119 29.1723 15.3774 29.2114 15.4335 29.261C15.4779 29.3033 15.5307 29.334 15.5899 29.352C15.6967 29.4143 15.795 29.4904 15.8817 29.5782C16.2442 29.9355 16.3098 29.7092 15.9821 29.2103C15.6343 28.7536 15.1798 28.389 14.6576 28.1479L14.0942 27.8202C13.8722 27.6892 13.8172 27.5983 13.9282 27.538C14.0392 27.4778 14.2252 27.538 14.4314 27.6945L14.5476 27.7896L14.5931 27.7188C14.6533 27.6236 14.7189 27.6384 14.9208 27.7843C15.203 27.9904 15.2231 28.001 15.258 27.9101C15.2929 27.8192 15.3838 27.8192 15.5804 27.9904C15.7009 28.0909 15.7464 28.0961 15.8521 27.9904C15.9578 27.8847 15.9631 27.9101 16.129 28.0813C16.295 28.2526 16.2897 28.2378 16.3711 28.2177C16.4673 28.2008 16.5582 28.2653 16.5751 28.3604C16.5762 28.3668 16.5772 28.372 16.5772 28.3784C16.5772 28.4492 16.6322 28.4693 16.7178 28.4334C16.8034 28.3985 16.8288 28.4334 16.9842 28.4936C17.276 28.6342 17.3161 28.5993 17.1555 28.3477C16.702 27.6427 15.8108 27.2145 14.2961 26.9682C13.7326 26.8773 13.6016 26.8319 13.4504 26.6818C13.2992 26.5306 13.3648 26.5507 13.481 26.5454C13.703 26.5454 13.7326 26.5052 13.6216 26.3541C13.5106 26.2029 13.5508 26.2177 13.6565 26.2177C13.7622 26.2177 13.7421 26.1575 13.6058 26.0211C13.3838 25.8097 13.4853 25.6184 13.7263 25.779C13.8426 25.8541 13.998 25.8847 13.998 25.8298C13.998 25.7748 13.943 25.7589 13.8722 25.7188C13.5952 25.5327 13.6206 25.2156 13.9028 25.4069C14.0741 25.5126 14.1195 25.4069 13.9536 25.3118C13.7073 25.1511 13.8627 24.9143 14.1142 25.0602C14.2802 25.1554 14.3605 25.0602 14.2506 24.9143C14.1396 24.7685 14.1956 24.7484 14.2506 24.7484C14.3056 24.7484 14.3817 24.7885 14.4927 24.9344C14.6037 25.0803 14.629 25.075 14.6385 24.8742V24.7029L14.7897 24.6828C14.9155 24.6828 14.9303 24.6828 15.0667 24.8234C15.2834 25.0253 15.3288 25.0401 15.3986 24.9492C15.4694 24.8583 15.5793 24.8435 15.6808 24.9492L15.8468 25.1554L15.9271 25.2463V25.186C15.9271 24.9492 16.0075 24.9598 16.1988 25.2209C16.3901 25.482 16.4409 25.4873 16.4409 25.3921C16.4409 25.297 16.5159 25.2759 16.6322 25.3213C17.0001 25.4778 16.5371 24.8636 15.9525 24.4302C14.5931 23.4228 13.239 23.7706 12.3172 25.3763C12.2221 25.537 12.2115 25.5422 12.1565 25.4672C12.0255 25.2907 12.1565 24.8932 12.5244 24.5306C12.7707 24.2738 12.7813 24.2188 12.5952 24.2484C12.4092 24.279 12.4895 24.1078 12.7665 24.037C12.8827 24.0063 12.9123 23.9862 12.9229 23.9313C12.9335 23.8763 12.9631 23.8509 13.0233 23.8308C13.0836 23.8108 13.1238 23.7103 13.0233 23.6945C12.777 23.6638 12.832 23.5687 13.0942 23.5687C13.3563 23.5687 13.4261 23.5137 13.2453 23.4376C13.0646 23.3626 13.0942 23.2812 13.3362 23.2917C13.5783 23.3023 13.5582 23.2516 13.3362 23.1807C12.9187 23.0602 13.2654 22.9291 13.739 23.0296C13.8901 23.0645 13.981 23.0296 13.981 22.964C13.981 22.8985 13.0751 22.6416 12.9293 22.7272M21.7072 23.0803L22.1702 23.4524C22.2305 23.5074 22.4218 23.6638 22.6036 23.8002C22.7495 23.9048 22.889 24.0179 23.0212 24.1374L23.1121 24.2283L23.0212 24.3086L22.3362 24.8118L21.5254 25.4059C21.3795 25.5169 21.2886 25.5623 21.2389 25.5518H21.1639V24.8668L21.2442 22.853C21.2696 22.8182 21.3499 22.8182 21.7019 23.0898M23.3489 22.9249C24.6575 22.9249 24.7188 22.9503 24.6681 23.056C24.2368 23.4154 23.7865 23.7516 23.3193 24.0634C23.2284 24.1036 22.7706 23.8213 22.5846 23.6057L22.222 23.3139L21.8341 22.9915C21.814 22.9661 21.8341 22.8509 21.9652 22.871C22.0962 22.8911 22.6396 22.871 23.3499 22.9017M20.7051 23.8203L20.6745 24.7917C20.6745 25.1395 20.6745 25.1395 20.5941 25.1289C20.5138 25.1184 20.4778 25.0179 20.2664 24.5951C19.9187 23.9006 19.9144 23.8403 20.1301 23.5877C20.1819 23.5317 20.2294 23.4704 20.2707 23.4069C20.7041 22.778 20.7337 22.8076 20.7041 23.8044M25.0455 23.1607C25.0814 23.3826 25.1036 23.6057 25.111 23.8298C25.2167 25.723 25.2167 25.5718 25.111 25.5718C25.0529 25.5518 25 25.519 24.9546 25.4767C24.8478 25.3879 24.7389 25.3023 24.6269 25.2198L23.9165 24.6564L23.6544 24.4503C23.3267 24.204 23.332 24.204 24.0677 23.7103L24.3499 23.5137C24.6977 23.2167 24.9947 23.0708 25.0402 23.1617M20.0455 24.4957C20.499 25.4524 20.499 25.4418 19.9091 25.3361L19.1946 25.2156C18.9831 25.185 18.9831 25.1501 18.9831 25.0898C19.0085 25.0401 19.0413 24.9947 19.0783 24.9535L19.4007 24.5401C19.8246 23.9767 19.7992 23.982 20.0455 24.4957ZM23.3341 24.39C23.3668 24.4101 23.3975 24.4334 23.425 24.4609L23.5508 24.556L23.7019 24.6765L24.0095 24.9228L24.4324 25.2547L24.6385 25.4207C24.7643 25.5158 24.8098 25.5771 24.7897 25.6014C24.7696 25.6268 21.8193 25.6469 21.5571 25.6321C21.4662 25.6321 21.5022 25.5465 21.6322 25.4513L22.0201 25.1744C23.1068 24.3699 23.2125 24.3044 23.3341 24.39ZM18.8721 25.3668C18.9472 25.4017 19.0487 25.5729 19.4409 26.3742C19.5814 26.6606 19.5772 26.6818 19.3003 27.019C18.5349 27.9556 18.5455 27.945 18.5096 27.8594C18.499 27.5634 18.5159 27.2663 18.5603 26.9735L18.6766 25.8456C18.7273 25.3425 18.7316 25.3425 18.8732 25.3879M19.5825 25.4725L19.925 25.5327C20.3732 25.6078 20.3785 25.6532 20.0159 26.1067C19.6533 26.5602 19.6533 26.5496 19.5127 26.1871L19.2812 25.6437C19.185 25.4323 19.1903 25.3964 19.5825 25.4725ZM20.5138 26.8869C20.5138 27.8942 20.5138 28.0856 20.4229 28.0856C20.2823 27.8594 20.1607 27.6226 20.0603 27.3752L19.9091 27.0528C19.7326 26.6807 19.7178 26.7304 20.1058 26.2568L20.4377 25.8435C20.5191 25.7293 20.5296 25.8446 20.5138 26.8869ZM24.7738 25.8446C24.8246 25.9048 24.8087 25.9196 24.3203 26.2727C23.1575 27.1236 23.2527 27.0835 22.8954 26.8361L22.1248 26.3023C21.5857 25.9344 21.5201 25.8795 21.6216 25.8287C21.722 25.778 24.758 25.7938 24.7981 25.8287M21.7781 26.1976L22.352 26.6004C22.3647 26.6057 22.3795 26.6057 22.3922 26.6004C22.6364 26.7336 22.8594 26.9038 23.0518 27.1035C22.7928 27.3329 22.5074 27.5306 22.2009 27.6923C22.1893 27.6871 22.1766 27.6871 22.166 27.6923C21.7992 27.9756 21.4102 28.2304 21.0032 28.4524C20.9683 28.1913 20.9683 27.9281 21.0032 27.667L21.054 26.3826C21.054 25.6374 21.054 25.6522 21.7738 26.1564M25.222 25.9048C25.222 26.0158 25.2675 26.2727 25.2971 26.7505L25.4028 28.1247C25.4334 28.4016 25.4577 28.4672 24.3351 27.7114C23.2928 27.0116 23.3277 27.0623 23.6301 26.8657L23.8161 26.7346L23.9218 26.6638C23.962 26.6638 24.1184 26.5433 24.2738 26.4323C25.2199 25.7727 25.1956 25.7875 25.2199 25.9291M19.7337 26.9376C19.7337 26.9725 19.87 27.2346 19.9958 27.5116L20.2675 28.1162C20.3838 28.3784 20.333 28.3826 19.4567 28.1564C18.5804 27.9302 18.6565 28.0253 19.2907 27.2505C19.6079 26.8615 19.6734 26.8118 19.7337 26.9376ZM23.48 27.3551L23.7971 27.5718L24.426 28.0052C24.9292 28.353 25.0201 28.4186 24.9799 28.4534C24.9398 28.4883 24.4768 28.4989 23.8573 28.519L22.1047 28.5792C21.0973 28.6141 21.0973 28.6342 22.1047 27.9651L22.6935 27.5623C23.147 27.2251 23.2569 27.1945 23.499 27.3562M13.0424 27.778C13.2855 27.9767 13.517 28.1881 13.7369 28.4122L15.2474 29.852L15.5899 30.1691C15.6851 30.2642 16.3605 30.8181 16.5064 30.9238L16.8489 31.1659L17.3521 31.5137L17.6639 31.7304C17.6692 31.7409 18.1671 32.0528 18.3235 32.168L18.7612 32.445L20.1554 33.2705L20.7241 33.5782L21.5349 33.9756L22.1998 34.2779L23.0106 34.6099L23.7157 34.8963C23.8764 34.9672 24.8943 35.334 25.2009 35.4302C25.2484 35.445 25.2939 35.465 25.3372 35.4904C25.3637 35.4967 25.3911 35.4967 25.4176 35.4904C25.4525 35.483 25.4884 35.483 25.5233 35.4904C25.6766 35.5549 25.8341 35.6056 25.9969 35.6416L26.3594 35.7473L26.8626 35.8879L27.1945 35.9788L27.9144 36.15L30.9355 36.6532L31.3784 36.7134C31.4905 36.7293 31.6025 36.7399 31.7156 36.7441C31.8774 36.7473 32.0053 36.8805 32.0021 37.0411C32 37.1395 31.9493 37.2304 31.8668 37.2832C30.8552 37.2853 29.8446 37.2039 28.8457 37.0411C28.3541 36.9724 27.8668 36.8783 27.3858 36.7589L25.4525 36.205L24.4757 35.8879L23.6649 35.6014L22.9303 35.335L22.4926 35.1691L22.2157 35.0485L21.4958 34.7314C21.4303 34.6987 21.3626 34.6701 21.2939 34.6458C21.2939 34.6458 20.2865 34.0718 20.1967 34.0116C20.165 33.9883 20.1311 33.9672 20.0962 33.9513C18.8172 33.1638 17.5857 32.2991 16.4102 31.3636L16.128 31.1321L15.8457 30.9006L15.5032 30.6141L15.1808 30.352L14.8087 30.0348L14.406 29.6976L13.998 29.3498L13.5751 28.9873L13.3331 28.7758C12.8299 28.353 12.5424 28.056 12.5424 27.9598C12.5424 27.8636 12.85 27.668 13.0455 27.7484M32.3615 28.5179C32.4123 28.5729 32.4123 28.5835 32.3309 28.7198C31.8562 29.261 31.352 29.7758 30.8203 30.26L29.6977 31.1617L29.3858 31.3837L28.5856 31.927L28.5254 31.9725L28.2389 32.1744C28.0021 32.334 27.7569 32.4809 27.5042 32.612L27.3076 32.723C27.2019 32.8139 25.3594 33.7346 25.3594 33.7346L24.9419 33.9312L24.5243 34.1225L24.3076 34.2135L24.0962 34.3044L23.8499 34.4154C23.3468 34.6521 23.296 34.6521 22.888 34.4555C22.48 34.2589 22.5106 34.2335 22.777 34.1479L23.1649 34.0274L24.4694 33.5792L25.1036 33.3371L25.8383 33.0147L26.2463 32.8287C27.204 32.3689 28.1226 31.8308 28.9905 31.2177L29.3784 30.9312L29.8013 30.6035L30.0381 30.4122C30.6966 29.8657 31.3203 29.279 31.9059 28.6553C32.0867 28.464 32.2378 28.4238 32.3488 28.5443M20.8267 34.817C21.1491 34.9936 21.1745 35.039 20.9726 35.0993L20.0011 35.3456L19.6586 35.4259L19.4165 35.4767L19.1301 35.5422L18.8383 35.6025L18.5867 35.6574L18.2897 35.7177L17.6153 35.8382L16.2358 36.0189L15.8278 36.0644L15.4557 36.1099L14.9525 36.1701L13.8553 36.2864C12.8479 36.3868 12.9092 36.3921 12.9092 36.1912C12.9092 35.8889 12.9092 35.8942 14.3489 35.7779C14.9726 35.7388 15.5952 35.6691 16.2115 35.5665L16.4831 35.5263L16.7347 35.4809L17.0519 35.4206L17.3838 35.3604L17.8869 35.2695L19.5233 34.927L20.3489 34.7008C20.5096 34.65 20.5857 34.6701 20.8521 34.817" fill="#C8AC47"/>
<path d="M41.7966 21.0358C41.7966 10.0826 32.9172 1.2032 21.964 1.2032C11.0108 1.2032 2.13143 10.0826 2.13142 21.0358C2.13142 31.989 11.0108 40.8684 21.964 40.8684C32.9173 40.8684 41.7966 31.989 41.7966 21.0358ZM42.8036 21.0358C42.8036 32.5452 33.4734 41.8754 21.964 41.8754C10.4547 41.8754 1.12451 32.5452 1.12451 21.0358C1.12452 9.52644 10.4547 0.196296 21.964 0.196289C33.4734 0.196289 42.8036 9.52643 42.8036 21.0358Z" fill="#C8AC47"/>
<path d="M41.8372 70.9932V72.0001H2.08679V70.9932H41.8372Z" fill="#E6BA5D"/>
<path fill-rule="evenodd" clip-rule="evenodd" d="M16.3245 44.3835C16.26 44.3983 16.203 44.4374 16.1681 44.4945C16.1269 44.5801 16.0708 44.6562 16.0021 44.7207C15.9271 44.7958 15.7505 44.9977 15.6047 45.1689L14.8044 46.0547C14.7008 46.1594 14.6078 46.2736 14.5275 46.3972C14.4926 46.4628 14.4324 46.5135 14.3911 46.5135C14.3499 46.5135 14.3108 46.559 14.296 46.6192C14.2727 46.6848 14.2209 46.7366 14.1554 46.7598C14.0951 46.7598 14.0444 46.8148 14.0444 46.8454C13.9736 46.9797 13.8795 47.1002 13.7675 47.2027L13.334 47.7059C13.2484 47.8222 13.1374 47.948 13.0877 47.9977C13.036 48.0579 12.9958 48.1256 12.9672 48.1996C12.9429 48.2661 12.8964 48.3232 12.8362 48.3602C12.7706 48.4131 12.7252 48.4881 12.7104 48.5716C12.6871 48.6668 12.6427 48.7545 12.5793 48.8285C12.4958 48.9543 12.4408 49.097 12.4186 49.2461C12.333 49.6795 12.4186 49.9004 12.5645 49.5981C12.6829 49.3539 12.8541 49.1404 13.0677 48.9733C13.1427 48.9184 13.1977 48.8412 13.2241 48.7514C13.4937 48.3158 13.815 47.9152 14.1808 47.5579L14.8911 46.7979L15.9482 45.6901C17.2569 44.3359 17.1913 44.4163 17.0655 44.3814C16.8118 44.3465 16.5539 44.3465 16.3002 44.3814M24.8139 44.4131V48.9702V53.4564L24.9302 53.6076C24.9873 53.6731 25.0296 53.7503 25.0507 53.8338C25.1458 54.0145 25.2885 54.1668 25.464 54.2714C25.5317 54.2936 25.593 54.3295 25.6448 54.3771C26.3044 54.8803 30.9164 54.8803 31.4651 54.3771C31.5105 54.3253 31.5697 54.2894 31.6363 54.2714C31.6934 54.2524 31.742 54.2122 31.7727 54.1604C31.8509 54.0695 31.9407 53.9881 32.039 53.9183L32.2304 53.7873L32.3911 53.9131C32.4925 53.9892 32.5908 54.0685 32.6881 54.1498C32.7452 54.2059 32.8139 54.2471 32.89 54.2704C32.9629 54.2883 33.0306 54.3243 33.0866 54.3761C33.4238 54.6382 34.6881 54.7534 35.3974 54.5822C35.8488 54.4881 36.243 54.2186 36.4946 53.8317L36.7409 53.5241L36.8614 53.6699C37.112 54.0061 37.4428 54.2746 37.8234 54.4501C38.891 55.024 40.7991 54.4955 41.0506 53.5537C41.0866 53.4268 41.1341 53.3042 41.1912 53.1858C41.2621 53.0452 41.3022 47.3306 41.2314 47.2598C40.9597 47.1943 40.6775 47.1943 40.4058 47.2598C40.4058 47.3053 40.3604 48.559 40.3604 50.1298C40.3604 52.8687 40.3604 52.9289 40.2547 53.0706C40.2071 53.1287 40.1712 53.1953 40.149 53.2672C40.0401 53.4279 39.89 53.5589 39.7155 53.6446C39.6468 53.6657 39.5834 53.7016 39.5295 53.7503C39.298 53.931 37.8783 53.8866 37.8783 53.6953C37.8783 53.6953 37.8075 53.6446 37.7177 53.6245C37.5253 53.541 37.354 53.4173 37.2145 53.2619C36.6712 52.7587 36.6712 52.7281 36.6659 50.6541C36.6659 48.7059 36.6965 48.8317 36.2124 48.8571H35.9006L35.8699 50.8359L35.8445 52.82L35.6987 53.0769C35.5475 53.3433 35.2811 53.6361 35.1955 53.6361C35.1204 53.6594 35.0496 53.6964 34.9893 53.7471C34.4756 53.893 33.9323 53.893 33.4185 53.7471C33.3435 53.6911 33.2579 53.6499 33.1669 53.6266C32.8689 53.4479 32.6046 53.2175 32.3868 52.9469C32.3868 52.9469 32.3868 52.0209 32.3467 50.9025V48.8888H32.0845C31.9576 48.8719 31.8287 48.8719 31.7018 48.8888L31.5813 48.9194V50.7524C31.5813 52.8771 31.5464 53.1287 31.1987 53.4765C31.13 53.5558 31.0465 53.6213 30.9524 53.6678C30.871 53.6932 30.7959 53.7344 30.7304 53.7883C30.4883 53.9691 26.8287 53.9744 26.5866 53.7883C26.5063 53.7312 26.4207 53.6816 26.3298 53.6425C26.0919 53.4754 25.8985 53.2524 25.7663 52.9934C25.7156 52.8824 25.6955 51.8201 25.6807 48.6478L25.6406 44.429C25.3826 44.3528 25.1078 44.3528 24.8499 44.429M5.02119 47.2577C4.87214 47.2736 4.72732 47.3158 4.59307 47.3835C4.51273 47.4437 4.42288 47.4903 4.32669 47.5199C4.20618 47.5674 4.09201 47.6319 3.98948 47.7112C3.79603 47.8507 3.62585 48.0209 3.48631 48.2144C3.48631 48.2144 3.43557 48.3 3.37532 48.3549C3.29498 48.4416 3.23156 48.542 3.18927 48.652C3.16073 48.7397 3.10682 48.8169 3.03282 48.874C2.98631 48.9036 2.95988 48.9554 2.962 49.0103C2.93557 49.1615 2.88906 49.3084 2.82564 49.448C2.56348 50.0875 2.5286 52.4289 2.7749 52.7059C2.83304 52.801 2.87638 52.9046 2.90069 53.0135C3.0064 53.3962 3.67658 54.2873 3.86791 54.2926C3.91231 54.3084 3.95037 54.3359 3.97891 54.3729C4.24106 54.6298 5.25269 54.8359 5.96727 54.7756L6.30977 54.745L6.04761 54.7101C5.90173 54.7101 5.67552 54.6699 5.54444 54.6646C5.41442 54.6699 5.28546 54.635 5.17658 54.5642C5.09624 54.505 5.0085 54.4575 4.91442 54.4236C4.82774 54.394 4.7474 54.3475 4.67764 54.2873C4.62267 54.2323 4.47151 54.1012 4.34994 53.9902C4.26115 53.9257 4.18398 53.8454 4.12373 53.7534C4.0899 53.671 4.0455 53.5938 3.99265 53.5219C3.93028 53.4374 3.88589 53.3422 3.86157 53.2397C3.84043 53.135 3.80343 53.0357 3.75058 52.9427C3.4842 52.4395 3.46834 50.2186 3.75058 49.579C3.81718 49.4279 3.86263 49.2693 3.88694 49.1055C3.89963 48.9998 3.94297 48.8993 4.01273 48.819C4.07933 48.7366 4.1343 48.6456 4.17341 48.5473C4.39857 48.207 4.68926 47.9163 5.02964 47.6911C5.11632 47.6816 5.20089 47.6541 5.27594 47.6108C5.95036 47.263 7.56663 47.9279 7.71779 48.6182C7.73471 48.708 7.77276 48.7926 7.82879 48.8645C8.07509 49.1467 7.86367 53.8993 7.60257 53.8993C7.54761 53.911 7.50109 53.949 7.47678 53.9997C7.42498 54.0684 7.34993 54.1171 7.26537 54.1361C7.17974 54.1361 7.10469 54.2016 7.10469 54.2418C7.10469 54.282 6.99369 54.338 6.78756 54.3782C6.67763 54.3898 6.57192 54.4247 6.47573 54.4786C6.47573 54.6245 7.10997 54.5441 7.29179 54.3729C7.4049 54.2577 7.58883 54.2556 7.70511 54.3676C7.70722 54.3697 7.70828 54.3708 7.71039 54.3729C7.87636 54.5389 7.75585 56.5632 7.56452 56.764C6.79919 57.5896 6.79919 57.5843 5.81717 57.6097C5.0011 57.6097 4.42711 57.5642 4.33726 57.4437C4.27172 57.3824 4.19455 57.3338 4.11104 57.3031C4.02119 57.2703 3.94297 57.2122 3.88483 57.1372C3.814 57.0008 3.6787 57.0716 3.6787 57.2481C3.72098 57.4659 3.88271 57.6424 4.09624 57.7016C4.1713 57.7016 4.388 57.7725 4.59941 57.8327C5.43556 58.0843 6.92604 57.949 7.34887 57.5864C7.38693 57.5505 7.43344 57.5262 7.48524 57.5156C7.91124 57.19 8.23048 56.745 8.40172 56.2365C8.42709 56.0843 8.46409 55.9353 8.51272 55.7883C8.6068 55.4448 8.65754 55.0917 8.66388 54.7365C8.70405 53.8602 8.73893 53.8052 9.0772 54.042C10.1343 54.7968 9.58036 54.7323 15.2146 54.7524L20.1744 54.6974C20.3763 54.6424 20.537 54.597 20.6776 54.5663C21.0296 54.4839 21.3382 54.2746 21.5433 53.9775C21.6089 53.8824 21.6829 53.7926 21.7653 53.7112C21.8763 53.6308 21.9059 52.8296 21.9059 50.1869C21.9059 47.0251 21.9059 47.2059 21.538 47.2059C21.1702 47.2059 21.1099 46.9998 21.1152 50.0558C21.1152 52.4226 21.1152 52.7746 21.0401 52.8856C20.9926 52.9543 20.963 53.0336 20.9545 53.1171C20.8636 53.3243 20.7125 53.4997 20.5211 53.6203C20.4736 53.634 20.4323 53.6646 20.4048 53.7059C20.3139 53.8317 19.5232 53.8919 18.2653 53.8718H17.2579L17.056 53.5854C16.9683 53.4712 16.9006 53.3433 16.8541 53.208C16.8393 53.1393 16.8023 53.0769 16.7484 53.0315C16.6723 52.9448 16.6173 52.8412 16.5877 52.7291C16.5571 52.6181 16.5127 52.5272 16.4873 52.5272C16.4619 52.5272 16.4017 52.4268 16.3509 52.301C16.3066 52.1837 16.2452 52.0737 16.1702 51.9733C16.1047 51.893 16.0581 51.7978 16.0338 51.6964C16.0338 51.6012 15.9789 51.5251 15.9482 51.5251C15.9175 51.5251 15.8774 51.4649 15.8478 51.394C15.7622 51.1731 15.6565 50.9606 15.5307 50.7598L15.2992 50.3317C15.0381 49.9385 14.6945 49.6065 14.2918 49.3602C14.2178 49.3391 14.1491 49.3031 14.0899 49.2545C13.9493 49.1382 13.5053 49.0526 13.4609 49.1287C13.4165 49.2048 13.5666 49.3201 13.7273 49.4913C13.8615 49.6266 13.9873 49.7693 14.1047 49.9194L14.3816 50.3169C14.4746 50.449 14.5518 50.5928 14.6078 50.745C14.6078 50.8253 14.6681 50.8909 14.6935 50.8909C14.7188 50.8909 14.7939 50.9966 14.8499 51.1277C14.8869 51.2249 14.9397 51.3148 15.0063 51.394C15.0603 51.4702 15.1004 51.5547 15.1226 51.6456C15.1533 51.7598 15.2082 51.8666 15.2833 51.9575C15.3425 52.0315 15.3858 52.1171 15.4091 52.209C15.4091 52.2894 15.4693 52.375 15.5042 52.3856C15.5729 52.4469 15.6195 52.5283 15.6406 52.6171C15.6839 52.7429 15.7484 52.8602 15.8319 52.9649C15.8879 53.0293 15.9292 53.1044 15.9524 53.1868C15.9619 53.2376 15.9884 53.2841 16.0275 53.3179C16.1734 53.4469 16.1956 53.6657 16.0782 53.8211C15.9271 53.9871 10.1322 53.9522 9.90066 53.7809C9.81926 53.7228 9.73153 53.6731 9.6385 53.6351C9.28544 53.4511 8.97889 53.189 8.7421 52.8697L8.61102 52.6932V50.7143C8.61102 49.0526 8.61102 48.7006 8.53597 48.5843C8.43344 48.3803 8.31187 48.1869 8.17339 48.0051C8.08777 47.8941 7.98735 47.8031 7.95141 47.8031C7.89433 47.7894 7.84358 47.7556 7.81081 47.708C7.74845 47.6382 7.666 47.5907 7.57403 47.5716C7.46832 47.5473 7.36896 47.5008 7.28228 47.4353C7.05078 47.2545 5.81717 47.1731 5.02647 47.2841M19.2051 56.8845C18.9429 57.1002 18.9049 57.487 19.1205 57.7492C19.2452 57.9014 19.4366 57.9839 19.6332 57.9722C19.8351 57.9416 19.945 57.8359 20.1067 57.5441C20.3478 57.0959 19.6025 56.5621 19.2051 56.8845ZM21.0824 56.8147C21.018 56.8285 20.963 56.8687 20.9313 56.9257C20.9048 56.987 20.871 57.0441 20.8308 57.097C20.685 57.2682 20.6945 57.4289 20.8308 57.6858C21.2685 58.376 22.1247 57.7809 21.7727 57.0314C21.6617 56.7999 21.4556 56.7397 21.0581 56.8147M4.71464 59.5283C4.57933 59.5885 4.43768 59.6319 4.2918 59.6593C4.14381 59.6879 4.00322 59.7428 3.87426 59.82C3.81612 59.8697 3.74741 59.9046 3.67235 59.9204C3.37954 60.1234 3.12479 60.376 2.9176 60.6657C2.89752 60.7376 2.86369 60.8042 2.81718 60.8623C2.53282 61.5906 2.54128 62.4014 2.84255 63.1234C2.90069 63.2005 2.94509 63.2872 2.97363 63.3803C2.97363 63.4204 3.01908 63.4659 3.07405 63.4807C3.13536 63.5071 3.18398 63.5557 3.21041 63.617C3.21041 63.6773 3.26115 63.7227 3.28546 63.7227C3.36897 63.7608 3.4472 63.8094 3.51696 63.8686C3.74318 64.0536 3.99794 64.2005 4.27172 64.302C4.37214 64.3316 4.46728 64.3781 4.55396 64.4384C4.65227 64.4976 4.76009 64.5409 4.87108 64.5695C5.00956 64.6033 5.14381 64.6561 5.26854 64.7259C5.35734 64.7788 5.45248 64.8232 5.55078 64.857C5.98736 65.0589 6.36368 65.3718 6.6438 65.7629C6.6438 65.8337 6.69454 65.8887 6.71885 65.8887C6.92498 65.8887 6.95564 67.1773 6.75374 67.3993C6.69877 67.4743 6.65649 67.5578 6.62795 67.6456C6.47044 67.9447 6.24 68.1995 5.95882 68.3855C5.86579 68.4236 5.77805 68.4733 5.69666 68.5314C5.43027 68.7333 3.814 68.6678 3.814 68.4606C3.814 68.4352 3.74847 68.4056 3.66813 68.3897C3.32564 68.1942 3.03071 67.9236 2.80767 67.5991L2.70196 67.468L2.58145 67.5991C2.43558 67.8136 2.36158 68.0695 2.37004 68.3295C2.37004 68.4405 2.40492 68.4902 2.536 68.5515L2.84361 68.7079C3.37743 69.0155 5.26537 69.2111 5.54233 68.9648C5.65649 68.8993 5.78123 68.8517 5.91019 68.8242C6.08884 68.7692 6.25903 68.6878 6.41336 68.5821L6.82139 68.3052C6.8901 68.2724 6.9493 68.2217 6.99264 68.1593C7.02541 68.0917 7.0698 68.0303 7.12371 67.9785C7.1808 67.9225 7.2252 67.8559 7.25479 67.7819C7.28228 67.7005 7.32879 67.6265 7.39116 67.5652C7.4567 67.4923 7.50215 67.4035 7.52223 67.3084C7.54443 67.1783 7.58143 67.0525 7.63323 66.931C7.79707 66.4257 7.79707 65.8813 7.63323 65.375C7.57932 65.2841 7.5402 65.1857 7.51695 65.0832C7.31927 64.8041 7.08355 64.5526 6.81716 64.338C6.72202 64.2566 6.61209 64.191 6.49475 64.1466C6.40385 64.1213 6.32033 64.0769 6.24845 64.0156C6.18397 63.9585 6.10575 63.9204 6.02224 63.9046C5.90385 63.8771 5.79074 63.8337 5.68503 63.7735C5.57298 63.7122 5.45247 63.6667 5.32774 63.6371C5.2178 63.6181 5.11315 63.5748 5.02013 63.5113C4.94402 63.4543 4.85945 63.4099 4.76854 63.3803C3.90808 63.1181 3.16284 61.9099 3.44931 61.2302C3.4916 61.1223 3.52754 61.0113 3.55502 60.8982C3.82246 60.2164 4.49476 59.7809 5.22626 59.8158C5.68398 59.8158 6.03704 59.8866 6.03704 59.9722C6.03704 60.0579 6.10258 60.0378 6.1882 60.0674C6.4789 60.2598 6.71251 60.5283 6.86262 60.8433L6.91336 60.9944L7.05923 60.7376C7.39644 60.1382 7.25056 59.8116 6.55606 59.6498C6.43133 59.6223 6.31082 59.5779 6.19877 59.5187C5.6882 59.4183 5.16389 59.4183 4.65332 59.5187M13.0825 59.5177C12.9715 59.5579 12.9313 59.6128 12.9059 59.7693C12.8848 59.8834 12.8425 59.9934 12.7801 60.0917C12.7178 60.1773 12.6734 60.2756 12.6491 60.3782C12.6237 60.4828 12.5793 60.5822 12.518 60.6699C12.444 60.7841 12.3901 60.9099 12.3573 61.042C12.3171 61.1784 12.2664 61.2936 12.241 61.2936C12.1808 61.3707 12.1396 61.4595 12.1205 61.5557C12.0782 61.6984 12.0159 61.8337 11.9345 61.9585C11.8763 62.0325 11.8393 62.1213 11.8288 62.2154C11.8182 62.3031 11.7854 62.3866 11.7336 62.4574C11.6618 62.5642 11.6078 62.6815 11.573 62.8052C11.5476 62.9099 11.5032 63.0082 11.4419 63.097C11.3774 63.1942 11.3288 63.301 11.3013 63.4141C11.278 63.5251 11.2315 63.6297 11.1649 63.7217C11.111 63.7872 11.0751 63.8655 11.0592 63.9479C11.0222 64.0726 10.9683 64.191 10.8985 64.2999C10.8362 64.3813 10.7939 64.4764 10.7727 64.5769C10.7727 64.6879 10.6618 64.9342 10.6121 64.9342C10.5613 64.9342 10.5571 65.0145 10.5412 65.1149C10.5148 65.2227 10.4715 65.3242 10.4102 65.4172C10.3457 65.505 10.3002 65.6043 10.2738 65.709C10.2484 65.8136 10.204 65.913 10.1427 66.0008C10.0782 66.0864 10.0328 66.1836 10.0064 66.2872C9.97994 66.3929 9.93554 66.4934 9.87529 66.5843C9.80235 66.6857 9.7495 66.801 9.71884 66.9215C9.6977 67.0229 9.65225 67.117 9.58777 67.1984C9.53068 67.2661 9.49474 67.3475 9.48206 67.4352C9.45775 67.543 9.41335 67.6456 9.35098 67.7375C9.28015 67.839 9.2273 67.9511 9.19453 68.0695C9.16811 68.172 9.12371 68.2692 9.06345 68.3559C8.81715 68.6424 8.92286 68.8591 9.29495 68.8295H9.58142L9.7273 68.543C9.79812 68.4141 9.8478 68.2745 9.87317 68.1297C9.8922 67.9976 9.9366 67.8718 10.0043 67.7576C10.0666 67.6477 10.11 67.5293 10.1353 67.4056C10.1596 67.2798 10.203 67.1593 10.2664 67.0483C10.3298 66.9426 10.3742 66.8274 10.3975 66.7058C10.425 66.5811 10.4683 66.4606 10.5286 66.3485C10.5941 66.2027 10.6945 65.9711 10.74 65.8454C10.9461 65.2714 10.9366 65.2714 12.8848 65.2661C14.5063 65.2661 14.6216 65.2661 14.7273 65.6287C14.7706 65.7608 14.8235 65.8908 14.8837 66.0166C14.944 66.1329 14.9905 66.2566 15.0201 66.3845C15.0444 66.4923 15.0888 66.5948 15.1512 66.6868C15.2156 66.783 15.26 66.8908 15.2822 67.0039C15.3044 67.1181 15.351 67.2259 15.4186 67.321C15.4852 67.4267 15.5296 67.5451 15.5497 67.6688C15.5698 67.7914 15.6163 67.9088 15.686 68.0113C15.7516 68.1213 15.796 68.2428 15.8171 68.3686C15.8721 68.7566 16.0338 68.8718 16.5222 68.8718C16.8393 68.8718 17.4186 68.7407 17.1765 68.7206C17.1416 68.7206 17.0962 68.6656 17.0814 68.6001C17.0666 68.5346 16.8245 67.9912 16.6078 67.5578C16.5433 67.4299 16.4915 67.2967 16.4514 67.1604C16.4292 67.0758 16.3911 66.9955 16.3404 66.9236C16.2833 66.8327 16.24 66.7344 16.2093 66.6318C16.1818 66.5293 16.1353 66.432 16.0729 66.3454C16.0233 66.2724 15.9873 66.19 15.9672 66.1033C15.8562 65.7555 15.7146 65.4194 15.5444 65.0959C15.4799 64.9595 15.426 64.8179 15.3837 64.6731C15.3636 64.5917 15.3277 64.5145 15.278 64.4468C15.2178 64.3697 15.1765 64.2809 15.1575 64.1847C15.1279 64.079 15.0835 63.9764 15.0264 63.8824C14.9672 63.7745 14.9218 63.6593 14.8901 63.5399C14.8636 63.4268 14.8171 63.32 14.7537 63.2227C14.6945 63.1234 14.6491 63.0166 14.6173 62.9056C14.5877 62.7967 14.5412 62.6932 14.481 62.598C14.4292 62.5187 14.3943 62.4299 14.3806 62.3359C14.3584 62.2206 14.315 62.1096 14.2548 62.0082C14.1892 61.9003 14.1364 61.7862 14.0983 61.6657C14.0655 61.5621 14.018 61.4638 13.9577 61.3739C13.8975 61.2693 13.8552 61.1551 13.8319 61.0367C13.8023 60.8993 13.7474 60.7672 13.6713 60.6488C13.6173 60.5801 13.5835 60.4987 13.5708 60.412C13.5539 60.3063 13.5159 60.2058 13.4598 60.1149C13.3911 59.9839 13.334 59.8475 13.2886 59.7069C13.2283 59.505 13.2178 59.4955 13.0825 59.5462M26.2642 59.5483C26.0676 59.6139 25.8657 59.6615 25.6596 59.6889C25.4239 59.7206 25.1934 59.7851 24.9746 59.8803C24.8816 59.9331 24.7811 59.9743 24.6776 60.0008C24.5803 60.0283 24.4894 60.0737 24.4112 60.1371C24.3319 60.1953 24.2431 60.2397 24.149 60.2682C24.0919 60.2809 24.0454 60.32 24.0232 60.3739C23.9883 60.4289 23.9376 60.4796 23.8974 60.4796C23.5042 60.7524 23.1638 61.0938 22.89 61.487C22.8657 61.5695 22.8203 61.6435 22.759 61.7037C22.6955 61.7735 22.6501 61.8581 22.6279 61.95C22.6131 62.0272 22.5803 62.0991 22.5327 62.1614C22.4513 62.3084 22.3953 62.4691 22.3668 62.635C22.3393 62.7989 22.2907 62.9574 22.2209 63.1086C22.093 63.9109 22.093 64.728 22.2209 65.5304C22.2854 65.6805 22.333 65.838 22.3615 65.9986C22.3805 66.1318 22.4217 66.2608 22.482 66.3813C22.538 66.4648 22.5835 66.5547 22.6184 66.6477C22.6585 66.7502 22.7124 66.8475 22.779 66.9342C22.833 67.0018 22.8763 67.079 22.9048 67.1604C23.2325 67.6043 23.6279 67.9933 24.0782 68.3136C24.1733 68.3538 24.2547 68.4088 24.2547 68.4394C24.2547 68.4701 24.279 68.4944 24.3097 68.4944C24.445 68.5346 24.5761 68.5874 24.7029 68.6508C24.8372 68.7185 24.9799 68.7714 25.1258 68.8073C25.2653 68.8358 25.4017 68.876 25.5338 68.9278C26.4291 69.0758 27.3414 69.0938 28.2431 68.9828C28.4069 68.9215 28.575 68.8749 28.7462 68.8422C29.5771 68.6709 30.0253 68.2936 29.8689 67.8961C29.8382 67.8105 29.5317 67.8961 29.5317 68.0166C29.5317 68.0166 29.4513 68.0874 29.3551 68.1276C29.2568 68.1688 29.1648 68.2248 29.0835 68.2936C29.0317 68.3432 28.9672 68.376 28.8974 68.3887C28.7801 68.4151 28.668 68.4585 28.5655 68.5198C27.9714 68.8369 26.1131 68.857 25.6754 68.5546C25.5655 68.4828 25.445 68.4278 25.3181 68.394C25.2209 68.375 25.1321 68.3274 25.0613 68.2576C25.0296 68.2058 24.9788 68.1699 24.9207 68.1572C24.4556 67.8475 24.0845 67.4151 23.8477 66.9088C23.7991 66.8168 23.7452 66.728 23.6871 66.6424C23.6205 66.5166 23.5718 66.3834 23.5412 66.2449C23.501 66.0737 23.4249 65.802 23.3805 65.6456C23.2727 64.7576 23.2727 63.8602 23.3805 62.9722L23.5317 62.4384C23.8393 61.3707 24.8002 60.2936 25.6162 60.0917C25.7568 60.0568 25.8932 60.0071 26.0243 59.9458C26.7325 59.82 27.4566 59.82 28.1638 59.9458C28.2547 59.9997 28.353 60.0399 28.4555 60.0663C28.5803 60.1044 28.6987 60.1604 28.8076 60.2323C28.8794 60.2841 28.9577 60.3274 29.0391 60.3634C29.2198 60.4786 29.389 60.6118 29.5422 60.7608C29.7737 60.9722 29.8794 60.8612 29.9355 60.3475C29.9809 59.9596 30.0211 60.005 29.5729 59.9141C29.4989 59.8972 29.4291 59.8623 29.371 59.8137C29.2124 59.7397 29.0422 59.6953 28.8678 59.6826C28.6564 59.6572 28.4471 59.6118 28.2431 59.5462C27.5761 59.4395 26.8964 59.4395 26.2293 59.5462M35.2917 59.5483C35.1099 59.6107 34.9228 59.6541 34.7325 59.6794C34.5718 59.6974 34.4154 59.7418 34.2695 59.8105C34.1712 59.8708 34.0644 59.9141 33.9524 59.9416C33.8297 59.9733 33.7145 60.0261 33.6099 60.098C33.5401 60.1572 33.4598 60.2037 33.3731 60.2344C33.2959 60.2629 33.2272 60.3094 33.1712 60.3708C33.1416 60.4215 33.0919 60.4574 33.0348 60.4712C32.964 60.4944 32.9027 60.5378 32.8583 60.597C32.8044 60.6625 32.742 60.7196 32.6722 60.7682C32.186 61.2545 31.8128 61.8422 31.5792 62.4902C31.5549 62.6192 31.5147 62.7439 31.4587 62.8623C31.2938 63.7989 31.2822 64.7566 31.4238 65.6974C31.483 65.7957 31.5253 65.9024 31.5496 66.0145C31.6469 66.3358 31.7769 66.6456 31.9376 66.9405C32.2716 67.487 32.724 67.9511 33.2621 68.2999C33.3393 68.3411 33.4122 68.3897 33.4788 68.4458C33.5538 68.487 33.6331 68.5208 33.7156 68.5462C33.8192 68.5758 33.9185 68.6212 34.0073 68.6826C34.1236 68.747 34.2494 68.7914 34.3794 68.8136C34.5507 68.8506 34.7187 68.8993 34.8826 68.9595C35.8847 69.1075 36.9048 69.098 37.9037 68.9289C38.0485 68.8718 38.1986 68.8316 38.3519 68.8084C38.4819 68.7883 38.6067 68.7439 38.7198 68.6773C38.8181 68.6213 38.9227 68.5769 39.0316 68.5462C39.1183 68.5177 39.1986 68.4733 39.2684 68.4151C39.3339 68.357 39.4111 68.3126 39.4946 68.284C39.5496 68.2682 39.5982 68.2365 39.6352 68.1931C39.6859 68.1424 39.8265 68.0219 39.947 67.9162C40.4185 67.4859 40.7874 66.9564 41.0295 66.3654C41.0422 66.3126 41.0686 66.264 41.1045 66.2249C41.1902 66.0399 41.2441 65.8433 41.2652 65.6403C41.3107 65.3633 41.3709 65.0557 41.4016 64.9553C41.4692 64.5515 41.4692 64.1403 41.4016 63.7365C41.3709 63.58 41.316 63.2333 41.2758 62.986C41.2568 62.7946 41.206 62.6065 41.1246 62.4321C41.0633 62.339 41.0158 62.2376 40.984 62.1297C40.9439 62.0103 40.8878 61.8972 40.8181 61.7925C40.7726 61.7407 40.7388 61.6815 40.7177 61.616C40.6796 61.524 40.6278 61.4384 40.5612 61.3644C40.4999 61.2936 40.447 61.2164 40.4048 61.1329C40.0781 60.7629 39.6933 60.449 39.2673 60.2016C39.205 60.1858 39.15 60.1477 39.1109 60.0959C39.0623 60.0409 38.9967 60.0039 38.9249 59.9902C38.8043 59.9648 38.687 59.9215 38.5771 59.8644C38.3678 59.7746 38.1479 59.7101 37.9227 59.6731C37.7187 59.6414 37.5168 59.5959 37.3181 59.5367C36.6511 59.4342 35.9714 59.4342 35.3044 59.5367M18.9376 59.7545C18.9239 59.8221 18.9239 59.893 18.9376 59.9606L18.9725 64.4923V68.8728H19.5158C20.1755 68.8728 20.13 68.9479 20.0645 67.9415C19.9788 66.7185 19.9482 62.579 20.0137 61.6128L20.0845 60.2428V59.7397H19.6215C19.1839 59.7397 19.0423 59.7397 19.0222 59.8052M37.6172 59.9913C37.7261 60.0452 37.8413 60.0853 37.9597 60.1118C38.2631 60.2132 38.5464 60.3686 38.7959 60.5695C39.1405 60.8158 39.4312 61.1297 39.6521 61.4913C39.6627 61.5409 39.6891 61.5843 39.7272 61.617C39.7948 61.6984 39.8435 61.7957 39.8678 61.8993C39.8931 62.0092 39.9386 62.1139 40.0041 62.2069C40.0771 62.3559 40.1267 62.5156 40.15 62.6805C40.1807 62.8665 40.2261 63.0504 40.2864 63.2291C40.3974 63.9722 40.3974 64.727 40.2864 65.4701C40.2261 65.6445 40.1849 65.8253 40.1659 66.0092C40.1521 66.1625 40.1045 66.3105 40.0253 66.4426C39.9608 66.5356 39.9153 66.6392 39.8889 66.7502C39.8583 66.8665 39.8054 66.9764 39.7325 67.0726C39.6764 67.1318 39.6342 67.2027 39.6067 67.2788C39.5876 67.3432 39.5506 67.4003 39.501 67.4447L39.149 67.8126C38.8762 68.0959 38.5517 68.3231 38.1923 68.4817C38.1278 68.4923 38.0686 68.5219 38.0211 68.5673C37.6838 68.8697 35.3625 68.8845 34.9502 68.5673C34.8794 68.5103 34.7938 68.4743 34.7039 68.4616C34.6088 68.4415 34.52 68.3961 34.4471 68.3305C34.3868 68.2724 34.3149 68.228 34.2357 68.1995C33.9788 68.1995 32.9069 66.765 32.9069 66.4225C32.8815 66.3094 32.8424 66.1995 32.7906 66.0948C32.5538 65.5917 32.5285 62.9934 32.7557 62.6456C32.8118 62.5504 32.853 62.4469 32.8762 62.338C32.927 62.0864 33.0126 61.8602 33.0676 61.8602C33.1225 61.8602 33.1226 61.7894 33.1426 61.6995C33.1743 61.5896 33.2293 61.4881 33.3033 61.4025C33.3541 61.3538 33.3963 61.2978 33.4291 61.2365C33.6923 60.8877 34.019 60.5906 34.391 60.3602C34.4957 60.3116 34.5982 60.2576 34.6987 60.1995C34.964 60.079 35.2378 59.9817 35.5189 59.9078C36.2219 59.8401 36.9312 59.8623 37.6289 59.9733M13.0518 61.5325C13.1469 61.634 13.2104 61.7619 13.2326 61.9003C13.2389 61.9902 13.277 62.0758 13.3383 62.1424C13.3784 62.1424 13.4334 62.283 13.4694 62.4194C13.5032 62.5526 13.5581 62.6805 13.63 62.7967C13.6945 62.8855 13.74 62.987 13.7664 63.0938C13.7844 63.1826 13.8203 63.2661 13.8721 63.3401C13.9313 63.4395 13.9768 63.5462 14.0085 63.6572C14.037 63.7714 14.0846 63.8813 14.1491 63.9796C14.2886 64.1868 14.3499 64.4363 14.3203 64.6847C14.2453 64.876 14.0941 64.8961 12.8552 64.8908C11.4155 64.8908 11.204 64.7999 11.4207 64.3475C11.5677 64.0547 11.6988 63.7534 11.814 63.4458C11.8383 63.3697 11.8732 63.2989 11.9197 63.2344C11.9704 63.1636 12.0064 63.0832 12.0254 62.9976C12.0677 62.8665 12.1237 62.7397 12.1913 62.6202C12.2516 62.524 12.2939 62.4183 12.3171 62.3084C12.3404 62.1974 12.3848 62.0906 12.4482 61.9965C12.5074 61.9067 12.5518 61.8084 12.5793 61.7048C12.5793 61.4109 12.8362 61.3211 13.0518 61.5325Z" fill="#304567"/>
</svg>
