<svg width="100" height="72" viewBox="0 0 100 72" fill="none" xmlns="http://www.w3.org/2000/svg">
<path d="M16.7019 67.8967V69.6689H14.6042V67.8967H14.1971V71.9232H14.6042V70.0305H16.7019V71.9232H17.1027V67.8967H16.7019Z" fill="#B2A590"/>
<path d="M21.1996 69.9303C21.1996 68.9769 21.9683 68.1832 22.9326 68.1832C23.8969 68.1832 24.6719 68.9738 24.6719 69.9193C24.6719 70.8649 23.875 71.6382 22.9326 71.6382C21.9902 71.6382 21.1996 70.8696 21.1996 69.9303ZM25.0773 69.9131C25.0773 68.7515 24.0895 67.8247 22.9342 67.8247C21.7788 67.8247 20.791 68.7577 20.791 69.9193C20.791 71.0809 21.7867 71.9999 22.9342 71.9999C24.0817 71.9999 25.0773 71.0778 25.0773 69.9115" fill="#B2A590"/>
<path d="M28.4023 67.8967V68.2552H29.3307V71.9232H29.7377V68.2552H30.6676V67.8967H28.4023Z" fill="#B2A590"/>
<path d="M34.2057 67.8967V71.9232H36.4287V71.5615H34.619V70.0696H36.3708V69.7064H34.619V68.2552H36.4287V67.8967H34.2057Z" fill="#B2A590"/>
<path d="M40.1874 67.8967V71.9232H42.2648V71.5615H40.5944V67.8967H40.1874Z" fill="#B2A590"/>
<path d="M48.0853 70.0088C48.1589 69.9806 48.3389 69.9086 48.3874 69.8522L49.3659 70.8056C49.1608 71.1954 48.9025 71.6275 48.4015 71.6275C47.946 71.6275 47.5593 71.2408 47.5593 70.7931C47.5593 70.4455 47.7847 70.1637 48.0853 70.0103M48.054 68.7219C48.054 68.4229 48.3107 68.2006 48.6113 68.2006C48.9119 68.2006 49.1858 68.437 49.1858 68.7298C49.1858 69.0883 48.7929 69.2902 48.5001 69.3951C48.4751 69.381 48.4626 69.3528 48.4344 69.3356C48.2637 69.165 48.0555 68.9881 48.0555 68.7235M47.1632 70.7571C47.1632 71.4568 47.7471 71.9954 48.4328 71.9954C49.0449 71.9954 49.4003 71.6087 49.6617 71.1015L50.5916 71.9954L50.8812 71.7167L49.8543 70.7242L50.6026 69.298H50.1502L49.5615 70.4393L48.7929 69.6878C49.2077 69.5422 49.5866 69.2385 49.5835 68.772C49.5866 68.246 49.142 67.8218 48.616 67.8218C48.09 67.8218 47.6454 68.2006 47.6454 68.7204C47.6454 69.0679 47.8677 69.3325 48.0947 69.5689C47.5906 69.799 47.1648 70.1606 47.1648 70.7555" fill="#B2A590"/>
<path d="M60.1866 71.9263V67.8999H59.5635L58.0951 71.3236L56.6157 67.8999H55.9926L55.9895 71.9263H56.3965V68.3476L57.9135 71.9263H58.2516L59.7889 68.3476L59.7858 71.9263H60.1866Z" fill="#B2A590"/>
<path d="M64.8564 70.2075L65.6501 68.3603L66.4266 70.2075H64.8564ZM67.164 71.9217H67.6133L65.8693 67.8984H65.4231L63.687 71.9217H64.1081L64.6999 70.5645H66.5832L67.164 71.9217Z" fill="#B2A590"/>
<path d="M73.8673 69.2041C73.8673 68.7 73.5996 68.2648 73.144 68.0487C72.8513 67.9063 72.4474 67.8984 72.1484 67.8984H71.1183V71.9217H71.5222V68.2569H72.222C72.4975 68.2569 72.7714 68.271 73.0125 68.4104C73.2912 68.5732 73.4618 68.869 73.4618 69.1821C73.4618 69.4952 73.2802 69.7911 72.9953 69.9555C72.6791 70.1324 72.2783 70.0979 71.923 70.0979L73.2912 71.9217H73.8062L72.6572 70.422C73.346 70.3844 73.8689 69.8897 73.8689 69.2041" fill="#B2A590"/>
<path d="M77.9814 67.8999H77.5775V71.9263H77.9814V67.8999Z" fill="#B2A590"/>
<path d="M84.7146 71.9263H85.117V67.8999H84.7146V71.2407L82.4447 67.8999H81.8983V71.9263H82.3053V68.3789L84.7146 71.9263Z" fill="#B2A590"/>
<path d="M90.5836 68.3587L91.357 70.206H89.7946L90.5852 68.3587H90.5836ZM89.6303 70.5676H91.5198L92.1006 71.928H92.5468L90.7997 67.8984H90.3535L88.6237 71.928H89.0416L89.6303 70.5676Z" fill="#B2A590"/>
<path d="M63.2627 16.2373C63.2314 16.2059 63.1969 16.1778 63.1656 16.1465C63.1969 16.1183 63.2314 16.0901 63.2595 16.0588C64.753 14.5872 65.2634 12.1576 64.8673 10.0144C65.7205 11.8836 66.1964 13.9579 66.2042 16.1465C66.198 18.335 65.7205 20.4093 64.8673 22.2816C65.2634 20.1385 64.753 17.7026 63.2627 16.2373ZM63.3081 23.0722C62.1841 25.0212 59.6918 25.8149 58.1028 25.314C57.7099 25.1856 57.7475 25.0181 57.8414 24.5719C57.9698 23.9629 58.5098 21.9967 57.6598 20.4688C60.1974 21.4566 59.111 23.5763 58.6163 23.9551C59.3881 24.3074 60.6561 23.5904 60.6937 22.3505C61.2338 23.1786 62.7163 23.1129 63.1672 22.817C63.0419 22.3928 62.4126 20.9729 61.3434 21.0417C62.1825 20.7662 62.4846 19.4966 61.7535 18.5119C61.0882 20.151 59.3944 20.5831 58.0997 19.6297C59.7247 19.6297 60.9395 18.5964 61.9038 17.5867C62.231 17.2564 62.3844 17.1656 62.6975 17.4474C63.9186 18.5604 64.4024 21.1779 63.3065 23.0706M52.7363 30.9122C54.9014 30.2374 56.6516 28.5248 57.1807 26.5131C57.1917 26.4568 57.2011 26.4051 57.2152 26.3628C57.2637 26.3769 57.3123 26.3879 57.3686 26.4004C59.3865 26.953 61.4827 26.5507 63.413 24.7723C60.9771 28.1694 57.1354 30.4895 52.7363 30.9106M46.7749 26.4583C46.656 26.0654 46.8454 25.9777 47.29 25.8603C48.4077 25.5754 50.158 25.2341 50.9376 23.8706C51.0346 26.1812 49.74 26.7104 48.3827 26.3769C48.8414 27.4383 49.7259 27.7373 50.6871 27.2223C50.0813 28.2555 51.2366 29.6159 51.3243 29.6331C51.4151 29.6159 52.5798 28.3275 51.9583 27.2223C52.8209 27.6919 53.8134 27.4383 54.2658 26.3769C53.0416 26.6133 51.617 26.1828 51.7156 23.8706C52.4952 25.2341 54.2486 25.5754 55.3664 25.8603C55.8125 25.9793 55.9925 26.0654 55.8783 26.4583C55.2693 28.4622 53.2576 30.0323 51.3258 30.0323C49.394 30.0323 47.387 28.4622 46.7781 26.4583M39.2308 24.7739C41.1689 26.5523 43.2714 26.9562 45.2862 26.402C45.3378 26.3879 45.3832 26.3769 45.4318 26.3644C45.4427 26.4067 45.4631 26.4583 45.474 26.5147C46.0032 28.5263 47.8583 30.3533 49.9184 30.9137C45.5226 30.4926 41.6808 28.171 39.2308 24.7754M39.9572 17.4474C40.2641 17.1656 40.4159 17.2564 40.7431 17.5867C41.7106 18.5964 42.9223 19.6297 44.5426 19.6297C43.251 20.5831 41.5572 20.151 40.8997 18.5119C40.1545 19.4966 40.4582 20.7662 41.3098 21.0417C40.2312 20.9729 39.6019 22.3912 39.4766 22.817C39.9322 23.1129 41.4116 23.1786 41.9548 22.3505C41.9971 23.5888 43.2635 24.3058 44.0291 23.9551C43.5422 23.5763 42.4526 21.4566 44.9934 20.4688C44.1449 21.9967 44.6772 23.9629 44.8087 24.5688C44.8995 25.0181 44.9402 25.184 44.5504 25.314C42.9567 25.8149 40.4551 25.0212 39.3404 23.0722C38.2477 21.1795 38.7283 18.562 39.9557 17.4489M36.4505 16.1465C36.4505 13.9579 36.928 11.8836 37.7875 10.0144C37.3914 12.1576 37.8986 14.5872 39.3921 16.0588C39.4265 16.0901 39.4625 16.1183 39.486 16.1465C39.461 16.1778 39.4234 16.2059 39.3921 16.2373C37.8986 17.7026 37.3914 20.1385 37.7875 22.2816C36.928 20.4093 36.4505 18.335 36.4505 16.1465ZM39.342 9.23169C40.4551 7.2764 42.9583 6.48269 44.5519 6.98365C44.9418 7.11202 44.8995 7.27639 44.8103 7.72882C44.6788 8.34093 44.1449 10.2978 44.995 11.832C42.4542 10.8394 43.5438 8.72447 44.0306 8.34093C43.2651 7.99339 41.9986 8.70569 41.9564 9.94555C41.4131 9.11741 39.9338 9.18316 39.4782 9.48217C39.6034 9.90328 40.2328 11.3201 41.3114 11.2574C40.4551 11.5283 40.1561 12.7963 40.9012 13.781C41.5587 12.1419 43.2542 11.7067 44.5441 12.6632C42.9223 12.6632 41.7121 13.6996 40.7447 14.7062C40.4175 15.0444 40.2641 15.1273 39.9588 14.8518C38.7299 13.734 38.2509 11.1212 39.3436 9.23169M49.9169 1.38389C47.9538 1.85354 46.0016 3.76813 45.4725 5.78605C45.4615 5.83771 45.4411 5.88311 45.4302 5.93633C45.3817 5.92224 45.3363 5.90502 45.2846 5.8878C43.2698 5.33832 41.1721 5.74535 39.2293 7.52374C41.6793 4.13133 45.521 1.80658 49.9169 1.38546M55.8751 5.8424C55.9941 6.23221 55.8094 6.32301 55.3601 6.43416C54.247 6.72378 52.4921 7.07131 51.7125 8.42546C51.6154 6.1148 52.9132 5.58567 54.2627 5.92381C53.8103 4.85928 52.9304 4.56027 51.9583 5.07845C52.5704 4.04209 51.4119 2.68481 51.3211 2.66289C51.2335 2.68325 50.0687 3.97165 50.684 5.07845C49.8355 4.60097 48.8398 4.85928 48.3796 5.92381C49.6116 5.69055 51.0315 6.1148 50.9344 8.42546C50.1548 7.06818 48.4046 6.72378 47.2869 6.43416C46.8407 6.32301 46.6528 6.23221 46.7718 5.8424C47.3808 3.83388 49.347 2.26839 51.3196 2.26839C53.2921 2.26839 55.263 3.83388 55.872 5.8424M63.413 7.52374C61.4811 5.74535 59.3865 5.33832 57.3686 5.8878C57.3123 5.90502 57.2637 5.92224 57.2152 5.93633C57.2011 5.88467 57.1901 5.83927 57.1807 5.78605C56.6516 3.76813 54.856 1.92399 52.7363 1.38389C57.1354 1.80501 60.9771 4.12976 63.413 7.52217M58.1028 12.6632C59.3975 11.7067 61.0929 12.1419 61.7567 13.781C62.4878 12.7963 62.1841 11.5298 61.3465 11.2574C62.4142 11.3201 63.0451 9.90798 63.1703 9.48217C62.7179 9.18316 61.2354 9.11741 60.6968 9.94555C60.6593 8.70725 59.3912 7.99339 58.6194 8.34093C59.1141 8.72447 60.199 10.8394 57.6629 11.832C58.5114 10.3009 57.9729 8.34093 57.8445 7.73195C57.7506 7.27639 57.713 7.11202 58.106 6.98365C59.6965 6.48269 62.1872 7.2764 63.3112 9.23169C64.4071 11.1212 63.9233 13.734 62.7022 14.8518C62.3891 15.1273 62.2357 15.0428 61.9085 14.7062C60.9442 13.7043 59.7309 12.6632 58.1044 12.6632M55.9377 17.3535C55.9377 16.7163 56.3933 16.4549 56.78 16.4549C57.1134 16.4549 57.4798 16.674 57.4798 17.0043C57.4798 17.3801 57.3295 17.6071 56.9334 17.6587C57.7475 18.5119 58.9513 17.6243 58.5302 16.768C59.2816 17.2313 60.4965 16.3985 60.5137 16.1449C60.4933 15.8944 59.2816 15.0694 58.5302 15.5218C58.9513 14.6686 57.7475 13.7779 56.9334 14.6342C57.3295 14.6827 57.4798 14.9129 57.4798 15.2854C57.4798 15.6189 57.115 15.8349 56.78 15.8349C56.3933 15.8349 55.9377 15.5735 55.9377 14.9363C55.9377 14.3587 56.5639 13.5164 57.7396 13.5164C60.0018 13.5164 60.8675 15.1665 61.7488 16.1433C60.869 17.1218 60.0018 18.7733 57.7396 18.7733C56.5639 18.7733 55.9377 17.9311 55.9377 17.3503M52.2933 20.8069C52.788 20.4312 53.5426 20.5392 53.7696 20.9494C53.9511 21.2907 53.8776 21.729 53.624 21.9654C53.4424 22.1282 53.0463 22.1955 52.7786 21.8746C52.7473 23.3367 53.9402 23.2209 54.3488 22.6965C54.4505 22.7419 54.2658 23.9348 55.9284 24.071C56.4606 22.8139 55.6325 22.244 55.4618 22.0624C56.182 22.2331 56.9506 20.9979 55.4994 20.1619C55.6106 20.5831 55.4932 20.904 55.1863 21.0668C54.7621 21.2891 54.3832 21.0151 54.1813 20.6739C53.9339 20.2872 54.1562 19.6719 54.5711 19.4496C55.0172 19.2101 56.0536 19.1428 56.7628 20.4766C57.5737 21.9842 56.9224 23.9504 56.5953 25.0431C55.2724 24.8177 53.0385 24.406 52.1868 23.0597C51.5747 22.064 51.9223 21.0871 52.2949 20.8085M55.4603 10.2383C55.6309 10.0567 56.4591 9.49 55.9268 8.22352C54.2627 8.35971 54.4474 9.56044 54.3472 9.60584C53.9402 9.07671 52.7457 8.95929 52.777 10.423C53.0447 10.1037 53.4424 10.1616 53.6224 10.3354C53.876 10.5655 53.9496 11.007 53.768 11.3451C53.5426 11.7662 52.7864 11.8633 52.2917 11.4985C51.9191 11.2167 51.5716 10.2383 52.1837 9.24421C53.0369 7.89007 55.2708 7.48617 56.5921 7.24978C56.9193 8.34249 57.5706 10.315 56.7596 11.8257C56.0505 13.1579 55.0125 13.0891 54.5679 12.8527C54.1531 12.6272 53.9339 12.0136 54.1781 11.6206C54.3801 11.2825 54.7589 11.0054 55.1832 11.2371C55.49 11.3905 55.6074 11.7067 55.4963 12.1357C56.9475 11.3044 56.182 10.0692 55.4587 10.2399M46.861 18.7217C47.7205 17.7026 47.6892 16.2717 47.6892 16.1465C47.6892 16.0212 47.7205 14.5951 46.861 13.5712C49.012 14.2366 51.3227 12.646 51.3227 10.9584C51.3227 12.646 53.6365 14.2366 55.7906 13.5712C54.9311 14.5935 54.9624 16.0243 54.9593 16.1465C54.9624 16.2686 54.928 17.7026 55.7906 18.7217C53.6365 18.0611 51.3227 19.6469 51.3227 21.3392C51.3227 19.6485 49.012 18.0611 46.861 18.7217ZM45.8842 20.475C46.6012 19.1428 47.6281 19.2086 48.0759 19.4481C48.486 19.6704 48.7162 20.2872 48.4719 20.6723C48.259 21.0136 47.8943 21.2875 47.4591 21.0652C47.1601 20.9024 47.0411 20.5815 47.1522 20.1604C45.7042 20.9948 46.4665 22.2315 47.1898 22.0609C47.0129 22.2425 46.1879 22.8123 46.7202 24.0694C48.3796 23.9332 48.1995 22.7403 48.2966 22.6949C48.7068 23.2209 49.9012 23.3352 49.8699 21.873C49.6022 22.1939 49.2046 22.1266 49.0246 21.9638C48.7741 21.7274 48.7005 21.2891 48.8852 20.9478C49.1075 20.5377 49.859 20.4296 50.3505 20.8054C50.7262 21.084 51.0785 22.0609 50.4507 23.0565C49.6116 24.4028 47.3777 24.8146 46.0486 25.04C45.7292 23.9473 45.0748 21.981 45.881 20.4735M46.7123 14.9395C46.7123 15.5766 46.2568 15.8381 45.8701 15.8381C45.5429 15.8381 45.1641 15.622 45.1641 15.2886C45.1641 14.916 45.3206 14.6859 45.7167 14.6373C44.8995 13.781 43.7019 14.6718 44.123 15.525C43.3637 15.0694 42.1505 15.8975 42.1395 16.148C42.1505 16.4016 43.3653 17.2345 44.123 16.7711C43.7019 17.6274 44.8995 18.515 45.7167 17.6618C45.3206 17.6102 45.1641 17.3832 45.1641 17.0075C45.1641 16.6772 45.5429 16.458 45.8701 16.458C46.2568 16.458 46.7123 16.7194 46.7123 17.3566C46.7123 17.9374 46.083 18.7796 44.8995 18.7796C42.6483 18.7796 41.7779 17.1265 40.9012 16.1496C41.7779 15.1712 42.6483 13.5227 44.8995 13.5227C46.083 13.5227 46.7123 14.3649 46.7123 14.9426M48.2997 9.60428C48.2027 9.55888 48.3827 8.35815 46.7233 8.22195C46.191 9.4853 47.016 10.0551 47.1929 10.2367C46.4697 10.0661 45.7041 11.3013 47.1554 12.1325C47.0442 11.7052 47.1616 11.3874 47.4622 11.2339C47.8943 11.0007 48.2622 11.2794 48.4751 11.6175C48.7193 12.0104 48.4892 12.6225 48.079 12.8495C47.6297 13.0859 46.6043 13.1564 45.8873 11.8226C45.0795 10.3119 45.7339 8.33936 46.0548 7.24665C47.387 7.48304 49.6179 7.88694 50.457 9.24108C51.0832 10.2367 50.7325 11.2105 50.3568 11.4954C49.8668 11.8601 49.1138 11.7631 48.8915 11.342C48.7068 11.0038 48.7803 10.5624 49.0308 10.3322C49.2124 10.1585 49.6085 10.099 49.8762 10.4199C49.9075 8.9546 48.7177 9.07358 48.3029 9.60271M51.3227 0C42.3759 0.0172204 35.1277 7.23882 35.1199 16.1465C35.1261 25.051 42.3759 32.2788 51.3227 32.3007C60.2726 32.2804 67.5255 25.0525 67.5365 16.1465C67.5255 7.23726 60.2742 0.0172204 51.3227 0ZM50.446 16.1465C50.446 15.6659 50.839 15.276 51.3227 15.276C51.8064 15.276 52.1994 15.6659 52.1994 16.1465C52.1994 16.6271 51.8096 17.0169 51.3227 17.0169C50.8358 17.0169 50.446 16.6302 50.446 16.1465ZM51.8628 18.3491C51.9771 18.443 52.1242 18.5056 52.2902 18.5056C52.6737 18.5056 52.9821 18.1988 52.9821 17.8137C52.9821 17.7824 52.979 17.748 52.9758 17.7166C53.4799 17.9812 53.9918 18.0063 54.1312 17.7589C54.2705 17.5194 53.9997 17.0904 53.5159 16.7883C53.6553 16.7288 53.7774 16.6349 53.8604 16.4924C54.0482 16.1652 53.9339 15.7441 53.613 15.5563C53.5786 15.5359 53.5441 15.5218 53.5159 15.5077C53.9997 15.2056 54.2705 14.7876 54.1312 14.5371C53.9918 14.2929 53.4799 14.3148 52.9758 14.5857C53.0009 14.4354 52.9759 14.2788 52.8929 14.1395C52.705 13.8092 52.2808 13.6933 51.9458 13.8859C51.9144 13.9031 51.8863 13.9235 51.8628 13.9454C51.8424 13.374 51.6123 12.9215 51.3227 12.9215C51.0331 12.9215 50.8045 13.374 50.7873 13.9454C50.673 13.8483 50.5196 13.792 50.3552 13.792C49.9764 13.792 49.6586 14.1019 49.6633 14.4839C49.6633 14.5183 49.6664 14.5497 49.6695 14.581C49.1654 14.3133 48.6676 14.2929 48.5142 14.5356C48.3717 14.786 48.6535 15.204 49.1294 15.5062C48.9932 15.5625 48.8711 15.6627 48.7882 15.8052C48.5972 16.1355 48.7115 16.5535 49.0418 16.7445C49.0731 16.7617 49.1013 16.7727 49.1294 16.7867C48.652 17.0889 48.3702 17.5178 48.5142 17.7573C48.6676 18.0047 49.1654 17.9796 49.6758 17.7151C49.6476 17.8607 49.6758 18.0219 49.7556 18.1612C49.9498 18.4884 50.3709 18.6027 50.7059 18.4086C50.7309 18.3976 50.7622 18.3773 50.7857 18.3522C50.8029 18.9268 51.0393 19.3761 51.3211 19.3761C51.6029 19.3761 51.8393 18.9268 51.8612 18.3491" fill="#B2A590"/>
<path d="M3.45318 43.8197C3.45318 43.7226 3.48762 43.6913 3.56746 43.6913C3.85551 43.6913 4.83081 43.6913 5.08442 43.7226C5.5572 43.7852 6.04563 43.8416 6.70627 44.2893C8.20914 45.3132 8.59268 46.9961 8.59268 48.1655C8.59268 50.354 6.89413 50.9176 5.84995 50.9176C5.49458 50.9176 4.66018 50.8722 4.13417 50.6217C3.52833 50.3321 3.52833 50.0613 3.47353 49.111C3.45318 48.823 3.45318 46.4168 3.45318 44.9218V43.8181V43.8197ZM3.45318 37.6751C3.45318 37.5562 3.50954 37.4982 3.68644 37.456C3.99328 37.3792 4.4003 37.362 4.6226 37.362C6.52624 37.362 7.25419 39.0841 7.25419 40.6965C7.25419 41.4902 6.95831 42.1931 6.54502 42.6596C6.14113 43.123 5.8703 43.1637 4.78072 43.1637C4.05746 43.1637 3.7021 43.1011 3.58625 43.0839C3.48919 43.0463 3.45475 43.0041 3.45475 42.8757V37.6767L3.45318 37.6751ZM0.353513 37.0896C0.524151 37.0896 0.862297 37.1147 1.01885 37.1523C1.65913 37.2838 1.81881 37.5937 1.85325 38.2512C1.89552 38.8774 1.89552 39.4175 1.89552 42.4405V45.8548C1.89552 47.713 1.89552 49.2551 1.79846 50.0613C1.71549 50.6217 1.62156 51.0538 1.22706 51.1289C1.05642 51.1665 0.823161 51.2088 0.646261 51.2088C0.524153 51.2088 0.492843 51.2604 0.489712 51.3231C0.492843 51.442 0.586772 51.4734 0.80281 51.4734C1.09243 51.4734 1.54015 51.442 1.92996 51.442C2.34482 51.417 2.67044 51.417 2.70644 51.417C2.78628 51.417 3.33264 51.442 3.90404 51.4734C4.46136 51.4984 5.08755 51.536 5.30359 51.536C8.63808 51.536 10.2662 49.3819 10.2693 47.3045C10.2693 45.0361 8.34534 43.6647 6.90039 43.2154C7.8162 42.2651 8.73358 41.3149 8.73358 39.7291C8.73358 38.7584 8.03067 36.8157 4.82925 36.8157C3.93535 36.8157 3.17922 36.8752 2.70644 36.8752C2.61251 36.8752 1.39143 36.8157 0.514758 36.8157C0.298721 36.8157 0.20166 36.8579 0.20166 36.9754C0.20166 37.0489 0.278371 37.0865 0.35508 37.0865" fill="#B2A590"/>
<path d="M15.4808 41.5717C15.5716 41.3212 15.6749 41.3212 15.7736 41.5717L17.469 46.096C17.4862 46.1695 17.4862 46.2102 17.4095 46.2102H13.9435C13.8809 46.2102 13.8637 46.168 13.8809 46.096L15.4824 41.5717H15.4808ZM9.51629 51.2073C9.43958 51.2073 9.35974 51.2668 9.35974 51.3435C9.35974 51.4437 9.47872 51.475 9.69006 51.475C10.3961 51.475 11.2524 51.4186 11.4293 51.4186C11.6203 51.4186 12.5502 51.475 12.9635 51.475C13.1169 51.475 13.2171 51.4437 13.2171 51.3435C13.2171 51.2668 13.1795 51.2073 13.0402 51.2073H12.8868C12.594 51.2073 12.2982 51.0852 12.2982 50.7611C12.2982 50.4684 12.3999 50.0645 12.5486 49.6574L13.5302 47.0227C13.5678 46.9257 13.6273 46.8834 13.704 46.8834H17.66C17.7539 46.8834 17.7789 46.9084 17.8165 46.9836L19.3507 50.7627C19.4697 51.0335 19.2943 51.1666 19.1941 51.2041C19.1174 51.2464 19.0799 51.2464 19.0799 51.3231C19.0799 51.4171 19.3507 51.4171 19.6857 51.4421C20.8755 51.4734 22.1388 51.4734 22.3924 51.4734C22.5866 51.4734 22.7823 51.4421 22.7823 51.345C22.7823 51.248 22.6633 51.2057 22.5662 51.2057C22.3924 51.2057 22.1388 51.1854 21.8837 51.1118C21.5142 50.9897 21.0493 50.7815 20.4215 49.3099C19.3742 46.8114 16.6252 39.9968 16.3152 39.3049C16.1305 38.9323 16.0757 38.7021 15.9051 38.7021C15.7908 38.7021 15.7109 38.7961 15.4949 39.3393L11.4622 49.6574C11.135 50.4887 10.8016 51.0742 10.0172 51.1681C9.88575 51.1854 9.63057 51.2057 9.51316 51.2057" fill="#B2A590"/>
<path d="M19.8627 39.2875C20.002 39.2844 20.3323 39.3611 20.5859 39.5177C20.8959 39.7368 21.3061 40.0985 21.7099 40.7215C22.2939 41.5951 24.6155 45.2552 24.7517 45.5104C25.01 45.9737 25.1243 46.3072 25.1243 47.198V48.6147C25.1243 48.8856 25.1243 49.5791 25.082 50.2569C25.0476 50.7407 24.9223 51.0569 24.5779 51.1336C24.4245 51.168 24.2257 51.2103 24.0691 51.2103C23.9721 51.2103 23.9361 51.2839 23.9361 51.3418C23.9361 51.4467 24.0097 51.4749 24.2069 51.4749C24.7157 51.4749 25.8037 51.4185 25.8835 51.4185C25.9806 51.4185 27.0874 51.4749 28.0408 51.4749C28.2146 51.4749 28.3194 51.4185 28.3194 51.3465C28.3194 51.2839 28.2772 51.2103 28.1801 51.2103C28.0267 51.2103 27.6338 51.168 27.3974 51.1336C26.8964 51.0538 26.7821 50.7407 26.7399 50.2569C26.6804 49.5791 26.6804 48.8856 26.6804 48.6147V47.198C26.6804 46.6579 26.6005 46.1256 26.8964 45.5479C27.244 44.8482 29.6595 40.972 30.2231 40.3098C30.5988 39.8636 30.7491 39.6946 31.0825 39.4958C31.3534 39.3455 31.6852 39.2828 31.8794 39.2828C32.0187 39.2828 32.0985 39.1889 32.0985 39.1122C32.0985 39.0496 32.0015 39.0073 31.8794 39.0073C31.549 39.0073 30.328 39.0496 30.2059 39.0496C30.0697 39.0496 29.4685 39.0073 29.0161 39.0073C28.8423 39.0073 28.7453 39.0496 28.7453 39.1122C28.7453 39.1889 28.8423 39.2578 28.9989 39.3063C29.193 39.358 29.2744 39.4942 29.2744 39.7306C29.2744 39.9466 29.1946 40.2143 28.9785 40.5838C28.6685 41.1239 26.5223 44.6525 26.1732 45.3507L23.0547 40.2143C22.9357 39.9983 22.8246 39.8073 22.8246 39.574C22.8246 39.4378 22.895 39.358 23.0406 39.3063C23.1909 39.2437 23.3083 39.1874 23.3083 39.1294C23.3083 39.0496 23.2707 39.0073 23.0782 39.0073C22.4097 39.0073 21.7068 39.0496 21.5957 39.0496C21.5158 39.0496 20.2274 39.0073 19.9002 39.0073C19.7437 39.0073 19.6842 39.0496 19.6842 39.1294C19.6842 39.203 19.764 39.2828 19.858 39.286" fill="#B2A590"/>
<path d="M38.6876 50.2599C38.5968 50.7405 38.5655 51.0536 38.2352 51.1303C38.0786 51.1679 37.8657 51.207 37.7092 51.207C37.6121 51.207 37.5698 51.2837 37.5698 51.3385C37.5698 51.4466 37.6669 51.4747 37.8454 51.4747C38.1162 51.4747 38.4856 51.4606 38.8379 51.4466C39.1713 51.4184 39.4641 51.4184 39.5408 51.4184C40.0449 51.4184 40.6304 51.4466 41.4131 51.4606C42.2131 51.4982 43.1633 51.5123 44.3954 51.5123C45.3065 51.5123 45.3628 51.4607 45.4818 51.0708C45.6211 50.584 45.7354 49.6024 45.7354 49.4208C45.7354 49.258 45.6979 49.1766 45.6212 49.1766C45.5241 49.1766 45.4646 49.2674 45.4474 49.3848C45.3848 49.7183 45.2533 50.0627 45.0404 50.3147C44.6255 50.8016 43.8647 50.8188 42.9661 50.8188C41.6291 50.8188 40.9685 50.6998 40.6977 50.429C40.3768 50.1472 40.3392 49.1484 40.3392 46.7297V43.785C40.3392 41.2208 40.3392 40.7574 40.3595 40.2314C40.4018 39.6506 40.4957 39.4001 41.003 39.2984C41.1971 39.2811 41.4523 39.2561 41.5697 39.2561C41.6292 39.2561 41.7059 39.1997 41.7059 39.1449C41.7027 39.051 41.6088 39.0056 41.4303 39.0056C40.909 39.0056 39.6144 39.051 39.5408 39.051C39.4437 39.051 38.3714 39.0056 37.5918 39.0056C37.3976 39.0056 37.3209 39.051 37.3209 39.1449C37.3209 39.2044 37.3976 39.2811 37.4571 39.2811C37.6137 39.2811 37.9064 39.2984 38.041 39.3156C38.5984 39.3986 38.7017 39.671 38.744 40.2314C38.7815 40.7574 38.7815 41.2192 38.7815 43.785V46.6875C38.7815 48.278 38.7815 49.5789 38.6876 50.2584" fill="#B2A590"/>
<path d="M53.7821 46.2038H50.3129C50.2566 46.2038 50.2394 46.1725 50.2566 46.0926L51.8534 41.5715C51.9504 41.321 52.0475 41.321 52.1383 41.5715L53.84 46.0926C53.8572 46.1725 53.8572 46.2038 53.7805 46.2038M55.5777 51.2071C55.4947 51.2384 55.4587 51.2415 55.4587 51.3261C55.4587 51.42 55.7374 51.42 56.0646 51.4482C57.2512 51.4763 58.5208 51.4763 58.7713 51.4763C58.9623 51.4763 59.158 51.4482 59.158 51.3448C59.158 51.2415 59.0468 51.2086 58.9498 51.2086C58.7729 51.2086 58.5224 51.1883 58.2641 51.1147C57.8915 51.0036 57.4297 50.7813 56.8019 49.3128C55.7515 46.8143 53.0025 39.9997 52.6925 39.3078C52.5187 38.9352 52.4592 38.7051 52.2823 38.7051C52.1681 38.7051 52.0913 38.799 51.8753 39.3422L47.8426 49.6572C47.5154 50.4932 47.1773 51.074 46.3945 51.1742C46.2662 51.1883 46.0079 51.2086 45.8936 51.2086C45.8137 51.2086 45.7339 51.2681 45.7339 51.3448C45.7339 51.4497 45.856 51.4763 46.0673 51.4763C46.7702 51.4763 47.6266 51.42 47.8003 51.42C47.9992 51.42 48.9306 51.4763 49.3423 51.4763C49.4958 51.4763 49.5928 51.4482 49.5928 51.3448C49.5928 51.2681 49.5553 51.2086 49.4222 51.2086H49.2625C48.9698 51.2086 48.6786 51.0865 48.6786 50.7672C48.6817 50.4713 48.7788 50.0674 48.9322 49.6572L49.9059 47.0225C49.9404 46.9286 50.0061 46.8863 50.0828 46.8863H54.0357C54.1327 46.8863 54.1547 46.9114 54.1954 46.9834L55.7374 50.7656C55.8563 51.0364 55.6747 51.1726 55.5777 51.2071Z" fill="#B2A590"/>
<path d="M63.5821 41.8643C63.5821 43.0055 64.1848 44.0184 66.0383 45.3929L66.8148 45.9737C68.3318 47.1008 68.9752 47.6613 68.9752 48.8448C68.9752 50.0878 68.0954 51.0365 66.4031 51.0365C65.2587 51.0365 63.9672 50.6013 63.6995 49.4115C63.6369 49.1782 63.6369 48.9387 63.6369 48.8025C63.6369 48.6742 63.5805 48.6115 63.4803 48.6115C63.3801 48.6115 63.3441 48.7117 63.3441 48.8824C63.3269 49.1501 63.2471 49.8154 63.2471 50.6216C63.2471 51.0709 63.2643 51.1304 63.5007 51.2447C64.2036 51.5781 65.1961 51.694 65.9961 51.694C66.9322 51.694 68.0046 51.5797 68.7279 51.1101C69.9521 50.3164 70.3184 49.2722 70.3184 48.2984C70.3184 46.8817 69.5983 45.7436 67.5209 44.3284L67.0262 44.0012C65.3354 42.8568 64.8063 42.2572 64.8063 41.2036C64.8063 40.0373 65.8395 39.4252 67.0825 39.4252C68.6277 39.4252 69.1912 40.0373 69.3055 40.233C69.4073 40.4146 69.5419 40.8561 69.5591 41.058C69.5842 41.1864 69.5967 41.2631 69.7188 41.2631C69.83 41.2631 69.8503 41.1488 69.8503 40.8984C69.8503 39.7712 69.9301 39.228 69.9301 39.1544C69.9301 39.0574 69.8957 39.0323 69.7564 39.0323C69.617 39.0323 69.4809 39.0323 69.1537 38.9556C68.7388 38.8648 68.0578 38.7615 67.3753 38.7615C65.1131 38.7615 63.579 39.9278 63.579 41.8658" fill="#B2A590"/>
<path d="M71.3814 39.2843C71.5348 39.2843 71.8276 39.3093 71.9622 39.3218C72.5289 39.4017 72.6197 39.7148 72.662 40.233C72.7042 40.759 72.7042 41.2255 72.7042 43.7898V46.2053C72.7042 48.613 73.3649 49.7543 74.204 50.5307C75.411 51.6579 77.2066 51.6923 77.767 51.6923C78.783 51.6923 80.109 51.5608 81.3583 50.4916C82.7187 49.33 82.9519 47.3278 82.9519 45.5462V43.7882C82.9519 41.2239 82.9316 40.7574 82.9723 40.2314C83.0098 39.6913 83.1116 39.4173 83.5781 39.3203C83.7942 39.2827 83.885 39.2827 84.0024 39.2827C84.0853 39.2827 84.1448 39.2029 84.1448 39.1465C84.1448 39.0494 84.065 39.0072 83.8662 39.0072C83.3621 39.0072 82.5402 39.0494 82.4259 39.0494C82.3289 39.0494 81.3363 39.0072 80.5708 39.0072C80.383 39.0072 80.3031 39.0494 80.3031 39.1496C80.3031 39.2013 80.3626 39.2811 80.4425 39.2858C80.5959 39.2827 80.8886 39.3062 81.0201 39.3203C81.5837 39.4001 81.6855 39.7132 81.698 40.2314C81.7262 40.7574 81.7402 41.227 81.7402 43.7882V45.8546C81.7402 47.5454 81.5665 48.8964 80.7696 49.8498C80.1857 50.5464 79.1728 51.0114 78.1146 51.0114C77.1471 51.0114 76.4097 50.872 75.5706 50.1206C74.8286 49.4553 74.301 48.4706 74.301 46.091V43.7866C74.301 41.2223 74.3042 40.7558 74.3433 40.2298C74.3809 39.6897 74.4748 39.3986 74.9272 39.3187C75.1354 39.2811 75.2341 39.2843 75.3546 39.2811C75.4313 39.2811 75.508 39.2013 75.508 39.1449C75.508 39.0479 75.411 39.0087 75.2153 39.0056C74.7112 39.0056 73.6388 39.0479 73.4792 39.0479C73.3289 39.0479 72.2956 39.0056 71.5129 39.0056C71.3219 39.0056 71.2421 39.0479 71.2421 39.1481C71.2421 39.1997 71.3219 39.2796 71.3814 39.2796" fill="#B2A590"/>
<path d="M84.6425 51.4764C85.5223 51.4764 86.3411 51.4201 86.5117 51.4201C86.6824 51.4201 87.4682 51.4764 88.5829 51.4764C88.8161 51.4764 88.9304 51.4451 88.9304 51.3262C88.9304 51.2463 88.8709 51.2072 88.7707 51.2072C88.6001 51.2072 88.168 51.1821 87.797 51.0851C87.271 50.9317 87.0769 50.4307 87.0377 48.8433L86.7904 39.5521C87.4103 40.2519 89.6098 42.6987 91.8782 45.1206C93.9353 47.331 96.7438 50.1771 96.9582 50.3649C97.9883 51.4013 98.2216 51.6142 98.3781 51.6111C98.5175 51.6142 98.5488 51.5109 98.5488 50.2397L98.591 38.8774C98.591 37.7111 98.6677 37.2837 99.3143 37.1553C99.5507 37.0927 99.679 37.0927 99.7808 37.0927C99.917 37.0927 100 37.0411 100 36.9565C100 36.8344 99.8575 36.8203 99.6446 36.8203C98.8446 36.8203 98.2075 36.8798 97.9883 36.8798C97.7692 36.8798 96.8471 36.8203 95.9626 36.8203C95.7293 36.8203 95.5759 36.8344 95.5759 36.9565C95.5759 37.0395 95.5931 37.0927 95.7293 37.0959C95.8859 37.0927 96.3352 37.1131 96.6827 37.1867C97.2854 37.3463 97.4247 37.7675 97.4451 39.0277L97.6611 48.8793C97.0349 48.239 94.9121 45.8767 92.9834 43.8228C89.984 40.6213 87.0737 37.4998 86.7888 37.1694C86.5947 36.9784 86.2565 36.5542 86.1063 36.5542C85.9466 36.5542 85.8902 36.7671 85.8902 37.5217L85.8699 48.6304C85.8699 50.3947 85.7697 50.9583 85.2859 51.0866C84.9963 51.1837 84.6425 51.2087 84.4891 51.2087C84.3889 51.2087 84.3263 51.2463 84.3263 51.3277C84.3294 51.4639 84.4484 51.478 84.6425 51.478" fill="#B2A590"/>
</svg>
