<svg width="101" height="72" viewBox="0 0 101 72" fill="none" xmlns="http://www.w3.org/2000/svg">
<path d="M0 34.8172L0.754482 34.3894C0.880229 34.3139 13.2034 27.3051 27.2117 24.3481C26.9602 22.7753 26.6835 19.6421 27.5512 16.0811C28.444 12.4194 30.8457 8.69486 34.1529 5.87627C38.29 2.34044 43.6845 0.314577 49.7581 0.0251676C49.8335 0.0251676 50.1102 0 50.5755 0C52.4491 0 57.3406 0.289409 62.1567 2.95701C65.728 4.93254 68.5573 7.4114 70.5692 10.3307C73.2099 14.1685 74.3416 18.648 73.9392 23.6687C77.4224 24.5117 90.3115 27.8714 100.271 33.5211L101 33.9364L88.9283 71.6351L87.8846 71.2073C87.784 71.1695 77.6236 67.0171 62.9238 65.2807C58.9125 64.8151 54.876 64.576 50.9527 64.576C38.6043 64.576 26.256 66.9416 14.222 71.6099L13.2286 72L0 34.8172Z" fill="#13847F"/>
<path d="M72.8075 24.4614C74.153 12.8976 66.91 6.76966 61.6412 3.8504C55.7688 0.603986 49.8084 1.04439 49.8084 1.04439C36.7056 1.67354 30.0284 10.2803 28.5571 16.3202C27.3877 21.1269 28.4188 25.1534 28.4188 25.1534C13.9831 27.972 1.25747 35.2828 1.25747 35.2828L13.8322 70.6285C32.6691 63.3303 49.3054 62.6382 63.037 64.2489C78.0763 66.0105 88.2744 70.2384 88.2744 70.2384L99.7425 34.4145C88.1864 27.8462 72.8075 24.4614 72.8075 24.4614ZM84.7283 63.1416C80.0254 61.6945 72.6818 59.7945 63.6783 58.7375C59.4155 58.2342 55.1275 57.9825 50.9401 57.9825C39.6103 57.9825 28.2805 59.8448 17.1896 63.5316L8.09811 38.0007C12.7633 35.7609 20.8489 32.3006 29.4751 30.6019L36.0517 29.2933C36.0517 29.2933 34.5553 26.9151 33.7756 23.8071C33.7002 23.5177 33.1595 20.7746 33.9265 17.6414C34.1403 16.7732 35.0834 13.7281 38.4157 10.8843C41.4839 8.26704 45.4072 6.81999 50.0725 6.5935H50.1982C50.2485 6.5935 50.3743 6.58092 50.5629 6.58092C51.6317 6.58092 55.379 6.73191 58.9628 8.70745C61.6286 10.1797 63.716 11.979 65.1369 14.0552C66.1304 15.5023 66.8094 17.0751 67.1489 18.799C67.4633 20.3467 67.4381 22.4229 67.0609 24.1971C66.5453 26.7137 65.3004 28.8277 65.3004 28.8277L71.6003 29.8721C71.7261 29.8972 83.0433 32.439 93.0276 37.1828L84.7283 63.1416Z" fill="#F47E2D"/>
<path d="M81.4463 53.3771C81.1194 53.3771 80.8805 53.2639 80.7673 53.201C79.8997 52.7228 78.944 52.2824 78.944 52.2698C78.6925 52.1566 78.3404 51.9553 78.1015 51.5274C77.6236 50.6718 78.026 49.8413 78.2524 49.3883L78.3027 49.2751C78.5164 48.8221 78.6673 48.4824 78.7931 48.1552C78.944 47.7651 79.0697 47.3625 79.1703 46.9346C79.2709 46.532 79.3589 46.079 79.447 45.5631C79.5098 45.1353 79.5727 44.6697 79.6482 44.1161C79.6985 43.6505 79.7487 43.1723 79.799 42.6942C79.8368 42.2286 79.8745 41.7882 79.8997 41.3478C79.9248 40.9451 79.9374 40.5551 79.95 40.165C79.9625 39.8756 79.9625 39.5736 79.9625 39.259C79.9625 39.1332 79.9625 38.9948 79.9625 38.8689V38.7054C79.9625 38.6676 79.9625 38.5166 79.9625 38.4789C79.8997 37.7239 80.1637 37.2709 80.4026 37.0066C80.717 36.6543 81.1948 36.453 81.6978 36.453C81.7607 36.453 81.7984 36.453 81.8362 36.453C84.5774 36.6417 87.9726 38.1769 88.1109 38.2398L88.7522 38.5292L88.6768 39.2213C87.7588 47.3499 83.2445 52.1692 82.7415 52.6851C82.2511 53.2891 81.723 53.3771 81.4463 53.3771Z" fill="#F47E2D"/>
<path d="M87.7085 39.1458C87.7085 39.1458 84.3637 37.6232 81.7481 37.4471C81.7481 37.4471 80.805 37.3464 80.9182 38.4537C80.9182 38.5418 80.9182 38.6299 80.9182 38.7305C80.9182 38.9193 80.9182 39.0954 80.9182 39.2842C80.9182 39.5862 80.9056 39.9007 80.9056 40.2027C80.8931 40.6054 80.8679 41.008 80.8428 41.4107C80.8176 41.8637 80.7799 42.3293 80.7421 42.7823C80.7044 43.2604 80.6541 43.7511 80.5913 44.2293C80.5284 44.7326 80.4655 45.2234 80.3901 45.7141C80.3146 46.2048 80.2266 46.683 80.1008 47.1611C79.9877 47.6141 79.8493 48.0545 79.6859 48.4824C79.535 48.885 79.3589 49.2877 79.1703 49.6777C78.9691 50.093 78.6799 50.5837 78.9314 51.0367C79.032 51.2129 79.1703 51.301 79.3464 51.3765C79.3464 51.3765 80.3272 51.8294 81.2326 52.3328C81.2326 52.3328 81.5972 52.5593 81.9996 52.0559C82.0122 52.0811 86.7906 47.3499 87.7085 39.1458Z" fill="white"/>
<path d="M72.9584 50.4579C72.5686 50.4579 72.1536 50.4453 71.8518 50.4201C70.5315 50.3572 69.5255 50.1685 69.4123 50.1433C67.413 49.791 65.816 49.6148 64.6717 49.6022C64.5585 49.6022 64.4453 49.6022 64.3322 49.6022C63.4142 49.6022 62.7478 49.64 62.6597 49.6526C58.8999 50.0301 53.4425 50.0804 50.5251 50.0804C49.23 50.0804 48.3246 50.0678 48.136 50.0678C48.0731 50.0678 48.0228 50.0678 47.9725 50.0678C46.5012 50.0678 45.9983 48.9102 45.8222 48.4824C45.4575 47.6267 45.4701 46.6578 45.4953 46.3055C44.9168 41.7756 43.8606 36.2768 43.6845 35.4464C43.5839 34.9305 43.6845 34.4523 43.9737 34.0874C44.439 33.5211 45.1683 33.4582 45.4701 33.4582C45.4953 33.4582 45.5078 33.4582 45.5204 33.4582L52.2102 33.496L51.9461 34.6662C51.6569 35.9119 51.4934 39.0199 51.4557 40.1272C51.418 43.8266 51.8329 44.9591 52.1976 45.2611C52.2605 45.3114 52.3233 45.3492 52.3988 45.3744C52.6628 44.871 53.0652 44.4432 53.367 44.1538C53.5682 40.6306 52.7132 36.4907 52.6126 36.0378C52.3485 35.2073 52.5623 34.641 52.8012 34.3265C53.1533 33.8483 53.7568 33.5841 54.5113 33.5841C54.6245 33.5841 54.7251 33.5966 54.7754 33.5966C56.2718 33.6847 59.5915 33.7225 59.6167 33.7225L60.7861 33.7351L60.5346 34.8801C60.0316 37.2206 59.8304 39.0577 59.755 40.2657C61.4526 39.3848 63.0998 38.9193 64.5208 38.9193C66.2938 38.9193 67.7525 39.6491 68.7207 41.008C70.1417 43.0087 69.601 44.9591 68.6579 46.3558C68.7962 46.3558 68.9219 46.3558 69.0351 46.3558C70.5566 46.3558 70.9968 46.1545 71.0974 46.0916C71.0974 46.079 71.0974 46.079 71.0974 46.0664C71.1225 45.9406 71.1099 45.8022 71.0974 45.7518L71.0848 45.7141V45.6889C70.8459 44.2922 69.1734 37.208 69.0351 36.6166C68.9471 36.3397 68.7459 35.6225 69.1483 35.0185C69.5507 34.4145 70.2674 34.3642 70.5315 34.3516C70.6195 34.3516 70.7075 34.339 70.8081 34.339C71.1854 34.339 71.4997 34.3894 71.5626 34.402L77.2715 35.2576L77.4476 35.849C78.3278 38.7934 78.2524 42.7319 78.2524 42.8955V42.9081C78.1266 45.9406 77.6739 47.8029 76.7811 48.9605C75.75 50.2691 74.2662 50.4579 72.9584 50.4579ZM60.4717 44.8962C60.7987 44.9214 61.1005 44.9339 61.3897 44.9339C62.7352 44.9339 63.3891 44.6194 63.7663 44.3929C63.9298 44.2922 63.9675 44.0783 63.9298 43.9147C63.9046 43.8141 63.8543 43.6253 63.6531 43.6001C63.5651 43.5876 63.4519 43.575 63.3513 43.575C62.5843 43.575 61.6286 43.9776 60.7232 44.6823C60.6226 44.7578 60.5472 44.8333 60.4717 44.8962Z" fill="#F47E2D"/>
<path d="M76.5296 36.1007L71.4117 35.3457C71.4117 35.3457 71.0093 35.2828 70.5944 35.3079C70.0411 35.3457 69.6764 35.5093 69.9531 36.3523C69.9531 36.3523 71.7638 44.028 72.0279 45.5254C72.0279 45.5254 72.1159 45.8525 72.0405 46.2426C71.9147 46.8969 71.5123 47.6015 66.5202 47.1989C66.5202 47.1989 70.0662 44.5816 67.916 41.5617C65.9417 38.7683 62.0184 39.8127 58.749 41.9644C58.749 41.9644 58.5855 39.2842 59.5789 34.6788C59.5789 34.6788 56.1963 34.641 54.6748 34.553C54.6748 34.553 53.0401 34.3516 53.5179 35.7861C53.5179 35.7861 54.5993 40.6306 54.2724 44.6068C54.2724 44.6068 53.1658 45.5254 53.0778 46.2552C53.0778 46.2552 52.2856 46.5949 51.5689 46.0035C50.8521 45.3995 50.4371 43.9273 50.4748 40.1021C50.4748 40.1021 50.6257 36.0503 50.9904 34.4397L45.4953 34.4145C45.4953 34.4145 44.4264 34.3642 44.615 35.2576C44.8037 36.151 45.8725 41.7504 46.4509 46.2803C46.4509 46.2803 46.3503 47.287 46.7024 48.1049C46.9288 48.6334 47.2306 49.1744 48.1234 49.0989C48.1234 49.0989 57.1394 49.2248 62.5843 48.6837C62.5843 48.6837 63.4519 48.6208 64.6843 48.6334C66.1052 48.6459 67.916 48.8976 69.5884 49.187C69.5884 49.187 70.5818 49.3758 71.9021 49.4387C75.1967 49.6022 77.0326 49.3632 77.2841 42.82C77.2841 42.8452 77.3721 38.9318 76.5296 36.1007ZM64.2693 45.2108C63.5651 45.6386 62.3579 46.1042 59.8933 45.7896C59.8933 45.7896 58.0574 45.5379 60.1322 43.9147C61.4903 42.8578 62.8609 42.4677 63.8292 42.6438C65.0364 42.8829 65.2878 44.5942 64.2693 45.2108Z" fill="white"/>
<path d="M40.063 36.8053C41.6673 36.8053 42.9678 35.504 42.9678 33.8986C42.9678 32.2933 41.6673 30.992 40.063 30.992C38.4587 30.992 37.1582 32.2933 37.1582 33.8986C37.1582 35.504 38.4587 36.8053 40.063 36.8053Z" fill="#F47E2D"/>
<path d="M41.9895 34.1995C42.1538 33.135 41.4245 32.1387 40.3607 31.9744C39.2968 31.81 38.3013 32.5397 38.137 33.6043C37.9727 34.6688 38.702 35.6651 39.7658 35.8295C40.8297 35.9938 41.8253 35.2641 41.9895 34.1995Z" fill="white"/>
<path d="M28.4062 45.5253C27.2745 45.5253 26.2811 44.9339 25.841 43.9902C25.1746 42.5935 25.9039 40.8445 27.4506 40.1021C27.9158 39.8882 28.4188 39.7623 28.9092 39.7623C30.041 39.7623 31.0344 40.3537 31.4745 41.2975C32.1409 42.6942 31.4116 44.4432 29.8649 45.1856C29.4122 45.3995 28.8967 45.5253 28.4062 45.5253Z" fill="#F47E2D"/>
<path d="M29.4545 44.315C30.5331 43.8014 31.0519 42.6372 30.6132 41.7147C30.1745 40.7923 28.9445 40.4608 27.8659 40.9744C26.7872 41.4881 26.2684 42.6522 26.7071 43.5747C27.1458 44.4972 28.3758 44.8286 29.4545 44.315Z" fill="white"/>
<path d="M37.6864 50.7976C36.957 50.7976 36.3786 50.5837 36.0014 50.1685C35.6618 49.8036 35.5613 49.3632 35.5613 49.036C35.5487 48.281 35.4858 46.3558 35.4607 45.928C35.3978 45.022 35.9636 44.418 36.5547 44.2922C40.3522 43.4114 39.5223 38.4663 39.4846 38.2649L39.2959 37.1702L40.4151 37.1451L42.4648 37.0947L42.6282 37.8749C44.2001 45.173 43.8857 48.3943 41.4965 49.7784C40.5786 50.3069 39.4971 50.5586 38.6546 50.7221C38.3025 50.7599 37.9756 50.7976 37.6864 50.7976Z" fill="#F47E2D"/>
<path d="M41.6726 38.051L40.4151 38.0888C40.4151 38.0888 41.5091 44.1412 36.7433 45.2234C36.7433 45.2234 36.3535 45.2989 36.3912 45.8525C36.4289 46.4062 36.4918 49.036 36.4918 49.036C36.4918 49.036 36.4038 50.1307 38.4409 49.7407C39.0444 49.6274 40.1384 49.4009 40.9809 48.9102C42.7163 47.9287 43.2947 45.5631 41.6726 38.051Z" fill="white"/>
<path d="M20.3459 53.201C18.7489 53.201 16.9381 52.4083 16.1333 50.999C15.2028 49.338 15.8441 47.4631 16.6741 45.9154C17.3405 44.6697 18.2082 43.2982 19.0255 42.1531C18.8621 42.3796 17.5669 42.6438 17.3028 42.669C15.2028 42.8452 15.3537 40.2405 15.6429 38.8438C16.0453 36.9437 17.4788 35.3331 19.1764 34.5152C20.9369 33.6596 22.9237 33.1562 24.8602 32.9046C26.2183 32.7284 27.6015 32.6529 28.9595 32.6529C29.1607 32.6529 29.3619 32.6529 29.5757 32.6529C30.632 32.6655 31.6882 33.1562 32.2793 33.8986C32.7948 34.5404 33.2475 35.7735 33.0966 36.7802C33.0086 37.359 32.7319 37.812 32.2918 38.1139C31.7511 38.4789 31.135 38.5292 30.6445 38.5669C30.4434 38.5795 30.2673 38.5921 30.129 38.6299C29.538 38.7683 28.9092 38.9948 28.1422 39.3471C27.6769 39.561 27.2368 39.7875 26.8093 40.0266C24.156 41.5114 22.5464 43.8266 23.0494 45.3995C23.0746 45.4499 23.2003 45.6889 23.6153 45.8903C23.8919 46.0287 24.7093 46.2552 25.9668 46.2552C27.3374 46.2552 30.0284 45.9658 32.6188 43.9902L34.1655 42.82V50.9738L32.908 50.5586C32.908 50.5586 32.4679 50.4327 31.6882 50.4327C30.8709 50.4327 29.538 50.5837 27.8655 51.3009C26.8344 51.7414 23.2255 53.201 20.3836 53.2136C20.3962 53.201 20.3459 53.201 20.3459 53.201Z" fill="#F47E2D"/>
<path d="M20.8237 40.618C20.8237 40.618 18.3968 42.2915 17.1896 41.612C16.7747 41.3729 16.498 40.8571 16.5106 39.8882C16.5357 38.3908 17.1393 37.1073 18.4471 36.1007C20.4213 34.5781 24.3572 33.5212 29.5757 33.6092C30.2799 33.6218 31.0972 33.9364 31.5373 34.49C32.0152 35.094 32.5811 36.755 31.7637 37.3086C31.2481 37.661 30.5188 37.5477 29.9278 37.6861C29.1859 37.8623 28.4691 38.1391 27.7649 38.4663C27.2871 38.6802 26.8218 38.9193 26.3566 39.1835C23.4644 40.8067 21.4273 43.4995 22.1692 45.7141C22.1692 45.7141 22.3578 46.3181 23.2255 46.7459C24.5207 47.375 29.1482 47.8658 33.2349 44.7452V49.64C33.2349 49.64 31.0092 48.9102 27.5134 50.4076C26.0422 51.0367 22.8608 52.2321 20.3962 52.2447C17.001 52.2698 13.719 49.1996 20.7357 41.0835C20.7231 41.0835 21.5153 40.2279 20.8237 40.618Z" fill="white"/>
<path d="M32.6188 14.5837C32.0278 14.5082 31.4242 15.0115 31.4745 15.6407C31.5122 16.0811 31.6631 16.5467 31.9146 16.899C32.0781 17.1255 32.1409 17.3646 32.1535 17.6414C32.1535 17.9434 32.0906 18.2328 31.99 18.5222C31.5499 19.8434 30.5817 20.309 29.626 17.1129C28.6703 13.9168 31.2859 9.75184 33.0966 12.4823C33.4236 12.9731 34.3415 14.4075 33.2349 14.6089C33.0337 14.6466 32.8325 14.6089 32.6188 14.5837Z" fill="white"/>
<path d="M58.7641 27.7655C63.4046 23.1218 63.4046 15.593 58.7641 10.9493C54.1235 6.30566 46.5996 6.30566 41.959 10.9493C37.3184 15.593 37.3184 23.1218 41.959 27.7655C46.5996 32.4092 54.1235 32.4092 58.7641 27.7655Z" fill="#F47E2D"/>
<path d="M58.4173 27.4185C62.8664 22.9665 62.8664 15.7483 58.4173 11.2963C53.9682 6.8443 46.7548 6.8443 42.3058 11.2963C37.8567 15.7483 37.8567 22.9665 42.3058 27.4185C46.7548 31.8705 53.9682 31.8705 58.4173 27.4185Z" fill="white"/>
<path d="M57.7771 26.7779C61.8726 22.6797 61.8726 16.0351 57.7771 11.9369C53.6816 7.83872 47.0415 7.83872 42.9459 11.9369C38.8504 16.0351 38.8504 22.6797 42.946 26.7779C47.0415 30.8761 53.6816 30.8761 57.7771 26.7779Z" fill="#E82427"/>
<path d="M45.2963 14.2008L44.9677 14.7063L44.3146 14.5672L43.7164 15.4871L44.1154 16.0172L43.7949 16.5101L42.0777 14.1165L42.3972 13.6251L45.2963 14.2008ZM43.8301 14.464L42.7704 14.2256L43.4218 15.092L43.8301 14.464Z" fill="white"/>
<path d="M48.6897 12.461L48.2796 10.217L47.4787 10.3636L47.3952 9.90667L49.5401 9.51405L49.6236 9.97095L48.8245 10.1172L49.2346 12.3612L48.6897 12.461Z" fill="white"/>
<path d="M51.0215 10.7543L50.5315 10.6024C50.6126 10.4074 50.7279 10.2699 50.8773 10.1898C51.0267 10.1097 51.237 10.0863 51.5081 10.1196C51.7544 10.1498 51.9341 10.2019 52.0474 10.2756C52.1608 10.3481 52.2362 10.4325 52.2736 10.5289C52.3125 10.6242 52.3172 10.7917 52.2878 11.0316L52.2028 11.6757C52.1803 11.8592 52.1722 11.9959 52.1784 12.0858C52.1862 12.1746 52.2081 12.2717 52.2444 12.3773L51.6982 12.3102C51.6883 12.2718 51.6773 12.2152 51.6652 12.1405C51.66 12.1066 51.6561 12.0842 51.6535 12.0732C51.5479 12.1534 51.4386 12.2098 51.3256 12.2425C51.2125 12.2752 51.0951 12.2841 50.9733 12.2691C50.7585 12.2427 50.596 12.1636 50.4859 12.0316C50.3771 11.8999 50.3336 11.7448 50.3555 11.5666C50.3699 11.4486 50.4109 11.3472 50.4785 11.2624C50.5463 11.1763 50.6335 11.1151 50.7403 11.079C50.8486 11.0418 51.0006 11.0165 51.1963 11.0033C51.4603 10.9865 51.6447 10.9632 51.7493 10.9335L51.7561 10.8785C51.7691 10.7723 51.7522 10.6937 51.7052 10.6427C51.6585 10.5904 51.5624 10.5553 51.417 10.5375C51.3188 10.5254 51.2397 10.5357 51.1799 10.5682C51.1202 10.5995 51.0674 10.6615 51.0215 10.7543ZM51.7052 11.2933C51.6316 11.3082 51.5162 11.3226 51.3589 11.3366C51.2016 11.3505 51.0975 11.3703 51.0465 11.396C50.9682 11.4383 50.9242 11.4987 50.9145 11.5774C50.9051 11.6547 50.9257 11.7251 50.9764 11.7885C51.0271 11.852 51.097 11.8892 51.1861 11.9001C51.2856 11.9123 51.3846 11.8912 51.483 11.8368C51.5559 11.7952 51.6073 11.7396 51.6371 11.6701C51.6573 11.6247 51.6755 11.5358 51.6917 11.4034L51.7052 11.2933Z" fill="white"/>
<path d="M55.9477 12.8936L55.631 12.4898C55.8084 12.3756 55.9814 12.328 56.1498 12.3471C56.3182 12.3663 56.5045 12.4666 56.7087 12.6483C56.8941 12.8133 57.0124 12.9583 57.0636 13.0835C57.1158 13.2076 57.1299 13.32 57.1058 13.4205C57.0837 13.521 56.9924 13.6615 56.8319 13.8421L56.396 14.3236C56.2732 14.4618 56.1889 14.5696 56.143 14.6472C56.0989 14.7246 56.0618 14.817 56.0316 14.9245L55.6204 14.5586C55.6341 14.5213 55.6572 14.4685 55.6896 14.4002C55.7047 14.3694 55.7142 14.3487 55.7182 14.3382C55.5859 14.3441 55.4639 14.3283 55.3523 14.2909C55.2408 14.2535 55.1391 14.1939 55.0474 14.1123C54.8857 13.9684 54.797 13.8109 54.7814 13.6397C54.7667 13.4694 54.819 13.3171 54.9383 13.1829C55.0172 13.0941 55.1086 13.034 55.2124 13.0027C55.317 12.9703 55.4235 12.9697 55.5319 13.0007C55.6422 13.0317 55.7816 13.0974 55.9501 13.1979C56.1768 13.3343 56.3417 13.42 56.4447 13.4551L56.4815 13.4137C56.5525 13.3337 56.5832 13.2594 56.5736 13.1908C56.5648 13.1211 56.5057 13.0376 56.3963 12.9402C56.3223 12.8744 56.2515 12.8379 56.1837 12.8306C56.1169 12.8224 56.0382 12.8434 55.9477 12.8936ZM56.204 13.726C56.1349 13.6964 56.0317 13.6425 55.8945 13.5645C55.7571 13.4866 55.6602 13.4436 55.6037 13.4357C55.5152 13.4259 55.4447 13.4506 55.3921 13.5098C55.3404 13.5681 55.3173 13.6377 55.323 13.7187C55.3287 13.7998 55.3651 13.8701 55.4321 13.9298C55.5071 13.9965 55.6005 14.0355 55.7124 14.0467C55.796 14.0539 55.8698 14.0374 55.9338 13.9972C55.9762 13.9713 56.0417 13.9085 56.1303 13.8089L56.204 13.726Z" fill="white"/>
<path d="M58.8205 14.2145L59.2554 13.9536L59.5373 14.4239L59.1024 14.6848L58.8205 14.2145ZM58.8615 14.8293L57.1403 15.8619C56.9139 15.9977 56.7454 16.0783 56.6348 16.1037C56.5238 16.1309 56.4166 16.1178 56.3134 16.0644C56.2108 16.0122 56.1205 15.9208 56.0422 15.7902C56.0142 15.7434 55.9882 15.6899 55.9644 15.6299C55.9401 15.5716 55.9176 15.5063 55.8968 15.4337L56.3474 15.2749C56.3563 15.2999 56.3657 15.3231 56.3755 15.3445C56.3835 15.3655 56.3926 15.3844 56.4026 15.4011C56.4313 15.4491 56.4653 15.4818 56.5046 15.4992C56.5434 15.5184 56.5803 15.5243 56.6153 15.517C56.6503 15.5096 56.7403 15.4625 56.8852 15.3755L58.5797 14.359L58.8615 14.8293Z" fill="white"/>
<path d="M52.6081 12.4855L52.806 12.0996L53.9198 11.6539C54.1024 11.5814 54.2354 11.5317 54.3189 11.5048C54.2595 11.4788 54.1826 11.4423 54.0881 11.3952L53.4258 11.0597L53.6363 10.649L55.1827 11.4428L55.0029 11.7936L53.865 12.2514L53.4731 12.3953C53.6147 12.4576 53.7019 12.4971 53.7348 12.514L54.501 12.9073L54.2778 13.3426L52.6081 12.4855Z" fill="white"/>
<path d="M45.7278 13.958L43.911 11.846L44.3155 11.4975L46.1324 13.6095L45.7278 13.958Z" fill="white"/>
<path d="M46.1715 12.6216L45.8726 12.179L46.7414 11.5915L47.0403 12.0341L46.1715 12.6216Z" fill="white"/>
<path d="M42.5976 21.6897L42.4499 20.8661L41.9219 20.9583L42.0454 21.6467C42.0568 21.7105 42.0508 21.7605 42.0272 21.7965C42.0048 21.8333 41.9697 21.8559 41.9218 21.8643C41.8739 21.8726 41.833 21.8633 41.7991 21.8363C41.7653 21.8094 41.7427 21.7644 41.7314 21.7015L41.6079 21.0132L40.9278 21.1319C40.8414 21.147 40.7736 21.1385 40.7243 21.1065C40.6761 21.0752 40.6465 21.0291 40.6356 20.9681C40.6244 20.9061 40.6365 20.8518 40.6716 20.805C40.707 20.7591 40.7673 20.7287 40.8528 20.7138L42.441 20.4365C42.5011 20.426 42.5515 20.4264 42.5923 20.4377C42.6339 20.4488 42.6666 20.4716 42.6902 20.5062C42.715 20.5416 42.7326 20.5888 42.7433 20.6479L42.9201 21.6334C42.932 21.7 42.9258 21.7519 42.9015 21.789C42.8783 21.827 42.8428 21.8501 42.7949 21.8585C42.7461 21.867 42.7037 21.8574 42.6678 21.8298C42.633 21.803 42.6096 21.7563 42.5976 21.6897Z" fill="white"/>
<path d="M55.6184 26.6618C55.6558 26.7134 55.6834 26.7786 55.7012 26.8573C55.7192 26.9348 55.7218 27.0221 55.709 27.1191C55.6956 27.2154 55.6593 27.3117 55.6 27.4081C55.5407 27.5046 55.4542 27.5929 55.3405 27.6732C55.2543 27.734 55.17 27.7813 55.0877 27.8149C55.0053 27.8485 54.9229 27.8689 54.8403 27.8759C54.758 27.8817 54.6724 27.8736 54.5835 27.8517C54.5035 27.8313 54.4256 27.8006 54.3497 27.7595C54.2733 27.7176 54.2014 27.6665 54.134 27.6061C54.0673 27.5451 54.0049 27.4745 53.9467 27.3942C53.8521 27.2638 53.7864 27.1337 53.7495 27.0038C53.7134 26.8734 53.7046 26.7465 53.723 26.6233C53.741 26.4992 53.784 26.3842 53.8521 26.2783C53.9202 26.1723 54.0085 26.081 54.117 26.0044C54.2493 25.911 54.386 25.854 54.5273 25.8334C54.6685 25.8128 54.7946 25.8217 54.9057 25.8603C55.0163 25.898 55.0964 25.9512 55.1461 26.0197C55.1733 26.0573 55.184 26.0999 55.178 26.1475C55.1721 26.1951 55.1502 26.2323 55.1123 26.259C55.0699 26.2889 55.0308 26.3015 54.9948 26.2969C54.9596 26.2917 54.9113 26.2739 54.85 26.2437C54.7487 26.1938 54.6543 26.1697 54.5667 26.1714C54.4799 26.1725 54.3938 26.2033 54.3083 26.2636C54.1723 26.3596 54.1009 26.4874 54.0941 26.6469C54.0881 26.806 54.1535 26.9798 54.2902 27.1684C54.3816 27.2943 54.4755 27.3867 54.5721 27.4455C54.6681 27.5036 54.7638 27.5301 54.8591 27.5252C54.9544 27.5203 55.0459 27.4869 55.1336 27.425C55.2287 27.3578 55.2922 27.278 55.3239 27.1854C55.3559 27.0916 55.3557 26.9876 55.3235 26.8734C55.3066 26.8207 55.299 26.7737 55.3006 26.7325C55.3016 26.6906 55.3252 26.6533 55.3713 26.6208C55.4106 26.593 55.4543 26.5828 55.5023 26.5901C55.5504 26.5974 55.589 26.6213 55.6184 26.6618Z" fill="white"/>
<path d="M58.4282 24.2311C58.4651 24.2605 58.4978 24.3017 58.5261 24.3544C58.5543 24.4063 58.5735 24.4681 58.5836 24.54C58.5931 24.6115 58.5862 24.6876 58.5629 24.7683C58.5396 24.849 58.4952 24.9293 58.4298 25.0093C58.3802 25.0699 58.3293 25.1204 58.277 25.1608C58.2248 25.2011 58.1698 25.232 58.1122 25.2535C58.0545 25.2739 57.9916 25.2851 57.9237 25.2871C57.8624 25.2884 57.8006 25.2819 57.7382 25.2676C57.6752 25.2528 57.6137 25.2305 57.5535 25.2007C57.4937 25.1704 57.435 25.1323 57.3775 25.0864C57.284 25.012 57.2112 24.932 57.1591 24.8464C57.1074 24.7604 57.0759 24.6714 57.0647 24.5796C57.053 24.4874 57.0609 24.3967 57.0886 24.3074C57.1164 24.2181 57.1614 24.1353 57.2239 24.059C57.3 23.966 57.3865 23.8981 57.4834 23.8554C57.5804 23.8126 57.6724 23.794 57.7595 23.7995C57.8461 23.8046 57.9139 23.8267 57.963 23.8658C57.9899 23.8872 58.006 23.9156 58.0112 23.9508C58.0164 23.986 58.0081 24.0169 57.9863 24.0436C57.9619 24.0734 57.9364 24.0901 57.9097 24.0939C57.8835 24.0972 57.8455 24.0941 57.7956 24.0846C57.7133 24.0691 57.641 24.0706 57.5787 24.0892C57.5168 24.1072 57.4613 24.1463 57.4121 24.2064C57.3338 24.302 57.3081 24.4075 57.3349 24.5229C57.3621 24.6378 57.4433 24.7491 57.5785 24.8568C57.6688 24.9287 57.7543 24.9761 57.835 24.999C57.9152 25.0214 57.9889 25.0215 58.0561 24.999C58.1233 24.9766 58.1821 24.9346 58.2326 24.8729C58.2873 24.806 58.3169 24.7363 58.3213 24.6639C58.3255 24.5904 58.3048 24.5161 58.2591 24.4409C58.2366 24.4065 58.2218 24.3745 58.2148 24.3447C58.2072 24.3145 58.2167 24.2832 58.2432 24.2508C58.2659 24.2231 58.2951 24.2071 58.3309 24.2028C58.3667 24.1986 58.3991 24.208 58.4282 24.2311Z" fill="white"/>
<path d="M47.8132 28.5637L47.2307 28.3786C47.1466 28.3519 47.0925 28.3142 47.0682 28.2654C47.0451 28.2161 47.0469 28.1503 47.0737 28.0681L47.5404 26.6381C47.5678 26.5542 47.6056 26.4998 47.6539 26.475C47.7033 26.4497 47.7691 26.4501 47.8515 26.4762L48.4691 26.6724C48.5601 26.7013 48.6372 26.732 48.7003 26.7645C48.7634 26.7969 48.8161 26.8375 48.8585 26.8863C48.8949 26.9275 48.9236 26.9743 48.9447 27.0269C48.9661 27.0785 48.9777 27.1324 48.9796 27.1883C48.9817 27.2434 48.9737 27.2986 48.9556 27.354C48.8935 27.5443 48.7527 27.6533 48.5332 27.681C48.7578 27.8402 48.8325 28.0348 48.7574 28.2649C48.7227 28.3713 48.664 28.4587 48.5815 28.527C48.4992 28.5944 48.4051 28.6337 48.299 28.6449C48.233 28.6507 48.1607 28.6468 48.0819 28.6332C48.0033 28.6188 47.9138 28.5956 47.8132 28.5637ZM48.0603 27.7098L47.6585 27.5822L47.4773 28.1376L47.8921 28.2693C48.153 28.3522 48.3141 28.2998 48.3753 28.1121C48.4067 28.016 48.3956 27.9356 48.3421 27.8709C48.2886 27.8062 48.1947 27.7525 48.0603 27.7098ZM47.9092 26.8139L47.7487 27.3058L48.1024 27.4181C48.1986 27.4487 48.2757 27.4631 48.3336 27.4615C48.3924 27.4601 48.444 27.4383 48.4884 27.3961C48.522 27.3666 48.5461 27.3294 48.5607 27.2844C48.5921 27.1884 48.5786 27.1139 48.5203 27.061C48.4622 27.0073 48.363 26.9581 48.2226 26.9135L47.9092 26.8139Z" fill="white"/>
<path d="M49.9042 28.86L49.2939 28.8288C49.2058 28.8243 49.1437 28.8015 49.1076 28.7605C49.0724 28.7186 49.0571 28.6545 49.0617 28.5681L49.1407 27.0658C49.1453 26.9777 49.1677 26.9155 49.2078 26.8793C49.249 26.8422 49.3127 26.8259 49.3989 26.8303L50.0461 26.8634C50.1415 26.8683 50.2238 26.8784 50.2931 26.8938C50.3624 26.9092 50.4239 26.9351 50.4776 26.9716C50.5233 27.0022 50.5632 27.0402 50.5972 27.0857C50.6313 27.1303 50.6565 27.1794 50.6728 27.2331C50.6892 27.2859 50.6958 27.3413 50.6928 27.3995C50.6822 27.5994 50.5746 27.7407 50.3699 27.8231C50.628 27.9202 50.7507 28.0896 50.738 28.3313C50.7321 28.4431 50.6982 28.5425 50.6363 28.6296C50.5744 28.7157 50.4937 28.7776 50.3943 28.8154C50.3321 28.8377 50.2612 28.8523 50.1816 28.8592C50.1021 28.8651 50.0096 28.8654 49.9042 28.86ZM49.9209 27.971L49.4999 27.9495L49.4693 28.5329L49.9039 28.5552C50.1773 28.5692 50.3191 28.4775 50.3295 28.2803C50.3348 28.1795 50.3032 28.1045 50.2348 28.0554C50.1663 28.0064 50.0617 27.9782 49.9209 27.971ZM49.5424 27.1424L49.5152 27.6591L49.8858 27.6781C49.9866 27.6832 50.0648 27.6777 50.1203 27.6614C50.1767 27.6451 50.2208 27.6109 50.2527 27.5588C50.2774 27.5218 50.291 27.4796 50.2935 27.4324C50.2988 27.3315 50.2664 27.2629 50.1964 27.2265C50.1264 27.1892 50.0178 27.1668 49.8707 27.1592L49.5424 27.1424Z" fill="white"/>
<path d="M52.6137 28.4255C52.6776 28.4558 52.7467 28.4844 52.821 28.5114C52.8952 28.5374 52.9451 28.5598 52.9708 28.5786C52.9964 28.5966 53.0123 28.6256 53.0185 28.6656C53.023 28.694 53.0141 28.7245 52.9919 28.757C52.9706 28.7894 52.9412 28.8084 52.9039 28.8141C52.8737 28.8187 52.8353 28.8146 52.7886 28.8016C52.7429 28.7886 52.6878 28.7679 52.6233 28.7395C52.5596 28.7109 52.4892 28.677 52.4121 28.6378C52.2935 28.7233 52.1404 28.7803 51.9528 28.8088C51.8008 28.832 51.6606 28.8288 51.5322 28.7992C51.4045 28.7686 51.2927 28.7142 51.1967 28.636C51.1006 28.5569 51.0218 28.4579 50.9604 28.3389C50.8999 28.2198 50.8581 28.0864 50.835 27.9389C50.8114 27.7886 50.8112 27.6476 50.8342 27.5157C50.8582 27.3837 50.9041 27.2675 50.9721 27.167C51.0402 27.0666 51.1292 26.9843 51.2393 26.9202C51.3493 26.8552 51.4789 26.8113 51.6283 26.7885C51.831 26.7577 52.0112 26.7725 52.1691 26.8331C52.3277 26.8927 52.4562 26.9928 52.5547 27.1334C52.653 27.2732 52.7182 27.4453 52.7502 27.6497C52.7988 27.96 52.7533 28.2186 52.6137 28.4255ZM52.2692 28.2569C52.3144 28.1853 52.3432 28.1045 52.3554 28.0143C52.3686 27.9241 52.3663 27.822 52.3485 27.7082C52.326 27.5651 52.2835 27.4446 52.2209 27.3468C52.1582 27.2489 52.0796 27.1799 51.985 27.1397C51.8912 27.0985 51.7887 27.0863 51.6776 27.1032C51.5984 27.1153 51.5275 27.1416 51.4646 27.1821C51.4026 27.2216 51.3515 27.2735 51.3116 27.3379C51.2725 27.4021 51.2456 27.4808 51.2311 27.574C51.2173 27.6662 51.2191 27.7675 51.2363 27.8777C51.2716 28.1026 51.3512 28.268 51.4751 28.3738C51.599 28.4787 51.7409 28.5189 51.9009 28.4946C51.9667 28.4845 52.0321 28.4605 52.0971 28.4223C52.0505 28.3976 51.9931 28.3745 51.9251 28.353C51.858 28.3313 51.8116 28.3138 51.7859 28.3005C51.7601 28.2871 51.7448 28.2649 51.7399 28.2337C51.7357 28.2071 51.7432 28.1818 51.7622 28.158C51.7812 28.1342 51.8041 28.1202 51.8307 28.1161C51.9116 28.1038 52.0578 28.1507 52.2692 28.2569Z" fill="white"/>
<path d="M41.7112 23.3237C41.6094 23.2638 41.5253 23.1999 41.4588 23.1322C41.3935 23.0651 41.3408 22.9814 41.3007 22.8813C41.264 22.7899 41.2497 22.7024 41.2576 22.6187C41.2667 22.5356 41.2948 22.4633 41.3418 22.4017C41.3888 22.34 41.4486 22.2951 41.5211 22.2668C41.6189 22.2287 41.7147 22.227 41.8085 22.262C41.9022 22.2969 41.9826 22.3637 42.0494 22.4625C42.0637 22.4831 42.098 22.5346 42.1523 22.6172C42.2065 22.6997 42.2538 22.7698 42.2942 22.8276C42.3357 22.8859 42.3824 22.9482 42.4342 23.0146C42.5268 22.9735 42.5881 22.9274 42.6182 22.8764C42.6495 22.826 42.644 22.748 42.6018 22.6427C42.5655 22.5521 42.5255 22.4887 42.4817 22.4525C42.4382 22.4171 42.3845 22.3927 42.3206 22.3794C42.257 22.3669 42.2142 22.3569 42.192 22.3495C42.171 22.3426 42.1516 22.3169 42.1339 22.2725C42.1178 22.2324 42.1165 22.1927 42.13 22.1532C42.1447 22.1142 42.1721 22.0869 42.2123 22.0713C42.2752 22.0467 42.3452 22.0451 42.4224 22.0663C42.4996 22.0876 42.5762 22.1377 42.6524 22.2168C42.7285 22.2958 42.7946 22.4054 42.8508 22.5456C42.9136 22.7023 42.9441 22.8329 42.9425 22.9372C42.9418 23.0412 42.9085 23.1271 42.8428 23.195C42.7775 23.2638 42.6784 23.3241 42.5456 23.3759C42.4618 23.4086 42.3904 23.4359 42.3315 23.4578C42.273 23.4807 42.2078 23.5056 42.1358 23.5327C42.0686 23.5589 42.0026 23.5972 41.9379 23.6476C41.8745 23.6985 41.8323 23.728 41.8114 23.7362C41.7747 23.7505 41.7341 23.7462 41.6895 23.7233C41.6462 23.7009 41.6159 23.668 41.5984 23.6245C41.5838 23.5879 41.5863 23.5451 41.6061 23.4961C41.6267 23.4468 41.6618 23.3893 41.7112 23.3237ZM42.2193 23.0984C42.1792 23.0537 42.1281 22.9855 42.0662 22.8939C42.0055 22.8028 41.9622 22.7401 41.9363 22.7059C41.9114 22.6713 41.8771 22.6424 41.8334 22.6192C41.7907 22.5956 41.7431 22.594 41.6907 22.6145C41.6365 22.6356 41.5984 22.6741 41.5764 22.73C41.5552 22.7856 41.5579 22.8464 41.5844 22.9126C41.6126 22.9831 41.6539 23.042 41.7082 23.0893C41.7637 23.1372 41.8215 23.1655 41.8816 23.1742C41.9487 23.1853 42.0442 23.1667 42.1683 23.1183L42.2193 23.0984Z" fill="white"/>
<path d="M55.4081 25.4593L55.7613 25.8845C55.7632 25.8128 55.7713 25.7507 55.7856 25.6981C55.8006 25.6451 55.8244 25.5954 55.857 25.5492C55.889 25.5023 55.9294 25.4591 55.9782 25.4196C56.0517 25.3601 56.1296 25.3229 56.2118 25.308C56.2947 25.2924 56.3768 25.3009 56.4582 25.3334C56.5072 25.3511 56.5529 25.3784 56.5955 25.4154C56.6374 25.4517 56.6813 25.4975 56.7273 25.5528L57.1833 26.1018C57.2309 26.1592 57.2535 26.2135 57.2511 26.2646C57.2493 26.3152 57.2265 26.3582 57.1827 26.3936C57.0872 26.4708 56.9912 26.4513 56.8947 26.3352L56.4927 25.8512C56.4165 25.7595 56.3443 25.7003 56.2761 25.6736C56.2072 25.6463 56.1342 25.6637 56.0571 25.7261C56.0055 25.7678 55.971 25.8203 55.9537 25.8834C55.9365 25.9453 55.9385 26.0097 55.9599 26.0767C55.9798 26.1319 56.035 26.2142 56.1257 26.3234L56.4405 26.7023C56.4876 26.759 56.5105 26.813 56.5094 26.8643C56.5083 26.9142 56.4848 26.9578 56.4388 26.995C56.3433 27.0722 56.2473 27.0527 56.1508 26.9365L55.1184 25.6935C55.0702 25.6355 55.0465 25.5821 55.0475 25.5333C55.0485 25.4834 55.0717 25.4401 55.117 25.4035C55.1629 25.3663 55.2109 25.3521 55.2608 25.3609C55.3113 25.3691 55.3605 25.402 55.4081 25.4593Z" fill="white"/>
<path d="M42.3809 24.6833L42.6642 24.1L42.3841 24.0319L42.1269 24.1962C42.0644 24.2361 42.0054 24.2504 41.9498 24.2392C41.8955 24.2283 41.8545 24.2016 41.8267 24.1593C41.7943 24.1099 41.7854 24.0605 41.8001 24.011C41.8148 23.9616 41.8545 23.9162 41.9193 23.8748L43.299 22.9934C43.3709 22.9475 43.4344 22.9264 43.4896 22.9301C43.5455 22.9333 43.5902 22.9604 43.6236 23.0114C43.656 23.0608 43.6648 23.1109 43.6498 23.1616C43.6349 23.2123 43.5942 23.2589 43.5279 23.3013L42.7432 23.8025L43.3618 23.9198C43.4386 23.9342 43.4934 23.9476 43.5262 23.9601C43.559 23.9725 43.5865 23.9955 43.6086 24.0293C43.6348 24.0692 43.6437 24.1109 43.6351 24.1542C43.6273 24.197 43.604 24.2308 43.5653 24.2555C43.5179 24.2858 43.4261 24.2827 43.29 24.2461L43.0204 24.1763L42.715 24.8388C42.6923 24.8878 42.674 24.924 42.6601 24.9473C42.6475 24.9709 42.6322 24.9885 42.614 25.0001C42.5626 25.033 42.5127 25.0448 42.4641 25.0358C42.4169 25.027 42.3783 24.9999 42.3485 24.9544C42.3228 24.9152 42.3136 24.8782 42.3211 24.8434C42.3285 24.8086 42.3484 24.7552 42.3809 24.6833Z" fill="white"/>
<path d="M59.1716 23.256L58.5269 23.3172L58.6109 23.5862L58.8826 23.7172C58.9486 23.749 58.9908 23.791 59.0095 23.8432C59.0276 23.8942 59.0256 23.9421 59.0034 23.987C58.9775 24.0393 58.9396 24.072 58.8897 24.085C58.8398 24.098 58.7807 24.088 58.7122 24.055L57.2546 23.3522C57.1786 23.3156 57.1282 23.2733 57.1034 23.2253C57.0777 23.1769 57.0783 23.1256 57.105 23.0716C57.131 23.0193 57.1695 22.9864 57.2206 22.973C57.2717 22.9595 57.3324 22.9697 57.4025 23.0035L58.2314 23.4033L58.0177 22.8262C57.9911 22.7547 57.9748 22.7021 57.9688 22.6683C57.9627 22.6345 57.9686 22.5998 57.9863 22.564C58.0073 22.5217 58.0385 22.493 58.0801 22.478C58.1208 22.4627 58.1616 22.4648 58.2025 22.4846C58.2526 22.5087 58.2965 22.587 58.3343 22.7195L58.4114 22.9805L59.1352 22.8972C59.1888 22.8912 59.2292 22.888 59.2562 22.8877C59.2829 22.8861 59.3058 22.89 59.325 22.8992C59.3793 22.9254 59.4148 22.9611 59.4318 23.0063C59.4482 23.0502 59.4445 23.0963 59.4207 23.1445C59.4001 23.1861 59.373 23.2126 59.3393 23.2242C59.3057 23.2357 59.2498 23.2463 59.1716 23.256Z" fill="white"/>
<path d="M43.9682 24.7328L43.1184 25.4465C43.0595 25.496 43.003 25.5195 42.949 25.5172C42.8949 25.5148 42.8495 25.4923 42.8127 25.4497C42.776 25.4071 42.7614 25.3593 42.769 25.3064C42.7772 25.2542 42.81 25.204 42.8675 25.1557L43.7087 24.4492C43.7669 24.4004 43.8221 24.3767 43.8742 24.3782C43.9269 24.3805 43.9716 24.4029 44.0084 24.4455C44.0451 24.4881 44.0608 24.5357 44.0552 24.5881C44.0497 24.6405 44.0207 24.6887 43.9682 24.7328ZM44.1479 24.3338C44.113 24.2934 44.0956 24.248 44.0956 24.1978C44.0962 24.1483 44.1195 24.1042 44.1655 24.0656C44.2071 24.0306 44.2538 24.0166 44.3055 24.0234C44.3585 24.0303 44.4019 24.0532 44.4355 24.0923C44.468 24.1299 44.4846 24.1736 44.4853 24.2232C44.486 24.2728 44.463 24.3172 44.4163 24.3564C44.3711 24.3944 44.3233 24.4101 44.2729 24.4034C44.2233 24.3961 44.1816 24.3729 44.1479 24.3338Z" fill="white"/>
<path d="M56.8896 24.8794L57.6782 25.6604C57.7328 25.7146 57.7611 25.7683 57.763 25.8216C57.7649 25.875 57.7457 25.9214 57.7056 25.9608C57.6655 26.0003 57.6184 26.0183 57.5643 26.0149C57.5109 26.0108 57.4576 25.9824 57.4042 25.9296L56.6237 25.1565C56.5697 25.103 56.5415 25.0506 56.5389 24.9992C56.537 24.9472 56.5561 24.9014 56.5963 24.862C56.6364 24.8226 56.6832 24.8036 56.7366 24.805C56.79 24.8064 56.841 24.8312 56.8896 24.8794ZM56.4723 24.7333C56.4342 24.7708 56.3898 24.7914 56.339 24.7953C56.289 24.7985 56.2426 24.779 56.2 24.7367C56.1613 24.6985 56.1434 24.6536 56.1462 24.6023C56.1489 24.5496 56.1687 24.5052 56.2055 24.469C56.241 24.4342 56.2837 24.4145 56.3338 24.41C56.3839 24.4055 56.4306 24.4247 56.4739 24.4676C56.5159 24.5091 56.5355 24.555 56.5327 24.605C56.5292 24.6544 56.5091 24.6972 56.4723 24.7333Z" fill="white"/>
<path d="M44.4818 26.0214L43.9942 25.489C43.9322 25.5455 43.8883 25.607 43.8625 25.6735C43.8372 25.7407 43.8308 25.805 43.8431 25.8664C43.856 25.9286 43.8847 25.9839 43.9291 26.0324C43.959 26.065 43.9898 26.0912 44.0215 26.1112C44.0546 26.1313 44.0907 26.1467 44.13 26.1576C44.1699 26.1679 44.2091 26.1752 44.2474 26.1797C44.2857 26.1842 44.3365 26.189 44.3999 26.1941C44.4248 26.1972 44.4491 26.2118 44.4728 26.2377C44.4984 26.2656 44.5114 26.2951 44.5117 26.3262C44.5121 26.3572 44.4981 26.3854 44.4699 26.4106C44.445 26.4327 44.4069 26.4492 44.3556 26.4599C44.305 26.47 44.2463 26.4693 44.1794 26.4577C44.1138 26.4461 44.0439 26.4198 43.9695 26.3786C43.8957 26.3381 43.8238 26.2797 43.7538 26.2032C43.5937 26.0285 43.5197 25.8476 43.5317 25.6606C43.5437 25.4736 43.6361 25.303 43.809 25.1488C43.8904 25.0763 43.9767 25.0211 44.0679 24.9832C44.1597 24.9447 44.2516 24.9263 44.3434 24.9277C44.4351 24.9292 44.5249 24.9518 44.6126 24.9955C44.701 25.0387 44.7827 25.1011 44.8575 25.1828C44.955 25.2892 45.0155 25.4006 45.0392 25.5171C45.0641 25.6338 45.0579 25.7431 45.0207 25.8452C44.9834 25.9472 44.9274 26.0315 44.8528 26.0981C44.7835 26.1599 44.7205 26.1805 44.6637 26.1599C44.6076 26.1386 44.547 26.0925 44.4818 26.0214ZM44.1506 25.3496L44.6026 25.843C44.6907 25.7524 44.7378 25.6645 44.7441 25.5792C44.7516 25.4941 44.7228 25.4159 44.6576 25.3448C44.5955 25.277 44.5205 25.2425 44.4326 25.2412C44.3459 25.24 44.2519 25.2761 44.1506 25.3496Z" fill="white"/>
<path d="M59.1956 21.5241L58.9845 22.2146C59.065 22.2377 59.1407 22.2428 59.2115 22.23C59.2826 22.2164 59.3416 22.1883 59.3885 22.1458C59.4357 22.1025 59.4689 22.0494 59.4881 21.9864C59.501 21.9442 59.508 21.9044 59.5091 21.8671C59.5095 21.8287 59.5044 21.79 59.4937 21.7511C59.4821 21.7119 59.4684 21.6749 59.4527 21.6401C59.4369 21.6053 59.4151 21.5598 59.3871 21.5035C59.3771 21.4808 59.3772 21.4526 59.3875 21.419C59.3985 21.3828 59.4174 21.3564 59.4442 21.3399C59.4709 21.3234 59.5024 21.3205 59.5386 21.3313C59.5706 21.3408 59.6043 21.3645 59.6399 21.4024C59.6745 21.44 59.7039 21.4901 59.7281 21.5528C59.7517 21.6144 59.7647 21.6874 59.7671 21.7718C59.7698 21.8554 59.756 21.9467 59.7257 22.0459C59.6564 22.2726 59.5377 22.4296 59.3697 22.5169C59.2017 22.6042 59.0067 22.6149 58.7848 22.5488C58.6803 22.5177 58.5883 22.4734 58.5089 22.4159C58.4285 22.3581 58.3655 22.29 58.3198 22.2115C58.2741 22.133 58.2477 22.0452 58.2407 21.9481C58.2327 21.8507 58.245 21.7491 58.2774 21.643C58.3196 21.5051 58.3851 21.3957 58.4739 21.3149C58.562 21.233 58.6598 21.1812 58.7672 21.1596C58.8747 21.1379 58.9763 21.1414 59.0722 21.1699C59.1611 21.1964 59.2112 21.239 59.2224 21.2979C59.2328 21.3565 59.2238 21.4319 59.1956 21.5241ZM58.7837 22.1549L58.9794 21.5148C58.8559 21.4874 58.7556 21.4933 58.6787 21.5325C58.6011 21.5705 58.5482 21.6357 58.52 21.7279C58.4931 21.8158 58.5016 21.8974 58.5455 21.9725C58.5888 22.0465 58.6682 22.1073 58.7837 22.1549Z" fill="white"/>
<path d="M58.6882 20.525L58.732 20.5293C58.6543 20.4572 58.5998 20.3816 58.5685 20.3024C58.5364 20.2223 58.5253 20.1331 58.5352 20.0348C58.5449 19.9391 58.5744 19.8556 58.6237 19.7845C58.6729 19.7133 58.7375 19.6628 58.8174 19.6331C58.8641 19.6136 58.9135 19.6028 58.9656 19.6007C59.0177 19.5987 59.0836 19.6016 59.1633 19.6095L59.8381 19.676C59.9107 19.6832 59.9639 19.7054 59.9977 19.7428C60.0316 19.7792 60.0458 19.824 60.0404 19.8772C60.0349 19.9312 60.0115 19.9732 59.97 20.0031C59.9285 20.033 59.8723 20.0445 59.8015 20.0375L59.1971 19.9779C59.0775 19.9661 58.9846 19.9739 58.9183 20.0014C58.8512 20.0279 58.8127 20.0908 58.8026 20.19C58.796 20.2546 58.8096 20.3155 58.8431 20.3725C58.8758 20.4294 58.9246 20.4736 58.9894 20.505C59.0416 20.5281 59.1417 20.5469 59.2895 20.5614L59.7438 20.6062C59.8173 20.6135 59.8709 20.6362 59.9046 20.6744C59.9375 20.7117 59.9512 20.7573 59.9458 20.8114C59.9405 20.8636 59.9171 20.9047 59.8756 20.9346C59.8341 20.9646 59.7779 20.976 59.7071 20.969L58.659 20.8657C58.5899 20.8589 58.5401 20.8387 58.5095 20.8053C58.478 20.7718 58.4649 20.7289 58.4702 20.6766C58.4734 20.6447 58.4839 20.6167 58.5015 20.5925C58.5192 20.5683 58.5439 20.5501 58.5755 20.538C58.6072 20.525 58.6448 20.5207 58.6882 20.525Z" fill="white"/>
<path d="M45.8191 25.5914L45.5151 26.0468C45.5844 26.0273 45.6463 26.0165 45.7008 26.0143C45.7561 26.0127 45.8107 26.0202 45.8646 26.0369C45.9189 26.0529 45.9721 26.0778 46.0243 26.1117C46.1028 26.1628 46.1613 26.2244 46.1998 26.2967C46.2389 26.3694 46.2549 26.4486 46.2476 26.5342C46.245 26.5851 46.2322 26.6359 46.2092 26.6866C46.1867 26.7365 46.1557 26.791 46.1162 26.8502L45.7235 27.4383C45.6825 27.4997 45.6371 27.5369 45.5873 27.5497C45.5384 27.563 45.4904 27.5545 45.4436 27.524C45.3416 27.4577 45.3321 27.3624 45.4152 27.2379L45.7614 26.7196C45.8269 26.6214 45.8625 26.5365 45.8681 26.4648C45.8741 26.3925 45.836 26.3295 45.7537 26.276C45.6985 26.2402 45.6381 26.2235 45.5725 26.226C45.5082 26.2282 45.447 26.2492 45.3891 26.289C45.3419 26.3239 45.2793 26.3998 45.2012 26.5168L44.9302 26.9227C44.8896 26.9834 44.8446 27.0208 44.7951 27.0348C44.7469 27.0486 44.6982 27.0396 44.6491 27.0077C44.5471 26.9414 44.5377 26.846 44.6208 26.7216L45.5097 25.3903C45.5513 25.3281 45.5955 25.2902 45.6425 25.2766C45.6907 25.2628 45.739 25.2717 45.7874 25.3031C45.8365 25.335 45.8641 25.3755 45.8703 25.4247C45.8772 25.4744 45.8602 25.5299 45.8191 25.5914Z" fill="white"/>
<path d="M56.2304 20.7781C57.0118 17.5354 55.0182 14.2729 51.7777 13.491C48.5372 12.7091 45.2768 14.704 44.4955 17.9466C43.7141 21.1893 45.7076 24.4518 48.9481 25.2337C52.1886 26.0156 55.449 24.0207 56.2304 20.7781Z" fill="white"/>
<path d="M55.559 20.6059C56.2491 17.7343 54.4821 14.8465 51.6123 14.156C48.7425 13.4655 45.8567 15.2336 45.1666 18.1053C44.4765 20.977 46.2435 23.8648 49.1133 24.5553C51.9831 25.2458 54.8689 23.4776 55.559 20.6059Z" fill="#13847F"/>
<path d="M46.8785 17.654L46.0234 17.742L46.6521 17.1381C46.6521 17.1381 46.0108 16.7857 46.6144 16.2447C47.218 15.7036 47.2683 15.5778 47.4443 16.1314L47.5449 16.1943C47.5449 16.1943 48.2114 15.842 48.5132 16.446C48.815 17.05 48.6138 16.9116 48.224 17.2765C48.0354 17.4526 48.4629 17.6288 48.4629 17.6288C48.4629 17.6288 49.6701 18.4215 49.9593 18.7613H50.2988C50.2988 18.7613 50.2737 18.195 50.5755 17.6036C50.8898 17.0122 51.9209 16.2321 52.9772 16.3957C52.9772 16.3957 53.5682 16.4334 54.0964 16.7354C54.9766 17.2387 56.7999 20.1202 53.1155 21.5799C53.1155 21.5799 52.7006 21.6176 53.0149 21.1143C53.3293 20.6236 53.0024 20.4977 52.8515 20.3467C52.8515 20.3467 52.5623 20.0699 52.2982 20.6613L50.412 23.6435C50.412 23.6435 50.4245 24.172 50.0347 24.0084C49.6323 23.8448 49.7832 23.5932 50.0222 23.3541C50.2611 23.115 50.4246 22.8382 49.9216 22.5739C49.9216 22.5739 49.6198 22.3474 49.23 22.3978C49.0791 22.4103 48.6389 22.3978 48.1863 22.1713C47.3689 21.756 46.7527 20.7494 46.9539 19.8182C46.9791 19.6798 47.0168 19.554 47.0545 19.4282C47.0797 19.3401 47.2054 19.0758 47.1677 18.9878C47.1048 18.7864 46.7779 18.8242 46.6144 18.8619L46.2497 18.3964C46.2497 18.3964 46.3881 18.1195 46.8282 17.7924C47.0294 17.6791 46.8785 17.654 46.8785 17.654Z" fill="white"/>
<path d="M34.6056 7.1094C34.6056 7.1094 35.3223 6.12793 36.605 7.28556C36.605 7.28556 37.7115 8.45578 38.1642 8.99685C38.6169 9.53792 37.9001 10.1545 37.9001 10.1545C37.9001 10.1545 37.1582 11.0479 36.4666 9.76442C35.8882 8.68228 34.7313 8.06571 34.7313 8.06571C34.7313 8.06571 34.1529 7.78888 34.6056 7.1094Z" fill="white"/>
<path d="M45.4701 2.64243C45.4701 2.64243 45.1055 6.7445 39.4343 8.34254C39.4343 8.34254 38.7552 8.54387 38.4031 7.86438C38.051 7.1849 38.8181 6.89549 39.4468 6.55575C40.0882 6.21601 42.5905 4.94512 43.7851 2.49144C43.7851 2.49144 43.9486 1.72387 44.8917 1.79937C45.6462 1.86229 45.4701 2.64243 45.4701 2.64243Z" fill="white"/>
<path d="M55.0395 2.20203C55.0395 2.20203 55.8065 1.28347 56.2466 1.69871C56.6868 2.10136 56.146 2.26494 56.2089 2.70535C56.2718 3.14575 56.5233 4.42922 57.2903 3.71199C58.0574 2.99476 58.7364 2.01328 59.7801 2.93184C60.6478 3.68682 59.0634 4.0014 58.4472 4.4418C57.7304 4.95771 56.8879 5.53653 56.058 4.60538C56.0454 4.61797 54.2095 2.91926 55.0395 2.20203Z" fill="white"/>
<path d="M67.5764 8.5187C67.5764 8.5187 68.092 8.84586 67.6016 9.38693C67.0986 9.928 66.6459 10.4062 67.2495 11.1234C67.8531 11.8406 68.3561 11.2744 68.595 10.8843C68.8339 10.4942 69.3746 10.3181 69.8147 11.1611L70.0914 11.7274C70.0914 11.7274 70.5692 12.4824 69.4627 12.7969C68.3561 13.0989 66.3819 13.4764 65.313 11.8029C64.2441 10.1293 65.7908 8.34254 66.1555 7.91472C66.1555 7.91472 66.5202 7.4114 67.0483 7.91472C67.0609 7.91472 67.3375 8.20413 67.5764 8.5187Z" fill="white"/>
<path d="M91.7953 31.4953C91.7953 31.4953 91.2546 32.4768 91.2923 33.7099C91.2923 33.7099 91.3552 34.8424 90.3115 34.3139C89.2678 33.7854 89.8965 32.0993 90.2738 31.1681C90.6385 30.237 90.9528 30.1489 91.6193 30.2747C92.2983 30.4131 91.9085 31.2814 91.7953 31.4953Z" fill="white"/>
<path d="M95.4294 31.986C95.4294 31.986 96.209 32.2628 95.8318 32.9046C95.4546 33.5463 94.7881 33.5212 94.6372 33.5589C94.4863 33.5966 93.1282 34.0371 94.26 34.704C95.4043 35.3709 96.9761 34.0874 97.5042 33.5463C97.5042 33.5463 97.7683 33.1185 98.2839 33.5841C98.2839 33.5841 98.8749 33.9867 98.221 34.704C97.5671 35.4212 95.6055 37.4596 93.2666 35.4589C91.5564 33.9867 93.6061 32.2251 93.6061 32.2251C93.6061 32.2251 94.4234 31.4827 95.4294 31.986Z" fill="white"/>
<path d="M74.2913 65.0542C74.5177 64.6767 74.7943 64.3244 75.1213 64.0224C75.7877 63.4184 76.7057 62.9654 77.6236 62.9654C79.2332 62.9654 80.6793 63.9846 81.1068 65.5449C81.2451 66.0482 81.2577 66.6396 81.1823 67.1555C81.1697 67.2814 81.1068 67.4072 81.0188 67.4953C80.8302 67.7218 80.3775 67.6966 80.1134 67.6211C79.799 67.533 79.6984 67.1807 79.6733 66.8913C79.5853 65.7337 77.6614 64.1482 76.5799 64.8529C76.2907 65.0416 75.9763 65.4065 75.8506 65.7337C75.4985 66.6522 74.5303 66.1867 74.4548 66.1237C74.3919 66.086 73.8512 65.7714 74.2913 65.0542Z" fill="white"/>
<path d="M62.5214 60.8892C62.5214 60.8892 61.7921 60.323 61.2891 60.1217C60.7861 59.9203 60.3711 59.9077 59.4155 60.5243C58.4598 61.1409 57.3281 62.072 57.3281 62.072C57.3281 62.072 56.3975 62.8522 57.6047 63.6071C58.8119 64.3621 59.3149 64.1608 59.9184 63.5568C60.522 62.9528 62.4711 61.5058 62.4711 61.5058C62.4711 61.5058 62.9238 61.166 62.5214 60.8892Z" fill="white"/>
<path d="M47.8216 61.1157C47.8216 61.1157 49.821 61.015 50.0096 62.9151C50.0096 62.9151 49.6952 63.6449 50.9024 63.5946C52.1096 63.5442 52.0718 63.28 52.009 62.5376C51.9461 61.7952 51.3551 59.9077 47.5952 59.87C47.5952 59.87 44.3887 59.8574 44.4893 62.7892C44.4893 62.7892 44.4264 63.9343 45.6839 63.7707C46.9917 63.5946 46.5012 63.3429 46.4509 62.4873C46.3881 61.6064 47.0545 61.1534 47.8216 61.1157Z" fill="white"/>
<path d="M48.2743 64.1105C48.8785 64.1105 49.3683 63.6823 49.3683 63.1541C49.3683 62.626 48.8785 62.1978 48.2743 62.1978C47.6701 62.1978 47.1803 62.626 47.1803 63.1541C47.1803 63.6823 47.6701 64.1105 48.2743 64.1105Z" fill="white"/>
<path d="M28.6577 63.1541C28.6577 63.1541 29.3745 65.7085 27.2745 66.1489C25.1745 66.5893 24.2943 65.029 24.3572 64.2237C24.3572 64.2237 24.3572 63.3429 25.1117 63.1416C25.8662 62.9402 25.929 63.5694 26.0548 63.9091C26.1805 64.2489 26.3063 64.9409 27.0105 64.7522C27.526 64.6138 27.4003 64.0979 27.1865 63.7959C26.935 63.431 26.8596 63.0157 27.2871 62.7389C28.0542 62.2733 28.5446 62.5502 28.6577 63.1541Z" fill="white"/>
<path d="M22.9614 64.1356C22.9614 64.1356 22.8608 65.6456 23.4141 66.4383C23.9674 67.2185 23.2632 67.5205 22.7602 67.5456C22.2572 67.5834 21.4776 67.3065 21.4021 66.1741C21.3393 65.0542 21.3393 64.4125 21.3393 64.4125C21.3393 64.4125 21.2764 63.6449 22.2069 63.6449C23.1375 63.6449 22.974 63.8714 22.9614 64.1356Z" fill="white"/>
<path d="M17.7681 64.4502C17.7681 64.4502 18.7489 64.0853 18.8495 65.2933C18.9501 66.5012 19.4908 67.6589 19.4908 67.6589C19.4908 67.6589 19.9686 68.3887 19.0884 68.6529C18.2082 68.9172 18.1453 68.6152 17.9692 67.8224C17.8183 67.1555 17.7555 66.5264 17.5417 65.8721C17.3531 65.3562 16.9758 64.6641 17.7681 64.4502Z" fill="white"/>
<path d="M11.3801 32.3006C11.3801 32.3006 12.0591 33.0304 11.8831 34.8424C11.8831 34.8424 11.8705 35.4967 11.2041 35.5093C10.5376 35.5219 10.8268 35.1066 10.8897 34.5152C10.9526 33.9238 10.7388 32.4893 8.94061 32.0238C8.94061 32.0238 8.53822 31.8728 8.87774 31.4701C9.20468 31.0549 10.6256 31.2814 11.3801 32.3006Z" fill="white"/>
<path d="M7.38135 35.6728C7.38135 35.6728 7.65799 36.8808 6.84064 36.8682C6.02328 36.8556 5.60832 35.4338 6.23705 34.1503C6.65202 33.3072 7.88434 32.7662 8.76457 33.1185C9.05378 33.2317 9.35558 33.5086 9.38073 33.8357C9.40588 34.0874 9.35558 34.4145 9.09151 34.5278C8.95319 34.5907 8.81487 34.6033 8.68912 34.5152C8.48792 34.3768 8.42505 34.2384 8.13583 34.339C7.89691 34.4145 7.29333 34.9556 7.38135 35.6728Z" fill="white"/>
<path d="M21.1758 27.431C21.2009 27.5065 21.2261 27.5694 21.2512 27.6197C21.3141 27.7455 21.4021 27.8714 21.4776 27.9846C21.7291 28.3495 22.1315 28.6264 22.559 28.7648C22.8985 28.878 23.2758 28.878 23.6279 28.8277C25.5644 28.5634 25.6021 26.3614 25.6021 26.3614C25.6021 26.3614 25.6524 25.8203 24.9985 25.7574C24.3446 25.6945 24.2817 26.0972 24.156 26.4747C24.0303 26.8522 23.9548 27.431 23.4267 27.4184C22.886 27.4058 22.886 26.7137 22.886 26.7137C22.886 26.7137 22.8482 26.0972 22.0057 26.3488C21.7165 26.4369 21.3644 26.5627 21.2009 26.827C21.1003 26.978 21.1255 27.2296 21.1758 27.431Z" fill="white"/>
<path d="M28.6955 20.4096C28.6955 20.4096 30.2422 22.4103 31.5248 22.8633C31.5248 22.8633 32.0655 22.9514 32.0278 23.9958C31.99 25.0402 31.6379 25.1534 30.7703 24.625C29.9026 24.1091 28.2931 23.4044 28.1045 21.7938C27.8907 20.1957 28.1548 19.6798 28.6955 20.4096Z" fill="white"/>
<path d="M52.5245 1.01923C52.5245 1.01923 53.1533 0.981476 53.1784 1.93779C53.2036 2.90668 53.2161 3.78749 53.2161 3.78749C53.2161 3.78749 53.4173 4.78155 52.5371 4.81929C52.5371 4.81929 51.9084 4.93254 51.9084 3.66166C51.9084 2.39077 51.9335 1.45963 51.9335 1.45963C51.9335 1.45963 51.8958 1.00664 52.5245 1.01923Z" fill="white"/>
<path d="M72.0656 21.5295C71.9902 22.813 72.6063 24.1342 73.2979 25.166C74.0776 26.3488 75.1338 27.431 76.165 28.3999C76.165 28.3999 77.3721 29.5575 75.9386 29.8847C75.9386 29.8847 74.5303 30.1867 73.7003 29.1423C73.7003 29.1423 71.5626 27.4687 70.4435 25.0276C69.4878 22.9514 69.6387 20.5355 71.7261 17.6665C71.7261 17.6665 72.5686 16.5844 72.7698 17.9308C72.7698 17.9308 72.8704 19.4156 72.8704 19.4282C73.0087 20.5481 72.1411 20.2209 72.0656 21.5295Z" fill="white"/>
<path d="M87.8217 60.2097C87.8217 60.2097 87.3313 59.2912 88.4882 58.9263C89.645 58.5614 91.2798 58.8256 91.2798 58.8256C91.2798 58.8256 92.3863 58.9011 92.0091 59.9832C91.6319 61.0654 91.2295 60.776 90.739 60.5243C90.2486 60.2601 89.4061 60.1594 88.878 60.5872C88.3498 61.0025 87.9475 60.4488 87.8217 60.2097Z" fill="white"/>
<path d="M77.762 65.935C76.5045 65.6833 75.926 66.1867 75.6997 66.4509C76.7811 66.7026 77.8123 66.9542 78.7679 67.2059C78.8685 66.7151 78.7428 66.1237 77.762 65.935Z" fill="white"/>
<path d="M67.2621 63.8085C66.1555 63.6449 65.4262 64.1734 65.0992 64.5005C66.2561 64.6515 67.3753 64.8277 68.4692 65.0039C68.4567 64.576 68.2555 63.9595 67.2621 63.8085Z" fill="white"/>
<path d="M91.5815 46.2174C91.2169 47.979 91.9085 47.0856 91.9085 47.0856C93.8953 43.8266 95.7438 44.3929 96.4354 44.7704L97.215 42.3293C92.9522 42.2789 91.9336 44.5313 91.5815 46.2174Z" fill="white"/>
<path d="M91.4684 49.4261C91.1666 48.4194 90.9528 49.64 90.9528 49.64C90.4498 52.0937 91.4181 53.4149 92.2732 54.0692C92.6252 54.3335 92.9899 54.497 93.2917 54.5977L94.1719 51.8294C92.1977 51.8294 91.4684 49.4261 91.4684 49.4261Z" fill="white"/>
<path d="M93.6815 48.6334C93.6689 49.5897 94.1342 50.4453 94.4612 50.936L96.2342 45.4121C94.4863 45.9028 93.6941 47.6015 93.6815 48.6334Z" fill="white"/>
<path d="M79.9751 30.1992C79.8493 30.2496 79.6482 30.2747 79.5601 30.4006C79.3589 30.7026 80.302 30.9291 80.4529 30.9668C81.1697 31.1555 81.9242 31.3317 82.6661 31.2562C83.1188 31.2059 83.5715 31.0549 83.9613 30.8284C84.6906 30.4131 85.4199 29.6582 86.0613 28.3621C85.181 28.0475 84.3259 27.7581 83.496 27.4939C83.2571 28.123 82.4649 29.18 79.9751 30.1992Z" fill="white"/>
<path d="M61.8172 8.97169C62.446 9.39951 62.5717 9.17302 62.9364 8.48095C63.2382 7.93988 64.3447 6.69417 65.0489 6.06501C64.5962 5.71269 64.1435 5.38553 63.6909 5.08354C63.1879 5.59944 62.3076 6.5935 61.7292 7.86438C61.7166 7.87697 61.3142 8.63195 61.8172 8.97169Z" fill="white"/>
<path d="M87.7463 62.3614C86.9163 62.9528 86.4888 64.2615 86.7026 65.2555C86.8786 66.0986 87.6457 66.8536 88.3247 67.3317C88.5636 67.4953 88.8277 67.6211 89.0792 67.7344L90.7893 62.4118C89.9846 61.9336 88.8403 61.5813 87.7463 62.3614ZM89.5319 64.2363C89.5193 65.1045 88.9157 65.0793 88.9157 65.0793C88.9157 65.0793 88.1612 65.1926 88.2115 64.186C88.2618 63.1793 88.966 63.3051 88.966 63.3051C88.966 63.3051 89.5444 63.3681 89.5319 64.2363Z" fill="white"/>
<path d="M34.5301 62.7389C32.0026 62.978 30.2044 64.7522 29.2739 65.9224C32.8577 65.1171 36.3535 64.5509 39.7361 64.1608C38.4786 63.3681 36.6175 62.5376 34.5301 62.7389Z" fill="white"/>
<path d="M14.9262 62.9025C14.9262 62.1978 14.134 62.2356 14.134 62.2356C12.8388 62.1853 11.7448 62.6382 11.116 62.978L11.7951 64.8654C12.4364 64.3244 13.304 63.9217 13.9076 63.8085C14.4735 63.7078 14.9262 63.6071 14.9262 62.9025Z" fill="white"/>
<path d="M12.21 58.7249C13.3669 58.1587 13.128 57.4918 13.128 57.4918C13.128 57.4918 12.8513 56.3719 11.3172 56.9759C10.5753 57.2653 9.87114 57.6805 9.35558 58.0203L10.1981 60.3859C10.5125 59.87 11.1035 59.266 12.21 58.7249Z" fill="white"/>
<path d="M10.1604 48.1552C8.89031 44.3551 6.19933 43.7008 4.28797 43.7763L5.00473 45.777C6.03586 45.9154 7.87176 46.5068 8.76457 48.9353C9.75797 51.6533 8.72684 53.1003 7.88434 53.8553L8.84002 56.5607C9.88372 55.4911 11.707 52.7983 10.1604 48.1552Z" fill="white"/>
<path d="M3.94846 37.4722C4.72809 37.3464 4.53947 36.5159 4.53947 36.5159C4.40115 35.7987 4.48917 34.402 4.56462 33.5337C3.82271 33.8986 3.1814 34.2258 2.67841 34.5026C2.89218 36.6417 3.26942 37.5855 3.94846 37.4722Z" fill="white"/>
<path d="M19.8555 30.9165C20.1572 31.231 20.5722 31.4701 21.0249 31.4072C21.3267 31.3695 22.0435 31.2059 22.0057 30.7906C21.9932 30.6396 21.8548 30.4257 21.7417 30.3376C20.7986 29.5827 19.9812 28.1985 19.5788 27.4561C19.1513 27.5946 18.7363 27.733 18.3213 27.8714C18.4471 28.3244 18.6106 28.8529 18.6483 28.9535C18.9375 29.6078 19.3273 30.3754 19.8555 30.9165Z" fill="white"/>
<path d="M74.5931 57.3534C74.5931 56.8123 74.4171 56.0196 74.9075 55.6169C75.0207 55.5163 75.2093 55.4408 75.3728 55.4156C76.0769 55.2898 75.8883 56.0196 75.8632 56.2083C75.838 56.3971 75.7877 57.3534 75.8757 57.7686C75.8757 57.7686 76.0769 58.5488 75.3728 58.964C75.3728 58.964 74.9326 59.6183 72.9836 59.1024C72.9836 59.1024 72.3674 58.9388 71.2231 58.9766C71.2231 58.9766 70.6824 59.0269 70.6447 58.5613C70.6069 58.0958 71.3363 57.8441 71.8896 57.8567L72.2542 57.8315C72.2542 57.8315 71.877 55.0129 72.8955 55.0633C73.9141 55.101 73.1345 57.6428 73.1345 57.6428C73.1345 57.6428 72.6441 58.3474 74.1153 58.2342C74.7189 58.1713 74.5931 57.3534 74.5931 57.3534Z" fill="white"/>
<path d="M49.0036 53.9434C48.9282 53.4149 48.6515 52.6725 49.0665 52.2069C49.1671 52.0937 49.3431 51.993 49.494 51.9427C50.1731 51.7288 50.0725 52.4712 50.085 52.6473C50.0976 52.8235 50.1605 53.7672 50.3114 54.1573C50.3114 54.1573 50.6132 54.8997 49.9844 55.3904C49.9844 55.3904 49.6323 56.0825 47.6707 55.856C47.6707 55.856 47.042 55.7805 45.9354 55.9818C45.9354 55.9818 45.4072 56.1077 45.3192 55.6547C45.2186 55.2017 45.8977 54.8619 46.4384 54.799L46.7905 54.7235C46.7905 54.7235 46.036 52.0308 47.042 51.9301C48.0479 51.8294 47.633 54.409 47.633 54.409C47.633 54.409 47.2557 55.1639 48.6641 54.8494C49.2425 54.7235 49.0036 53.9434 49.0036 53.9434Z" fill="white"/>
<path d="M67.5639 55.7679C67.5639 55.7679 67.7776 54.7864 67.6896 53.7798C67.6896 53.7798 67.7273 53.2765 67.2495 53.2891C66.8471 53.3017 66.7717 53.805 66.7717 54.2705C66.7717 54.7361 66.7842 55.5288 66.6711 56.158C66.6711 56.158 66.0172 56.6362 65.992 56.762C65.992 56.762 65.5896 56.8123 65.1873 56.762C64.6717 56.6991 64.3196 56.5481 64.4705 55.7302L64.7849 54.2454C64.7849 54.2454 65.0112 53.2513 64.4076 53.0752C63.804 52.899 63.7789 53.3772 63.7663 53.4778L63.54 56.1706C63.54 56.1706 63.4771 56.5229 63.5148 56.9004C63.5651 57.4037 63.6028 57.5925 64.5208 57.7309C64.5208 57.7309 65.9417 57.8693 67.4004 57.7812C68.8968 57.7057 70.6069 57.303 70.7075 56.1454C70.7201 56.158 70.783 54.4467 67.5639 55.7679ZM68.7459 56.6865C68.7459 56.6865 67.7399 57.0262 67.6267 56.6865C67.5261 56.3971 68.5447 56.1328 68.5447 56.1328C68.5447 56.1328 69.5884 55.7679 69.5758 56.1706C69.5507 56.5229 68.7459 56.6865 68.7459 56.6865Z" fill="white"/>
<path d="M41.572 54.7235C41.5342 54.3712 41.4462 54.107 41.4462 54.107C41.4462 54.107 41.1821 52.3328 40.5157 52.597C39.7612 52.8864 40.3145 54.0818 40.3145 54.0818L40.5786 54.7487C40.7923 55.4408 39.6103 55.705 39.1199 55.7805C39.2959 55.5163 39.384 55.2394 39.3462 54.9123C39.3462 54.9123 39.0319 53.2262 36.2277 55.2143C36.2277 55.2143 36.2151 54.2202 35.9133 53.2513C35.9133 53.2513 35.8379 52.748 35.3852 52.8738C34.9954 52.9745 35.0457 53.4904 35.1463 53.9308C35.2469 54.3712 35.4355 55.1514 35.4607 55.7931C35.4607 55.7931 34.9451 56.3971 34.9325 56.5229C34.9325 56.5229 34.5679 56.6613 34.1655 56.6991C33.6499 56.7494 33.2978 56.6739 33.2601 55.8434L33.2349 54.3335C33.2349 54.3335 33.2349 53.3142 32.6188 53.2639C32.0026 53.2136 32.0781 53.6917 32.0906 53.7924L32.4553 56.4726C32.4553 56.4726 32.4805 56.8375 32.5936 57.1898C32.7445 57.668 32.82 57.8441 33.7379 57.7812C33.7379 57.7812 34.9074 57.6176 36.2906 57.2276C37.4978 56.8878 38.7049 56.611 39.9498 56.4222C40.063 56.4097 40.1762 56.3971 40.2893 56.3719C41.4211 56.1454 41.66 55.4533 41.572 54.7235ZM36.4918 56.0825C36.3283 55.8183 37.2463 55.3401 37.2463 55.3401C37.2463 55.3401 38.1642 54.7613 38.2397 55.1514C38.3025 55.5037 37.5732 55.8308 37.5732 55.8308C37.5732 55.8308 36.6804 56.3971 36.4918 56.0825Z" fill="white"/>
<path d="M63.0873 53.0626C63.1502 53.3771 62.8484 53.6917 62.4082 53.7672C61.9807 53.8553 61.5783 53.6666 61.5154 53.3646C61.4526 53.05 61.7544 52.7354 62.1945 52.6599C62.6346 52.5718 63.0244 52.748 63.0873 53.0626Z" fill="white"/>
<path d="M60.2202 54.0063C60.2831 54.3209 59.9813 54.6355 59.5412 54.7109C59.1137 54.799 58.7113 54.6103 58.6484 54.3083C58.5855 53.9937 58.8873 53.6791 59.3274 53.6036C59.7676 53.5156 60.1574 53.6917 60.2202 54.0063Z" fill="white"/>
<path d="M28.1296 56.1957C28.2931 56.46 28.117 56.8626 27.7398 57.0891C27.3625 57.3156 26.9224 57.2779 26.759 57.0136C26.5955 56.7494 26.7715 56.3467 27.1488 56.1202C27.526 55.8812 27.9661 55.9189 28.1296 56.1957Z" fill="white"/>
<path d="M60.4466 55.6421C60.4466 55.6421 61.7669 55.5037 62.446 54.497C62.4837 54.4341 62.5214 54.3838 62.5969 54.346C62.7729 54.258 62.9992 54.3838 63.037 54.5725C63.0747 54.799 62.9615 55.0633 62.8484 55.252C62.5088 55.8183 61.7166 56.7871 60.0819 56.9004C60.0819 56.9004 58.749 57.064 58.749 56.4348C58.7239 55.7679 60.4466 55.6421 60.4466 55.6421Z" fill="white"/>
<path d="M31.2859 54.1699C31.4493 54.4467 31.2733 54.8368 30.8835 55.0633C30.5062 55.2898 30.0661 55.252 29.9026 54.9752C29.7392 54.6984 29.9152 54.3083 30.305 54.0818C30.6948 53.8553 31.1224 53.9056 31.2859 54.1699Z" fill="white"/>
<path d="M29.6134 57.605C29.6134 57.605 30.7451 56.913 30.9338 55.7176C30.9463 55.6421 30.9589 55.5792 30.9966 55.5163C31.1224 55.3527 31.3865 55.3778 31.4871 55.5414C31.6128 55.7302 31.6254 56.0196 31.6002 56.2335C31.5373 56.9004 31.2356 58.1084 29.802 58.9137C29.802 58.9137 28.6703 59.6309 28.3937 59.0647C28.1045 58.4481 29.6134 57.605 29.6134 57.605Z" fill="white"/>
<path d="M23.8794 57.2653C23.8919 57.2527 23.9045 57.2275 23.9045 57.215C24.0177 57.0388 24.1812 56.8878 24.3446 56.762C24.4578 56.6739 24.5835 56.611 24.7219 56.5732C25.1871 56.46 24.9356 56.7494 24.7973 56.8878C24.659 57.0262 22.9991 58.8508 24.2943 59.7945C25.5769 60.7382 27.2871 59.3037 28.0793 58.3223C28.2051 58.1713 28.2302 57.9574 28.1548 57.7812C28.0542 57.5421 27.8404 57.5547 27.6266 57.6428C27.4632 57.7057 27.3248 57.8315 27.1865 57.9448C26.6081 58.4481 25.3506 59.2031 24.9985 58.4229C24.5961 57.5421 26.7087 56.1077 27.1865 55.6673C27.1865 55.6673 27.7901 55.1514 27.3123 54.7864C27.0608 54.5851 26.5955 54.648 26.3063 54.7109C25.7404 54.8242 25.2123 55.0759 24.747 55.4282C24.2943 55.7679 23.8919 56.1077 23.6404 56.6236C23.5524 56.7871 23.4895 56.9633 23.4267 57.1395C23.4267 57.1395 23.2883 57.4918 23.5398 57.5673C23.7285 57.605 23.8039 57.4037 23.8794 57.2653Z" fill="white"/>
<path d="M55.2407 53.2765C55.2532 53.2639 55.2658 53.2513 55.291 53.2387C55.467 53.1255 55.6682 53.0374 55.8694 52.9997C56.0077 52.9619 56.146 52.9493 56.2844 52.9745C56.7622 53.0626 56.4101 53.2262 56.2341 53.2891C56.0454 53.3646 53.8071 54.3838 54.6245 55.7679C55.4293 57.1521 57.567 56.5103 58.6735 55.9189C58.8496 55.8308 58.9502 55.6421 58.9502 55.4533C58.9502 55.1891 58.7616 55.1262 58.5227 55.1136C58.3466 55.1136 58.1706 55.1639 57.9945 55.2143C57.2652 55.4408 55.8065 55.6421 55.7939 54.7864C55.7688 53.8176 58.2837 53.3394 58.8873 53.1129C58.8873 53.1129 59.6418 52.8864 59.3526 52.3579C59.1891 52.0685 58.749 51.9427 58.4598 51.8923C57.8939 51.7791 57.3029 51.8043 56.7496 51.9301C56.1963 52.0559 55.6933 52.2195 55.2658 52.5844C55.1275 52.7102 55.0017 52.8361 54.8634 52.9745C54.8634 52.9745 54.5868 53.2513 54.8005 53.4149C54.964 53.5281 55.1149 53.3646 55.2407 53.2765Z" fill="white"/>
<path d="M42.6534 52.2698C42.6534 52.2698 43.1941 51.993 43.4707 53.352C43.7474 54.711 43.9486 55.3904 43.9486 55.3904C43.9486 55.3904 44.1246 55.9189 43.5965 56.0699C43.3198 56.1454 43.0684 55.8686 42.9552 55.6547C42.754 55.2394 42.6534 54.7487 42.5276 54.2957C42.4019 53.8301 42.3013 53.3394 42.3139 52.8487C42.339 52.5593 42.4145 52.3957 42.6534 52.2698Z" fill="white"/>
<path d="M51.5689 51.993C51.5689 51.993 52.1473 51.8672 52.0718 53.201C51.9964 54.5348 52.0215 55.2268 52.0215 55.2268C52.0215 55.2268 52.0593 55.7679 51.5186 55.7805C51.2419 55.7805 51.0659 55.4659 51.0281 55.2394C50.9527 54.799 50.9653 54.3209 50.9653 53.8679C50.9653 53.4023 50.9904 52.9116 51.1162 52.4586C51.1916 52.1943 51.3048 52.0559 51.5689 51.993Z" fill="white"/>
<path d="M51.8455 55.9944C51.9209 55.9567 51.9964 55.9315 52.0718 55.9063C52.1976 55.8686 52.3862 55.8938 52.4742 56.0196C52.6503 56.3216 52.1976 56.4348 52.1976 56.4348C52.1976 56.4348 51.9461 56.5229 52.1096 56.7242C52.3233 56.9759 52.3233 57.2276 51.6569 57.4037L51.2042 57.5295C51.2042 57.5295 50.7263 57.6931 50.6635 57.3911C50.6006 57.0891 51.0784 57.064 51.0784 57.064C51.0784 57.064 51.4557 57.0011 51.2042 56.6865C51.0156 56.4474 51.2671 56.2838 51.4557 56.1706C51.5814 56.1202 51.7072 56.0573 51.8455 55.9944Z" fill="white"/>
<path d="M47.1929 50.6215C47.1929 50.6215 47.394 50.6215 47.394 50.936C47.4066 51.2506 47.7587 51.2255 47.721 50.8983C47.6958 50.5711 47.8216 50.5334 47.9222 50.5334C47.9222 50.5334 48.1108 50.4956 48.0982 50.8102C48.0857 51.1248 48.4629 51.2506 48.4629 50.7347C48.4629 50.7347 48.4503 50.4956 48.6515 50.4831C48.8527 50.4831 48.9785 50.7976 48.727 51.3639C48.727 51.3639 48.5132 51.7288 48.1737 51.5526C47.8342 51.3764 47.5324 51.5904 47.5324 51.5904C47.5324 51.5904 47.13 51.8672 47.0168 51.2255C46.9288 50.6089 47.1677 50.6466 47.1929 50.6215Z" fill="white"/>
</svg>
