<svg width="20" height="20" viewBox="0 0 20 20" fill="none" xmlns="http://www.w3.org/2000/svg">
<path d="M20 0V20H0V0H20Z" fill="white" fill-opacity="0.01"/>
<path opacity="0.3" d="M9.64892 2.63167L3.98225 4.75667C3.59195 4.90304 3.33337 5.27616 3.33337 5.693V9.22239C3.33337 12.2526 5.0454 15.0227 7.75567 16.3778L9.77643 17.3882C9.9172 17.4586 10.0829 17.4586 10.2236 17.3882L12.2444 16.3778C14.9547 15.0227 16.6667 12.2526 16.6667 9.2224V5.693C16.6667 5.27616 16.4081 4.90304 16.0178 4.75667L10.3512 2.63167C10.1248 2.54678 9.8753 2.54678 9.64892 2.63167Z" fill="#27B588"/>
<path d="M10 2.50814V17.4917M7.75567 16.3778L9.77643 17.3882C9.9172 17.4586 10.0829 17.4586 10.2236 17.3882L12.2444 16.3778C14.9547 15.0227 16.6667 12.2526 16.6667 9.2224V5.693C16.6667 5.27616 16.4081 4.90304 16.0178 4.75667L10.3512 2.63167C10.1248 2.54678 9.8753 2.54678 9.64892 2.63167L3.98225 4.75667C3.59195 4.90304 3.33337 5.27616 3.33337 5.693V9.22239C3.33337 12.2526 5.0454 15.0227 7.75567 16.3778Z" stroke="#27B588"/>
</svg>
