<svg width="20" height="20" viewBox="0 0 20 20" fill="none" xmlns="http://www.w3.org/2000/svg">
<path d="M20 0V20H0V0H20Z" fill="white" fill-opacity="0.01"/>
<g opacity="0.3">
<path d="M6.66667 16.6666H3.33333V7.66658C3.33333 7.1143 3.78105 6.66659 4.33333 6.66659H6.66667V4.33325C6.66667 3.78097 7.11438 3.33325 7.66667 3.33325H12.3333C12.8856 3.33325 13.3333 3.78097 13.3333 4.33325V8.33325H15.6667C16.219 8.33325 16.6667 8.78097 16.6667 9.33325V16.6666H13.3333H6.66667Z" fill="#299FDA"/>
<path d="M2.5 16.6666H17.5M6.66667 16.6666V4.33325C6.66667 3.78097 7.11438 3.33325 7.66667 3.33325H12.3333C12.8856 3.33325 13.3333 3.78097 13.3333 4.33325V16.6666M13.3333 8.33325H15.6667C16.219 8.33325 16.6667 8.78097 16.6667 9.33325V16.6666M6.66667 6.66659H4.33333C3.78105 6.66659 3.33333 7.1143 3.33333 7.66659V16.6666M9.58333 6.66659H10.4167M9.58333 9.99992H10.4167M9.58333 13.3333H10.4167" stroke="#299FDA" stroke-width="2" stroke-linecap="round" stroke-linejoin="round"/>
</g>
<path d="M2.5 16.6666H17.5M6.66667 16.6666V4.33325C6.66667 3.78097 7.11438 3.33325 7.66667 3.33325H12.3333C12.8856 3.33325 13.3333 3.78097 13.3333 4.33325V16.6666M13.3333 8.33325H15.6667C16.219 8.33325 16.6667 8.78097 16.6667 9.33325V16.6666M6.66667 6.66659H4.33333C3.78105 6.66659 3.33333 7.1143 3.33333 7.66659V16.6666M9.58333 6.66659H10.4167M9.58333 9.99992H10.4167M9.58333 13.3333H10.4167" stroke="#299FDA" stroke-linecap="round" stroke-linejoin="round"/>
</svg>
