<svg width="20" height="20" viewBox="0 0 20 20" fill="none" xmlns="http://www.w3.org/2000/svg">
<path d="M20 0V20H0V0H20Z" fill="white" fill-opacity="0.01"/>
<g opacity="0.3">
<path d="M12.5 9.16667C12.5 10.5474 11.3808 11.6667 10 11.6667C8.61933 11.6667 7.50004 10.5474 7.50004 9.16667C7.50004 7.78595 8.61933 6.66667 10 6.66667C11.3808 6.66667 12.5 7.78595 12.5 9.16667Z" fill="#5B5B5B"/>
<path d="M16.6667 9.16667C16.6667 13.585 11.9234 16.6481 10.4388 17.4986C10.1657 17.6551 9.83441 17.6551 9.5613 17.4986C8.07665 16.6481 3.33337 13.585 3.33337 9.16667C3.33337 5.48477 6.31814 2.5 10 2.5C13.6819 2.5 16.6667 5.48477 16.6667 9.16667Z" fill="#5B5B5B"/>
</g>
<path d="M12.5 9.16667C12.5 10.5474 11.3808 11.6667 10 11.6667C8.61933 11.6667 7.50004 10.5474 7.50004 9.16667C7.50004 7.78596 8.61933 6.66667 10 6.66667C11.3808 6.66667 12.5 7.78596 12.5 9.16667Z" stroke="#5B5B5B"/>
<path d="M16.6667 9.16667C16.6667 13.585 11.9234 16.6481 10.4388 17.4986C10.1657 17.6551 9.83441 17.6551 9.5613 17.4986C8.07665 16.6481 3.33337 13.585 3.33337 9.16667C3.33337 5.48477 6.31814 2.5 10 2.5C13.6819 2.5 16.6667 5.48477 16.6667 9.16667Z" stroke="#5B5B5B"/>
</svg>