<svg width="40" height="40" viewBox="0 0 40 40" fill="none" xmlns="http://www.w3.org/2000/svg">
<path d="M40 0V40H0V0H40Z" fill="white" fill-opacity="0.01"/>
<g opacity="0.3">
<path d="M5 10.6937C5 10.3524 5.33272 10.1035 5.66319 10.1887C7.65474 10.7022 13.8274 11.91 20 9.16665C26.1448 6.43567 32.2897 7.62035 34.3097 8.13762C34.7266 8.2444 35 8.62365 35 9.05408V29.3063C35 29.6476 34.6673 29.8965 34.3368 29.8113C32.3453 29.2978 26.1726 28.09 20 30.8333C13.8552 33.5643 7.71032 32.3796 5.69034 31.8623C5.27336 31.7556 5 31.3763 5 30.9459V10.6937Z" fill="#299FDA"/>
<path d="M25 20.0001C25 22.7615 22.7614 25.0001 20 25.0001C17.2386 25.0001 15 22.7615 15 20.0001C15 17.2387 17.2386 15.0001 20 15.0001C22.7614 15.0001 25 17.2387 25 20.0001Z" fill="#299FDA"/>
</g>
<path d="M5 10.6937C5 10.3524 5.33272 10.1035 5.66319 10.1887C7.65474 10.7022 13.8274 11.91 20 9.16665C26.1448 6.43567 32.2897 7.62035 34.3097 8.13762C34.7266 8.2444 35 8.62365 35 9.05408V29.3063C35 29.6476 34.6673 29.8965 34.3368 29.8113C32.3453 29.2978 26.1726 28.09 20 30.8333C13.8552 33.5643 7.71032 32.3796 5.69034 31.8623C5.27336 31.7556 5 31.3763 5 30.9459V10.6937Z" stroke="#299FDA"/>
<path d="M25 20.0001C25 22.7615 22.7614 25.0001 20 25.0001C17.2386 25.0001 15 22.7615 15 20.0001C15 17.2387 17.2386 15.0001 20 15.0001C22.7614 15.0001 25 17.2387 25 20.0001Z" stroke="#299FDA"/>
</svg>
