<svg width="72" height="72" viewBox="0 0 72 72" fill="none" xmlns="http://www.w3.org/2000/svg">
<path d="M0 0V72H72V0H0Z" fill="white" fill-opacity="0.01"/>
<path opacity="0.3" d="M49.6071 49.6058C37.4283 61.7846 25.963 63.2613 22.2331 63.3986C21.3881 63.4297 20.5569 63.2913 19.7366 63.0862L19.5149 63.0308C15.0851 61.9233 11.4278 58.8086 9.62914 54.6117C9.42629 54.1384 9.4851 53.5911 9.80203 53.1852C13.282 48.7285 18.1518 45.6284 22.7466 42.4218C22.9457 42.2829 23.2158 42.3064 23.3875 42.4781L29.236 48.3266C29.37 48.4605 29.5672 48.5072 29.7448 48.4412C31.0469 47.9578 36.4891 45.7533 41.1218 41.1205C45.7546 36.4878 47.9591 31.0456 48.4425 29.7435C48.5085 29.5659 48.4618 29.3687 48.3279 29.2347L42.4787 23.3856C42.3073 23.2142 42.2835 22.9448 42.4215 22.7455C45.5744 18.1936 48.6648 13.0631 53.1966 9.75746C53.5981 9.46454 54.1254 9.41886 54.5823 9.61465C58.7986 11.4216 61.9276 15.0958 63.0402 19.5461L63.0875 19.7353C63.2926 20.5556 63.431 21.3868 63.3999 22.2318C63.2626 25.9617 61.7859 37.427 49.6071 49.6058Z" fill="#1E4262"/>
<path d="M11.9995 27C11.9995 25.0302 12.3875 23.0796 13.1413 21.2597C13.8951 19.4399 15 17.7863 16.3929 16.3934C17.7858 15.0005 19.4394 13.8956 21.2593 13.1418C23.0791 12.388 25.0297 12 26.9995 12M21.0726 27.4562C21.293 25.8877 22.0043 24.4293 23.1046 23.29C24.2048 22.1507 25.6375 21.3889 27.1973 21.1139M49.6061 49.6058C37.4273 61.7846 25.962 63.2613 22.2321 63.3986C21.3871 63.4297 20.556 63.2913 19.7357 63.0862L19.5139 63.0308C15.0842 61.9233 11.4268 58.8086 9.62816 54.6117V54.6117C9.42532 54.1384 9.48413 53.5911 9.80105 53.1852C13.281 48.7285 18.1508 45.6284 22.7456 42.4218C22.9448 42.2829 23.2149 42.3064 23.3865 42.4781L29.2351 48.3266C29.369 48.4605 29.5663 48.5072 29.7438 48.4412C31.046 47.9578 36.4881 45.7533 41.1208 41.1205C45.7536 36.4878 47.9581 31.0456 48.4416 29.7435C48.5075 29.5659 48.4609 29.3687 48.327 29.2347L42.4778 23.3856C42.3064 23.2142 42.2825 22.9448 42.4206 22.7455C45.5734 18.1936 48.6638 13.0631 53.1956 9.75745C53.5972 9.46454 54.1244 9.41885 54.5813 9.61465V9.61465C58.7976 11.4216 61.9267 15.0958 63.0392 19.5461L63.0865 19.7353C63.2916 20.5556 63.43 21.3868 63.3989 22.2318C63.2616 25.9617 61.7849 37.427 49.6061 49.6058Z" stroke="#1E4262" stroke-width="2" stroke-linecap="round" stroke-linejoin="round"/>
</svg>
