<svg width="20" height="20" viewBox="0 0 20 20" fill="none" xmlns="http://www.w3.org/2000/svg">
<path d="M20 0V20H0V0H20Z" fill="white" fill-opacity="0.01"/>
<path opacity="0.3" d="M5 3.5C5 2.94772 5.44772 2.5 6 2.5H14C14.5523 2.5 15 2.94772 15 3.5V16.5C15 17.0523 14.5523 17.5 14 17.5H6C5.44772 17.5 5 17.0523 5 16.5V3.5Z" fill="#24A43F"/>
<path d="M10 14.1667H10.0083M6 17.5H14C14.5523 17.5 15 17.0523 15 16.5V3.5C15 2.94772 14.5523 2.5 14 2.5H6C5.44772 2.5 5 2.94772 5 3.5V16.5C5 17.0523 5.44772 17.5 6 17.5Z" stroke="#24A43F" stroke-linecap="round"/>
</svg>
